<?xml version="1.0" encoding="UTF-8" standalone="no"?><!DOCTYPE svg PUBLIC "-//W3C//DTD SVG 1.1//EN" "http://www.w3.org/Graphics/SVG/1.1/DTD/svg11.dtd"><svg width="100%" height="100%" viewBox="0 0 4542 4292" version="1.1" xmlns="http://www.w3.org/2000/svg" xmlns:xlink="http://www.w3.org/1999/xlink" xml:space="preserve" xmlns:serif="http://www.serif.com/" style="fill-rule:evenodd;clip-rule:evenodd;stroke-linecap:round;stroke-linejoin:round;stroke-miterlimit:10;"><g id="PANDA_FOX"><g id="PANDA_FOX1" serif:id="PANDA_FOX"><g><path d="M2943.14,4421.23c372.045,92.419 1394.25,-1042.79 1183.2,-1396.65c-547.485,94.22 -979.956,579.419 -1134.13,1049.5" style="fill:#bf4d06;"/><clipPath id="_clip1"><path d="M2943.14,4421.23c372.045,92.419 1394.25,-1042.79 1183.2,-1396.65c-547.485,94.22 -979.956,579.419 -1134.13,1049.5"/></clipPath><g clip-path="url(#_clip1)"><path d="M3985.28,3368.77c7.618,99.792 -29.599,123.3 -25.51,118.801c19.276,-21.211 90.696,-57.735 159.336,-56.734l142.654,-547.318l-483.685,224.776c15.586,47.552 21.696,128.958 -28.844,176.51c31.622,-30.277 65.191,-51.788 106.272,-39.498c20.245,47.684 27.49,113.538 0,151.675c44.22,-43.383 95.002,-41.502 129.777,-28.212Z" style="fill:#edddd4;"/></g><path id="body_color" d="M2280.48,4776.37c-26.487,-0.099 -52.139,-1.528 -75.156,-4.366c7.483,46.227 16.443,115.016 10.886,152.531c-4.78,32.276 -22.487,48.688 -39.713,52.102c-192.879,38.23 -389.007,50.578 -501.185,23.972c-60.152,-14.266 -98.417,-41.682 -111.426,-75.758c-60.563,-158.636 -170.214,-570.176 -179.452,-899.39c-24.506,50.576 -48.775,106.266 -75.982,152.971c-38.67,66.38 -84.876,114.585 -139.08,122.645c-109.569,16.292 -188.224,-15.891 -236.367,-76.084c-68.459,-85.593 -74.749,-235.619 -6.826,-398.925c72.007,-173.124 232.308,-388.529 532.017,-471.113c295.405,-100.857 573.301,-120.005 835.075,-124.418c0.364,-0.006 0.728,-0.006 1.092,-0c261.752,4.412 539.622,23.558 834.873,124.357c299.867,82.585 460.203,298.026 532.219,471.174c67.924,163.306 61.634,313.332 -6.825,398.925c-48.143,60.193 -126.798,92.376 -236.367,76.084c-54.205,-8.06 -100.411,-56.265 -139.08,-122.645c-27.208,-46.706 -51.478,-102.398 -75.981,-152.957c-9.24,329.205 -118.891,740.741 -179.453,899.376c-13.009,34.076 -51.274,61.492 -111.427,75.758c-112.177,26.606 -308.305,14.258 -501.184,-23.972c-17.226,-3.414 -34.933,-19.826 -39.714,-52.102c-5.556,-37.515 3.404,-106.304 10.885,-152.531c-23.091,2.847 -48.835,4.277 -75.416,4.367c-8.47,0.185 -17.29,0.2 -26.413,-0.001Z" style="fill:#f76e19;"/><clipPath id="_clip2"><path d="M2280.48,4776.37c-26.487,-0.099 -52.139,-1.528 -75.156,-4.366c7.483,46.227 16.443,115.016 10.886,152.531c-4.78,32.276 -22.487,48.688 -39.713,52.102c-192.879,38.23 -389.007,50.578 -501.185,23.972c-60.152,-14.266 -98.417,-41.682 -111.426,-75.758c-60.563,-158.636 -170.214,-570.176 -179.452,-899.39c-24.506,50.576 -48.775,106.266 -75.982,152.971c-38.67,66.38 -84.876,114.585 -139.08,122.645c-109.569,16.292 -188.224,-15.891 -236.367,-76.084c-68.459,-85.593 -74.749,-235.619 -6.826,-398.925c72.007,-173.124 232.308,-388.529 532.017,-471.113c295.405,-100.857 573.301,-120.005 835.075,-124.418c0.364,-0.006 0.728,-0.006 1.092,-0c261.752,4.412 539.622,23.558 834.873,124.357c299.867,82.585 460.203,298.026 532.219,471.174c67.924,163.306 61.634,313.332 -6.825,398.925c-48.143,60.193 -126.798,92.376 -236.367,76.084c-54.205,-8.06 -100.411,-56.265 -139.08,-122.645c-27.208,-46.706 -51.478,-102.398 -75.981,-152.957c-9.24,329.205 -118.891,740.741 -179.453,899.376c-13.009,34.076 -51.274,61.492 -111.427,75.758c-112.177,26.606 -308.305,14.258 -501.184,-23.972c-17.226,-3.414 -34.933,-19.826 -39.714,-52.102c-5.556,-37.515 3.404,-106.304 10.885,-152.531c-23.091,2.847 -48.835,4.277 -75.416,4.367c-8.47,0.185 -17.29,0.2 -26.413,-0.001Z"/></clipPath><g clip-path="url(#_clip2)"><path id="leg_left" d="M3972.89,3964.66c-0,0 -394.937,4.404 -651.184,222.314c-256.248,217.909 84.368,239.115 84.368,239.115l444.826,-89.031l234.078,-83.496l34.123,-81.264l-146.211,-207.638Z" style="fill:#944a00;"/><path id="leg_left1" serif:id="leg_left" d="M1345.52,4370.38c-0,-0 -237.72,-315.411 -565.131,-392.545c-327.41,-77.134 -142.521,209.719 -142.521,209.719l335.447,305.404l206.03,138.983l85.67,-20.709l80.505,-240.852Z" style="fill:#944a00;"/><path d="M2273.39,4435.64c-0.443,3.005 -2.984,5.254 -6.021,5.328c-3.036,0.074 -5.684,-2.05 -6.272,-5.029c-8.58,-46.121 -24.845,-121.117 -46.862,-167.821c-0.775,-1.571 -2.174,-2.745 -3.856,-3.234c-1.682,-0.49 -3.492,-0.25 -4.989,0.661c-32.979,21.883 -48.472,69.99 -57.303,128.091c-0.532,2.969 -3.14,5.112 -6.155,5.061c-3.015,-0.051 -5.548,-2.282 -5.98,-5.267c-9.452,-61.924 -27.408,-125.468 -65.104,-192.713c-1.019,-1.817 -2.878,-3.006 -4.955,-3.169c-2.076,-0.163 -4.098,0.72 -5.389,2.355c-20.047,25.476 -33.384,50.942 -42.435,76.409c-0.978,2.827 -3.847,4.542 -6.8,4.064c-2.953,-0.478 -5.135,-3.01 -5.171,-6.001c-0.759,-42.477 -6.903,-84.955 -20.255,-127.433c-0.901,-2.852 -3.699,-4.665 -6.67,-4.323c-24.469,3.413 -42.009,29.535 -56.057,67.132c-1.092,2.844 -4.077,4.486 -7.064,3.884c-2.987,-0.602 -5.103,-3.271 -5.008,-6.317c2.133,-62.291 -0.059,-124.974 -18.752,-189.157c-0.567,-1.926 -2.025,-3.462 -3.92,-4.127c-1.894,-0.665 -3.992,-0.379 -5.639,0.77c-16.319,12.842 -30.437,34.567 -43.557,60.288c-1.491,2.588 -4.627,3.731 -7.434,2.709c-2.807,-1.022 -4.473,-3.914 -3.95,-6.855c10.582,-64.694 7.382,-129.379 -6.118,-194.065c-0.674,-3.21 -3.716,-5.351 -6.966,-4.904c-18.609,3.987 -36.415,20.952 -53.877,43.418c-1.954,2.083 -5.102,2.507 -7.537,1.015c-2.436,-1.492 -3.488,-4.489 -2.519,-7.176c20.544,-58.268 26.868,-117.854 13.773,-179.29c-0.497,-2.315 -2.259,-4.149 -4.552,-4.737c-23.829,-5.68 -49.884,8.734 -76.972,32.445c-2.246,1.93 -5.538,2.018 -7.883,0.21c-2.345,-1.808 -3.098,-5.014 -1.802,-7.677c31.712,-65.785 53.689,-136.437 46.642,-221.603c-0.204,-2.453 -1.831,-4.558 -4.154,-5.373c-33.411,-10.929 -72.42,3.357 -113.191,25.575c-2.619,1.351 -5.827,0.658 -7.657,-1.652c-1.829,-2.31 -1.766,-5.592 0.149,-7.831c62.432,-74.272 98.452,-159.848 99.292,-260.502l-25.213,-113.459l598.812,25.213l598.812,-25.213l-25.213,113.459c0.954,114.251 47.234,209.076 126.066,289.951c-54.553,-33.275 -107.905,-61.147 -151.279,-44.123c-9.41,101.355 22.276,182.163 63.033,258.435c-37.982,-39.28 -74.744,-67.576 -107.156,-56.73c-18.659,82.819 -1.931,162.268 37.819,239.525c-30.553,-46.921 -61.186,-92.569 -94.549,-94.549c-18.762,86.145 -19.436,172.289 6.303,258.434c-22.212,-51.923 -45.027,-101.437 -75.639,-119.762c-26.195,83.751 -23.53,164.878 -18.91,245.828c-17.186,-64.192 -38.964,-113.299 -75.639,-113.459c-21.273,65.134 -25.451,130.268 -18.91,195.402c-7.083,-48.326 -22.549,-96.651 -63.033,-144.976c-51.751,89.02 -68.448,171.467 -75.639,252.131c-7.95,-83.675 -22.352,-157.672 -69.336,-182.795c-29.541,57.843 -42.833,115.686 -51.359,173.529Z" style="fill:none;"/><clipPath id="_clip3"><path d="M2273.39,4435.64c-0.443,3.005 -2.984,5.254 -6.021,5.328c-3.036,0.074 -5.684,-2.05 -6.272,-5.029c-8.58,-46.121 -24.845,-121.117 -46.862,-167.821c-0.775,-1.571 -2.174,-2.745 -3.856,-3.234c-1.682,-0.49 -3.492,-0.25 -4.989,0.661c-32.979,21.883 -48.472,69.99 -57.303,128.091c-0.532,2.969 -3.14,5.112 -6.155,5.061c-3.015,-0.051 -5.548,-2.282 -5.98,-5.267c-9.452,-61.924 -27.408,-125.468 -65.104,-192.713c-1.019,-1.817 -2.878,-3.006 -4.955,-3.169c-2.076,-0.163 -4.098,0.72 -5.389,2.355c-20.047,25.476 -33.384,50.942 -42.435,76.409c-0.978,2.827 -3.847,4.542 -6.8,4.064c-2.953,-0.478 -5.135,-3.01 -5.171,-6.001c-0.759,-42.477 -6.903,-84.955 -20.255,-127.433c-0.901,-2.852 -3.699,-4.665 -6.67,-4.323c-24.469,3.413 -42.009,29.535 -56.057,67.132c-1.092,2.844 -4.077,4.486 -7.064,3.884c-2.987,-0.602 -5.103,-3.271 -5.008,-6.317c2.133,-62.291 -0.059,-124.974 -18.752,-189.157c-0.567,-1.926 -2.025,-3.462 -3.92,-4.127c-1.894,-0.665 -3.992,-0.379 -5.639,0.77c-16.319,12.842 -30.437,34.567 -43.557,60.288c-1.491,2.588 -4.627,3.731 -7.434,2.709c-2.807,-1.022 -4.473,-3.914 -3.95,-6.855c10.582,-64.694 7.382,-129.379 -6.118,-194.065c-0.674,-3.21 -3.716,-5.351 -6.966,-4.904c-18.609,3.987 -36.415,20.952 -53.877,43.418c-1.954,2.083 -5.102,2.507 -7.537,1.015c-2.436,-1.492 -3.488,-4.489 -2.519,-7.176c20.544,-58.268 26.868,-117.854 13.773,-179.29c-0.497,-2.315 -2.259,-4.149 -4.552,-4.737c-23.829,-5.68 -49.884,8.734 -76.972,32.445c-2.246,1.93 -5.538,2.018 -7.883,0.21c-2.345,-1.808 -3.098,-5.014 -1.802,-7.677c31.712,-65.785 53.689,-136.437 46.642,-221.603c-0.204,-2.453 -1.831,-4.558 -4.154,-5.373c-33.411,-10.929 -72.42,3.357 -113.191,25.575c-2.619,1.351 -5.827,0.658 -7.657,-1.652c-1.829,-2.31 -1.766,-5.592 0.149,-7.831c62.432,-74.272 98.452,-159.848 99.292,-260.502l-25.213,-113.459l598.812,25.213l598.812,-25.213l-25.213,113.459c0.954,114.251 47.234,209.076 126.066,289.951c-54.553,-33.275 -107.905,-61.147 -151.279,-44.123c-9.41,101.355 22.276,182.163 63.033,258.435c-37.982,-39.28 -74.744,-67.576 -107.156,-56.73c-18.659,82.819 -1.931,162.268 37.819,239.525c-30.553,-46.921 -61.186,-92.569 -94.549,-94.549c-18.762,86.145 -19.436,172.289 6.303,258.434c-22.212,-51.923 -45.027,-101.437 -75.639,-119.762c-26.195,83.751 -23.53,164.878 -18.91,245.828c-17.186,-64.192 -38.964,-113.299 -75.639,-113.459c-21.273,65.134 -25.451,130.268 -18.91,195.402c-7.083,-48.326 -22.549,-96.651 -63.033,-144.976c-51.751,89.02 -68.448,171.467 -75.639,252.131c-7.95,-83.675 -22.352,-157.672 -69.336,-182.795c-29.541,57.843 -42.833,115.686 -51.359,173.529Z"/></clipPath><g clip-path="url(#_clip3)"><g id="_2body" serif:id="2body"><ellipse id="body2_color" cx="2309.12" cy="3619.87" rx="740.766" ry="1128.83" style="fill:#fff;"/><clipPath id="_clip4"><ellipse id="body2_color1" serif:id="body2_color" cx="2309.12" cy="3619.87" rx="740.766" ry="1128.83"/></clipPath><g clip-path="url(#_clip4)"><path id="shadow_body2" d="M3375.96,3815.71l-203.51,631.923l-643.686,10.831c0,-0 1138.19,-752.14 428.171,-1427.48l388.478,-302.159l10.333,659.703" style="fill:#111;fill-opacity:0.18;"/></g></g></g><g><path d="M2518.9,3421.03c80.472,68.282 75.519,131.901 0,220.183c-77.857,91.016 -15.426,206.552 44.054,237.889" style="fill:none;stroke:#19abf7;stroke-width:27.67px;"/><path d="M2577.55,3888.51l3.079,-5.334l-20.969,-12.106l-3.079,5.334l20.969,12.106Z" style="fill:#241a0d;stroke:#000;stroke-width:27.67px;"/></g><g><path d="M2058.2,3421.03c-80.472,68.282 -75.519,131.901 -0,220.183c77.857,91.016 15.426,206.552 -44.054,237.889" style="fill:none;stroke:#19abf7;stroke-width:27.67px;"/><path d="M2029.12,3874.76l-3.497,-5.07l-19.933,13.747l3.497,5.07l19.933,-13.747Z" style="fill:#241a0d;stroke:#000;stroke-width:27.67px;"/></g><g id="body_shadows"><path id="body_shadow_1" d="M2910.85,5014.81l119.257,-31.425l62.185,-247.504l112.953,-542.713l-4.13,-217.94l-5.597,-73.114c-0,0 -175.979,853.627 -412.925,1112.7" style="fill:#525252;fill-opacity:0.25;"/><path id="body_shadow_3" d="M962.87,4303.89l176.365,16.797l137.896,-64.55l72.372,-116.477l30.193,-105.985c0,0 58.408,-117.438 50.586,-108.88c-53.677,58.73 -303.653,423.236 -460.771,333.689" style="fill:#525252;fill-opacity:0.25;"/><path d="M1389.74,4094.75c0,0 -8.089,-186.203 -6.933,-201.726c1.155,-15.522 136.357,0 136.357,0l2.312,133.547l-131.736,68.179Z" style="fill:#f76e19;"/><path id="body_shadow_4" d="M3693.47,4351.53l58.521,-203.83l-0.755,-91.846l-41.933,-64.968l-14.628,-191.051c-0,0 -361.656,-406.854 -255.606,-272.198c49.52,62.878 256.838,625.889 65.94,779.474" style="fill:#525252;fill-opacity:0.25;"/><path id="body_shadow_5" d="M3153.33,3321.38l121.047,75.109c-0,-0 -1017.76,284.386 -1958.2,15.673l-37.155,-88.556" style="fill:#525252;fill-opacity:0.25;"/></g></g><g id="ear"><path d="M2827.46,1068.39c45.347,-129.417 150.771,-230.797 300.076,-311.7c5.271,-2.842 11.51,-3.277 17.125,-1.195c5.614,2.083 10.06,6.482 12.202,12.074c66.444,175.117 62.879,337.104 19.586,491.642l-265.195,-0l-83.794,-190.821Z" style="fill:#f76e19;"/><path d="M2897.29,1083.69c27.894,-79.606 91.697,-142.454 182.003,-192.934c5.325,-2.964 11.682,-3.445 17.393,-1.317c5.711,2.129 10.202,6.654 12.288,12.38c38.755,107.581 35.925,207.359 9.227,302.661l-167.869,-0l-53.042,-120.79Z" style="fill:#fff;"/></g><g id="ear1" serif:id="ear"><path d="M1773.18,1068.39c-45.347,-129.417 -150.771,-230.797 -300.076,-311.7c-5.271,-2.842 -11.51,-3.277 -17.125,-1.195c-5.614,2.083 -10.06,6.482 -12.202,12.074c-66.444,175.117 -62.879,337.104 -19.586,491.642l265.195,-0l83.794,-190.821Z" style="fill:#f76e19;"/><path d="M1703.35,1083.69c-27.894,-79.606 -91.697,-142.454 -182.003,-192.934c-5.325,-2.964 -11.682,-3.445 -17.393,-1.317c-5.711,2.129 -10.201,6.654 -12.287,12.38c-38.756,107.581 -35.926,207.359 -9.228,302.661l167.869,-0l53.042,-120.79Z" style="fill:#fff;"/></g><path id="head_color" d="M2256.25,961.982c-825.042,-7.828 -1309.18,567.45 -1434.94,1291.8c-69.225,398.722 -15.58,673.484 140.091,859.476c116.871,139.634 291.501,229.497 516.113,283.756c222.907,53.847 495.252,72.716 809.015,71.104c414.377,-2.129 790.077,-58.29 1062.6,-193.845c183.221,-91.136 319.999,-218.143 391.39,-388.378c76.287,-181.913 77.962,-413.537 -19.557,-704.316c-213.058,-635.292 -538.439,-1210.81 -1464.71,-1219.6l-0.001,0Z" style="fill:#fff;"/><clipPath id="_clip5"><path id="head_color1" serif:id="head_color" d="M2256.25,961.982c-825.042,-7.828 -1309.18,567.45 -1434.94,1291.8c-69.225,398.722 -15.58,673.484 140.091,859.476c116.871,139.634 291.501,229.497 516.113,283.756c222.907,53.847 495.252,72.716 809.015,71.104c414.377,-2.129 790.077,-58.29 1062.6,-193.845c183.221,-91.136 319.999,-218.143 391.39,-388.378c76.287,-181.913 77.962,-413.537 -19.557,-704.316c-213.058,-635.292 -538.439,-1210.81 -1464.71,-1219.6l-0.001,0Z"/></clipPath><g clip-path="url(#_clip5)"><g id="hodie_shadow"><path id="shadow_hoddie" d="M3275.8,2236.64c0,0 -974.577,-640.896 -1999.18,0c-1351.81,845.567 94.89,-641.717 94.89,-641.717l1409.94,-4.137l918.408,293.294l-424.063,352.56Z" style="fill:#525252;fill-opacity:0.25;"/><path id="shadow_hoddie1" serif:id="shadow_hoddie" d="M928.409,2236.64l-507.597,1251.43c0,0 1462.01,21.396 1371.39,-30.375c-1027.81,-587.214 -777.454,-944.026 -777.454,-944.026" style="fill:#525252;fill-opacity:0.25;"/><path id="shadow_hoddie2" serif:id="shadow_hoddie" d="M3609.31,2236.64l292.135,1245.14c0,-0 -1246.55,27.685 -1155.93,-24.086c1027.81,-587.214 777.455,-944.026 777.455,-944.026" style="fill:#525252;fill-opacity:0.25;"/></g><g id="right_eye"><path d="M1928.13,2479.2c74.143,-64.813 94.444,-571.184 -389.119,-581.98c-368.783,-8.233 -717.011,322.818 -682.222,651.9c22.126,209.299 362.959,701.669 930.481,206.487c-365.811,154.383 -569.065,-111.859 -576.735,-216.594c-15.934,-217.559 154.425,-337.886 338.583,-368.905c60.157,-10.132 243.475,8.834 379.012,309.092Z"/><path d="M1586.76,2250.97c147.823,-0 267.835,120.011 267.835,267.835c0,147.821 -120.012,267.835 -267.835,267.835c-147.822,-0 -267.834,-120.014 -267.834,-267.835c-0,-147.824 120.012,-267.835 267.834,-267.835Z" style="fill:#fff;"/><clipPath id="_clip6"><path d="M1586.76,2250.97c147.823,-0 267.835,120.011 267.835,267.835c0,147.821 -120.012,267.835 -267.835,267.835c-147.822,-0 -267.834,-120.014 -267.834,-267.835c-0,-147.824 120.012,-267.835 267.834,-267.835Z"/></clipPath><g clip-path="url(#_clip6)"><path d="M1372.68,2679.7c-33.746,-44.81 -53.756,-100.534 -53.756,-160.896c-0,-147.824 120.012,-267.835 267.834,-267.835c24.504,-0 48.244,3.297 70.799,9.473c-26.332,22.031 -43.091,55.133 -43.091,92.12c-0,66.265 53.797,120.062 120.063,120.062c42.037,0 79.058,-21.651 100.509,-54.4c12.608,31.061 19.555,65.017 19.555,100.58c0,147.821 -120.012,267.835 -267.835,267.835c-57.457,-0 -110.712,-18.131 -154.352,-48.981c18.64,-31.551 35.285,-66.708 9.013,-81.878c-29.821,-17.216 -53.983,-14.664 -68.739,23.92Z"/><path d="M1372.68,2679.7c-33.746,-44.81 -53.756,-100.534 -53.756,-160.896c-0,-147.824 120.012,-267.835 267.834,-267.835c24.504,-0 48.244,3.297 70.799,9.473c-26.332,22.031 -43.091,55.133 -43.091,92.12c-0,66.265 53.797,120.062 120.063,120.062c42.037,0 79.058,-21.651 100.509,-54.4c12.608,31.061 19.555,65.017 19.555,100.58c0,147.821 -120.012,267.835 -267.835,267.835c-57.457,-0 -110.712,-18.131 -154.352,-48.981"/></g></g><g id="left_eye"><path d="M2658.5,2479.2c-74.143,-64.813 -94.444,-571.184 389.119,-581.98c368.785,-8.233 717.011,322.818 682.222,651.9c-22.127,209.299 -362.958,701.669 -930.481,206.487c365.811,154.383 569.066,-111.859 576.737,-216.594c15.933,-217.559 -154.427,-337.886 -338.585,-368.905c-60.157,-10.132 -243.475,8.834 -379.012,309.092Z"/><path d="M3275.02,2518.8c0,-147.824 -120.014,-267.835 -267.836,-267.835c-147.821,-0 -267.835,120.011 -267.835,267.835c-0,147.821 120.014,267.835 267.835,267.835c147.822,-0 267.836,-120.014 267.836,-267.835Z" style="fill:#fff;"/><clipPath id="_clip7"><path d="M3275.02,2518.8c0,-147.824 -120.014,-267.835 -267.836,-267.835c-147.821,-0 -267.835,120.011 -267.835,267.835c-0,147.821 120.014,267.835 267.835,267.835c147.822,-0 267.836,-120.014 267.836,-267.835Z"/></clipPath><g clip-path="url(#_clip7)"><path d="M2846.29,2732.88c44.809,33.744 100.535,53.756 160.895,53.756c147.822,-0 267.836,-120.014 267.836,-267.835c0,-24.506 -3.299,-48.244 -9.474,-70.801c-22.032,26.333 -55.133,43.093 -92.119,43.093c-66.265,-0 -120.064,-53.798 -120.064,-120.063c-0,-42.038 21.651,-79.057 54.4,-100.509c-31.061,-12.609 -65.015,-19.555 -100.579,-19.555c-147.821,-0 -267.835,120.011 -267.835,267.835c-0,57.457 18.133,110.711 48.981,154.351"/></g></g><path id="hoddie_color" d="M1854.6,3485.14c-1799.89,-613.465 -343.698,-1657.89 439.225,-1655.35c772.528,2.51 2192.57,1042.46 447.256,1630.45c-30.364,10.229 1160.37,67.421 1160.37,67.421l-36.261,-775.857l-0,-252.605l-112.843,-418.792l-312.433,-611.57l-388.273,-345.669l-529.081,-192.07l-491.914,0l-538.448,172.127l-319.079,245.958l-232.663,336.328l-162.259,468.018l-55.734,259.253l-222.448,1114.88c-0,-0 1390.58,-30.255 1354.59,-42.521Z" style="fill:#f76e19;"/><clipPath id="_clip8"><path d="M1854.6,3485.14c-1799.89,-613.465 -343.698,-1657.89 439.225,-1655.35c772.528,2.51 2192.57,1042.46 447.256,1630.45c-30.364,10.229 1160.37,67.421 1160.37,67.421l-36.261,-775.857l-0,-252.605l-112.843,-418.792l-312.433,-611.57l-388.273,-345.669l-529.081,-192.07l-491.914,0l-538.448,172.127l-319.079,245.958l-232.663,336.328l-162.259,468.018l-55.734,259.253l-222.448,1114.88c-0,-0 1390.58,-30.255 1354.59,-42.521Z"/></clipPath><g clip-path="url(#_clip8)"><path id="shadow_head" d="M1846.67,806.11l1327.66,272l611.86,991.177l78.995,638.803l-78.188,94.571c3.421,-91.15 -300.342,-1866.86 -1902.95,-1824.75" style="fill:#525252;fill-opacity:0.25;"/><g><path d="M1409.64,1982.88c-2.841,-0.152 -5.216,-2.213 -5.766,-5.005c-0.55,-2.792 0.865,-5.6 3.437,-6.819c33.021,-15.814 95.365,-44.698 137.945,-58.862c2.106,-0.655 3.71,-2.372 4.221,-4.516c0.511,-2.145 -0.147,-4.401 -1.731,-5.935c-19.016,-16.17 -53.092,-33.849 -95.633,-43.215c-2.91,-0.652 -4.929,-3.305 -4.78,-6.284c0.149,-2.979 2.422,-5.418 5.383,-5.776c65.874,-12.011 150.986,-37.899 197.145,-47.584c2.034,-0.398 3.738,-1.777 4.551,-3.683c0.812,-1.906 0.627,-4.091 -0.495,-5.833c-6.523,-7.727 -21.949,-14.035 -43.021,-19.348c-3.025,-0.762 -5.025,-3.639 -4.685,-6.74c0.34,-3.102 2.915,-5.477 6.033,-5.567c80.592,-7.87 203.297,-31.013 265.188,-39.502c2.198,-0.283 4.083,-1.709 4.952,-3.748c0.869,-2.039 0.593,-4.386 -0.725,-6.168c-5.697,-6.257 -16.097,-12.485 -29.09,-18.62c-2.837,-1.351 -4.228,-4.6 -3.246,-7.585c0.981,-2.986 4.028,-4.776 7.113,-4.181c90.891,6.002 247.65,-6.078 319.024,-10.002c2.24,-0.119 4.245,-1.43 5.252,-3.435c6.406,-13.444 -0.745,-28.61 -13.83,-44.547c-1.863,-2.269 -1.896,-5.528 -0.078,-7.834c1.817,-2.306 4.994,-3.036 7.636,-1.755c60.249,28.13 129.255,44.381 209.705,45.119c1.482,0.014 2.911,0.554 4.032,1.524c14.218,12.306 111.239,96.296 130.374,112.861c1.969,1.705 2.674,4.452 1.771,6.895c-8.849,23.911 -53.947,145.774 -59.026,159.501c-0.307,0.829 -0.435,1.714 -0.374,2.597c1.345,19.602 17.008,247.903 17.008,247.903l-91.856,32.683c-96.55,0.407 -176.698,23.106 -245.068,61.814c28.137,-26.799 51.707,-53.011 37.335,-74.342c-85.65,-4.681 -153.947,10.851 -218.415,30.845c33.206,-18.65 57.129,-36.706 47.974,-52.646c-69.982,-9.217 -137.127,-1.037 -202.427,18.461c39.661,-14.994 78.247,-30.028 79.931,-46.427c-72.792,-9.27 -145.59,-9.649 -218.397,2.957c43.886,-10.891 85.736,-22.079 101.232,-37.118c-70.767,-12.923 -139.326,-11.657 -207.736,-9.43c54.252,-8.414 107.043,31.69 107.19,13.661c-55.036,-10.493 -143.191,32.557 -198.236,35.737c40.84,-3.455 80.942,-106.954 121.793,-126.829c-76.28,-29.846 -134.101,-48.804 -181.61,-53.222Z" style="fill:none;"/><clipPath id="_clip9"><path d="M1409.64,1982.88c-2.841,-0.152 -5.216,-2.213 -5.766,-5.005c-0.55,-2.792 0.865,-5.6 3.437,-6.819c33.021,-15.814 95.365,-44.698 137.945,-58.862c2.106,-0.655 3.71,-2.372 4.221,-4.516c0.511,-2.145 -0.147,-4.401 -1.731,-5.935c-19.016,-16.17 -53.092,-33.849 -95.633,-43.215c-2.91,-0.652 -4.929,-3.305 -4.78,-6.284c0.149,-2.979 2.422,-5.418 5.383,-5.776c65.874,-12.011 150.986,-37.899 197.145,-47.584c2.034,-0.398 3.738,-1.777 4.551,-3.683c0.812,-1.906 0.627,-4.091 -0.495,-5.833c-6.523,-7.727 -21.949,-14.035 -43.021,-19.348c-3.025,-0.762 -5.025,-3.639 -4.685,-6.74c0.34,-3.102 2.915,-5.477 6.033,-5.567c80.592,-7.87 203.297,-31.013 265.188,-39.502c2.198,-0.283 4.083,-1.709 4.952,-3.748c0.869,-2.039 0.593,-4.386 -0.725,-6.168c-5.697,-6.257 -16.097,-12.485 -29.09,-18.62c-2.837,-1.351 -4.228,-4.6 -3.246,-7.585c0.981,-2.986 4.028,-4.776 7.113,-4.181c90.891,6.002 247.65,-6.078 319.024,-10.002c2.24,-0.119 4.245,-1.43 5.252,-3.435c6.406,-13.444 -0.745,-28.61 -13.83,-44.547c-1.863,-2.269 -1.896,-5.528 -0.078,-7.834c1.817,-2.306 4.994,-3.036 7.636,-1.755c60.249,28.13 129.255,44.381 209.705,45.119c1.482,0.014 2.911,0.554 4.032,1.524c14.218,12.306 111.239,96.296 130.374,112.861c1.969,1.705 2.674,4.452 1.771,6.895c-8.849,23.911 -53.947,145.774 -59.026,159.501c-0.307,0.829 -0.435,1.714 -0.374,2.597c1.345,19.602 17.008,247.903 17.008,247.903l-91.856,32.683c-96.55,0.407 -176.698,23.106 -245.068,61.814c28.137,-26.799 51.707,-53.011 37.335,-74.342c-85.65,-4.681 -153.947,10.851 -218.415,30.845c33.206,-18.65 57.129,-36.706 47.974,-52.646c-69.982,-9.217 -137.127,-1.037 -202.427,18.461c39.661,-14.994 78.247,-30.028 79.931,-46.427c-72.792,-9.27 -145.59,-9.649 -218.397,2.957c43.886,-10.891 85.736,-22.079 101.232,-37.118c-70.767,-12.923 -139.326,-11.657 -207.736,-9.43c54.252,-8.414 107.043,31.69 107.19,13.661c-55.036,-10.493 -143.191,32.557 -198.236,35.737c40.84,-3.455 80.942,-106.954 121.793,-126.829c-76.28,-29.846 -134.101,-48.804 -181.61,-53.222Z"/></clipPath><g clip-path="url(#_clip9)"><g id="_2body1" serif:id="2body"><path id="body2_color2" serif:id="body2_color" d="M3051.96,1958.08c-0.129,200.98 -427.68,363.874 -954.173,363.534c-526.493,-0.34 -953.833,-163.787 -953.703,-364.767c0.13,-200.98 427.68,-363.874 954.173,-363.534c526.493,0.34 953.833,163.786 953.703,364.767Z" style="fill:#fff;"/><clipPath id="_clip10"><path id="body2_color3" serif:id="body2_color" d="M3051.96,1958.08c-0.129,200.98 -427.68,363.874 -954.173,363.534c-526.493,-0.34 -953.833,-163.787 -953.703,-364.767c0.13,-200.98 427.68,-363.874 954.173,-363.534c526.493,0.34 953.833,163.786 953.703,364.767Z"/></clipPath><g clip-path="url(#_clip10)"><path id="shadow_body21" serif:id="shadow_body2" d="M1932.18,2481.8l-533.953,-100.388l-8.948,-316.433c-0,-0 635.247,559.932 1206.18,211.262l255.222,191.136l-557.497,4.719" style="fill:#111;fill-opacity:0.18;"/></g></g></g><path d="M3175.56,1982.88c2.841,-0.152 5.217,-2.213 5.767,-5.005c0.55,-2.792 -0.866,-5.6 -3.437,-6.819c-33.022,-15.814 -95.365,-44.698 -137.946,-58.862c-2.105,-0.655 -3.709,-2.372 -4.22,-4.516c-0.511,-2.145 0.147,-4.401 1.73,-5.935c19.017,-16.17 53.092,-33.849 95.633,-43.215c2.911,-0.652 4.929,-3.305 4.78,-6.284c-0.149,-2.979 -2.422,-5.418 -5.383,-5.776c-65.873,-12.011 -150.985,-37.899 -197.145,-47.584c-2.033,-0.398 -3.738,-1.777 -4.55,-3.683c-0.813,-1.906 -0.627,-4.091 0.494,-5.833c6.524,-7.727 21.949,-14.035 43.021,-19.348c3.026,-0.762 5.025,-3.639 4.686,-6.74c-0.34,-3.102 -2.915,-5.477 -6.034,-5.567c-80.592,-7.87 -203.297,-31.013 -265.187,-39.502c-2.199,-0.283 -4.083,-1.709 -4.952,-3.748c-0.869,-2.039 -0.594,-4.386 0.725,-6.168c5.696,-6.257 16.096,-12.485 29.089,-18.62c2.837,-1.351 4.228,-4.6 3.247,-7.585c-0.981,-2.986 -4.028,-4.776 -7.114,-4.181c-90.891,6.002 -247.649,-6.078 -319.023,-10.002c-2.241,-0.119 -4.245,-1.43 -5.252,-3.435c-6.406,-13.444 0.745,-28.61 13.829,-44.547c1.863,-2.269 1.896,-5.528 0.079,-7.834c-1.817,-2.306 -4.995,-3.036 -7.636,-1.755c-60.25,28.13 -129.255,44.381 -209.705,45.119c-1.483,0.014 -2.912,0.554 -4.033,1.524c-14.217,12.306 -111.238,96.296 -130.373,112.861c-1.969,1.705 -2.675,4.452 -1.771,6.895c8.849,23.911 53.946,145.774 59.026,159.501c0.307,0.829 0.434,1.714 0.374,2.597c-1.345,19.602 -17.008,247.903 -17.008,247.903l91.855,32.683c96.551,0.407 176.699,23.106 245.069,61.814c-28.137,-26.799 -51.708,-53.011 -37.335,-74.342c85.649,-4.681 153.947,10.851 218.415,30.845c-33.206,-18.65 -57.13,-36.706 -47.975,-52.646c69.982,-9.217 137.127,-1.037 202.427,18.461c-39.661,-14.994 -78.246,-30.028 -79.93,-46.427c72.792,-9.27 145.59,-9.649 218.396,2.957c-43.886,-10.891 -85.736,-22.079 -101.231,-37.118c70.767,-12.923 139.326,-11.657 207.735,-9.43c-54.252,-8.414 -107.042,31.69 -107.189,13.661c55.036,-10.493 143.191,32.557 198.235,35.737c-40.84,-3.455 -80.942,-106.954 -121.793,-126.829c76.281,-29.846 134.102,-48.804 181.61,-53.222Z" style="fill:none;"/><clipPath id="_clip11"><path d="M3175.56,1982.88c2.841,-0.152 5.217,-2.213 5.767,-5.005c0.55,-2.792 -0.866,-5.6 -3.437,-6.819c-33.022,-15.814 -95.365,-44.698 -137.946,-58.862c-2.105,-0.655 -3.709,-2.372 -4.22,-4.516c-0.511,-2.145 0.147,-4.401 1.73,-5.935c19.017,-16.17 53.092,-33.849 95.633,-43.215c2.911,-0.652 4.929,-3.305 4.78,-6.284c-0.149,-2.979 -2.422,-5.418 -5.383,-5.776c-65.873,-12.011 -150.985,-37.899 -197.145,-47.584c-2.033,-0.398 -3.738,-1.777 -4.55,-3.683c-0.813,-1.906 -0.627,-4.091 0.494,-5.833c6.524,-7.727 21.949,-14.035 43.021,-19.348c3.026,-0.762 5.025,-3.639 4.686,-6.74c-0.34,-3.102 -2.915,-5.477 -6.034,-5.567c-80.592,-7.87 -203.297,-31.013 -265.187,-39.502c-2.199,-0.283 -4.083,-1.709 -4.952,-3.748c-0.869,-2.039 -0.594,-4.386 0.725,-6.168c5.696,-6.257 16.096,-12.485 29.089,-18.62c2.837,-1.351 4.228,-4.6 3.247,-7.585c-0.981,-2.986 -4.028,-4.776 -7.114,-4.181c-90.891,6.002 -247.649,-6.078 -319.023,-10.002c-2.241,-0.119 -4.245,-1.43 -5.252,-3.435c-6.406,-13.444 0.745,-28.61 13.829,-44.547c1.863,-2.269 1.896,-5.528 0.079,-7.834c-1.817,-2.306 -4.995,-3.036 -7.636,-1.755c-60.25,28.13 -129.255,44.381 -209.705,45.119c-1.483,0.014 -2.912,0.554 -4.033,1.524c-14.217,12.306 -111.238,96.296 -130.373,112.861c-1.969,1.705 -2.675,4.452 -1.771,6.895c8.849,23.911 53.946,145.774 59.026,159.501c0.307,0.829 0.434,1.714 0.374,2.597c-1.345,19.602 -17.008,247.903 -17.008,247.903l91.855,32.683c96.551,0.407 176.699,23.106 245.069,61.814c-28.137,-26.799 -51.708,-53.011 -37.335,-74.342c85.649,-4.681 153.947,10.851 218.415,30.845c-33.206,-18.65 -57.13,-36.706 -47.975,-52.646c69.982,-9.217 137.127,-1.037 202.427,18.461c-39.661,-14.994 -78.246,-30.028 -79.93,-46.427c72.792,-9.27 145.59,-9.649 218.396,2.957c-43.886,-10.891 -85.736,-22.079 -101.231,-37.118c70.767,-12.923 139.326,-11.657 207.735,-9.43c-54.252,-8.414 -107.042,31.69 -107.189,13.661c55.036,-10.493 143.191,32.557 198.235,35.737c-40.84,-3.455 -80.942,-106.954 -121.793,-126.829c76.281,-29.846 134.102,-48.804 181.61,-53.222Z"/></clipPath><g clip-path="url(#_clip11)"><g id="_2body2" serif:id="2body"><path id="body2_color4" serif:id="body2_color" d="M1533.25,1958.08c0.13,200.98 427.681,363.874 954.174,363.534c526.493,-0.34 953.833,-163.787 953.703,-364.767c-0.13,-200.98 -427.681,-363.874 -954.174,-363.534c-526.493,0.34 -953.833,163.786 -953.703,364.767Z" style="fill:#fff;"/><clipPath id="_clip12"><path id="body2_color5" serif:id="body2_color" d="M1533.25,1958.08c0.13,200.98 427.681,363.874 954.174,363.534c526.493,-0.34 953.833,-163.787 953.703,-364.767c-0.13,-200.98 -427.681,-363.874 -954.174,-363.534c-526.493,0.34 -953.833,163.786 -953.703,364.767Z"/></clipPath><g clip-path="url(#_clip12)"><path id="shadow_body22" serif:id="shadow_body2" d="M2653.03,2481.8l533.954,-100.388l8.948,-316.433c-0,-0 -635.248,559.932 -1206.18,211.262l-255.221,191.136l557.497,4.719" style="fill:#111;fill-opacity:0.18;"/></g></g></g></g><path d="M2355.05,1713.42c4.342,0.651 9.471,12.816 9.471,19.749c0,21.799 -31.678,39.497 -70.698,39.497c-39.019,0 -70.698,-17.698 -70.698,-39.497c0,-6.933 5.13,-19.098 9.472,-19.749c21.987,-3.291 100.465,-3.291 122.453,0Z"/><g id="eyes"><ellipse cx="2564.67" cy="1449.93" rx="92.523" ry="92.413" style="fill:#fff;"/><clipPath id="_clip13"><ellipse cx="2564.67" cy="1449.93" rx="92.523" ry="92.413"/></clipPath><g clip-path="url(#_clip13)"><ellipse cx="2564.67" cy="1503.62" rx="70.767" ry="72.112" style="stroke:#000;stroke-width:80.37px;stroke-miterlimit:1.5;"/><ellipse cx="2582.28" cy="1431.51" rx="53.158" ry="53.994" style="fill:#fff;"/></g><ellipse cx="2022.99" cy="1449.93" rx="92.523" ry="92.413" style="fill:#fff;"/><clipPath id="_clip14"><ellipse cx="2022.99" cy="1449.93" rx="92.523" ry="92.413"/></clipPath><g clip-path="url(#_clip14)"><ellipse cx="2022.99" cy="1503.62" rx="70.767" ry="72.112" style="stroke:#000;stroke-width:80.37px;stroke-miterlimit:1.5;"/><ellipse cx="2040.6" cy="1431.51" rx="53.158" ry="53.994" style="fill:#fff;"/></g></g></g></g><g id="smile_panda"><g><path d="M2293.82,2798.22c-34.047,116.087 -182.568,152.749 -297.249,40.17" style="fill:none;stroke:#000;stroke-width:54.89px;"/><path d="M2293.82,2798.22c34.047,116.087 182.57,152.749 297.249,40.17" style="fill:none;stroke:#000;stroke-width:54.89px;"/><path d="M2293.82,2677.08c47.808,-1.158 113.245,-34.06 150.993,-17.03c37.75,17.03 37.75,51.09 0,85.149c-26.424,25.545 -94.371,51.09 -150.993,68.12c-56.623,-17.03 -124.57,-42.575 -150.994,-68.12c-37.748,-34.059 -37.748,-68.119 0,-85.149c37.749,-17.03 103.184,18.188 150.994,17.03Z"/></g></g></g></g></g></svg>