<?xml version="1.0" encoding="UTF-8" standalone="no"?><!DOCTYPE svg PUBLIC "-//W3C//DTD SVG 1.1//EN" "http://www.w3.org/Graphics/SVG/1.1/DTD/svg11.dtd"><svg width="100%" height="100%" viewBox="0 0 7917 4042" version="1.1" xmlns="http://www.w3.org/2000/svg" xmlns:xlink="http://www.w3.org/1999/xlink" xml:space="preserve" xmlns:serif="http://www.serif.com/" style="fill-rule:evenodd;clip-rule:evenodd;stroke-linejoin:round;stroke-miterlimit:2;"><g><g id="GIGA-BAMBUS" serif:id="GIGA BAMBUS"><g id="BAMBUS"><path d="M4451.75,1427.4c5.064,-21.754 -8.485,-43.527 -30.239,-48.592l-78.831,-18.352c-21.754,-5.065 -43.527,8.485 -48.591,30.239l-70.351,302.184c-5.065,21.754 8.485,43.527 30.239,48.591l78.83,18.353c21.754,5.064 43.527,-8.485 48.592,-30.239l70.351,-302.184Z" style="fill:#58791b;"/><path d="M4356.93,1834.69c5.065,-21.754 -8.485,-43.527 -30.239,-48.591l-78.831,-18.353c-21.753,-5.064 -43.527,8.485 -48.591,30.239l-70.351,302.184c-5.064,21.754 8.485,43.527 30.239,48.592l78.831,18.352c21.754,5.065 43.527,-8.485 48.591,-30.239l70.351,-302.184Z" style="fill:#58791b;"/><path d="M4262.1,2241.98c5.065,-21.753 -8.485,-43.527 -30.239,-48.591l-78.83,-18.352c-21.754,-5.065 -43.527,8.485 -48.592,30.239l-70.35,302.184c-5.065,21.753 8.485,43.527 30.239,48.591l78.83,18.352c21.754,5.065 43.527,-8.485 48.592,-30.239l70.35,-302.184Z" style="fill:#58791b;"/><path d="M4167.28,2649.27c5.064,-21.754 -8.485,-43.527 -30.239,-48.592l-78.831,-18.352c-21.754,-5.065 -43.527,8.485 -48.591,30.239l-70.351,302.184c-5.065,21.754 8.485,43.527 30.239,48.591l78.831,18.353c21.753,5.064 43.527,-8.485 48.591,-30.239l70.351,-302.184Z" style="fill:#58791b;"/></g><g id="BAMBUS1" serif:id="BAMBUS"><path d="M4069.92,3067.48c5.064,-21.754 -8.485,-43.527 -30.239,-48.592l-78.831,-18.352c-21.754,-5.065 -43.527,8.485 -48.591,30.239l-70.351,302.184c-5.065,21.754 8.485,43.527 30.239,48.591l78.83,18.353c21.754,5.064 43.527,-8.486 48.592,-30.239l70.351,-302.184Z" style="fill:#58791b;"/><path d="M3975.1,3474.77c5.065,-21.754 -8.485,-43.527 -30.239,-48.592l-78.831,-18.352c-21.753,-5.064 -43.527,8.485 -48.591,30.239l-70.351,302.184c-5.064,21.754 8.485,43.527 30.239,48.592l78.831,18.352c21.754,5.064 43.527,-8.485 48.591,-30.239l70.351,-302.184Z" style="fill:#58791b;"/><path d="M3880.28,3882.06c5.065,-21.754 -8.485,-43.527 -30.239,-48.591l-78.83,-18.353c-21.754,-5.064 -43.527,8.486 -48.592,30.24l-70.35,302.183c-5.065,21.754 8.485,43.527 30.239,48.592l78.83,18.352c21.754,5.065 43.527,-8.485 48.592,-30.239l70.35,-302.184Z" style="fill:#58791b;"/></g></g><g id="BAMBUS2" serif:id="BAMBUS"><path d="M6907.04,1503.7c-4.392,-16.392 -21.267,-26.135 -37.659,-21.742l-59.401,15.916c-16.392,4.392 -26.134,21.266 -21.742,37.659l61.013,227.702c4.392,16.392 21.267,26.135 37.659,21.743l59.4,-15.917c16.392,-4.392 26.135,-21.266 21.743,-37.658l-61.013,-227.703Z" style="fill:#58791b;"/><path d="M6989.28,1810.6c-4.392,-16.392 -21.266,-26.135 -37.658,-21.743l-59.401,15.917c-16.392,4.392 -26.134,21.266 -21.742,37.658l61.013,227.703c4.392,16.392 21.266,26.135 37.658,21.742l59.401,-15.916c16.392,-4.392 26.134,-21.266 21.742,-37.658l-61.013,-227.703Z" style="fill:#58791b;"/><path d="M7071.51,2117.51c-4.392,-16.393 -21.266,-26.135 -37.658,-21.743l-59.401,15.917c-16.392,4.392 -26.135,21.266 -21.742,37.658l61.012,227.703c4.393,16.392 21.267,26.135 37.659,21.742l59.401,-15.916c16.392,-4.392 26.134,-21.267 21.742,-37.659l-61.013,-227.702Z" style="fill:#58791b;"/><path d="M7153.74,2424.41c-4.393,-16.392 -21.267,-26.134 -37.659,-21.742l-59.401,15.917c-16.392,4.392 -26.134,21.266 -21.742,37.658l61.013,227.703c4.392,16.392 21.267,26.134 37.659,21.742l59.4,-15.916c16.392,-4.392 26.135,-21.267 21.743,-37.659l-61.013,-227.703Z" style="fill:#58791b;"/></g><g id="BAMBUS3" serif:id="BAMBUS"><path d="M6018.72,1398.82c-12.888,-22.323 -41.474,-29.983 -63.797,-17.095l-80.892,46.703c-22.323,12.888 -29.983,41.475 -17.095,63.798l179.029,310.086c12.888,22.323 41.474,29.983 63.797,17.095l80.892,-46.703c22.323,-12.888 29.983,-41.475 17.095,-63.798l-179.029,-310.086Z" style="fill:#58791b;"/><path d="M6260.02,1816.77c-12.888,-22.322 -41.475,-29.982 -63.798,-17.094l-80.892,46.703c-22.323,12.888 -29.983,41.475 -17.095,63.798l179.029,310.086c12.888,22.323 41.475,29.983 63.797,17.095l80.893,-46.704c22.322,-12.888 29.982,-41.474 17.094,-63.797l-179.028,-310.087Z" style="fill:#58791b;"/><path d="M6501.32,2234.71c-12.888,-22.323 -41.475,-29.983 -63.798,-17.094l-80.892,46.703c-22.323,12.888 -29.982,41.474 -17.094,63.797l179.028,310.087c12.888,22.322 41.475,29.982 63.798,17.094l80.892,-46.703c22.323,-12.888 29.982,-41.475 17.094,-63.798l-179.028,-310.086Z" style="fill:#58791b;"/><path d="M6742.62,2652.65c-12.888,-22.323 -41.475,-29.983 -63.797,-17.095l-80.893,46.703c-22.322,12.888 -29.982,41.475 -17.094,63.798l179.028,310.086c12.888,22.323 41.475,29.983 63.798,17.095l80.892,-46.703c22.323,-12.888 29.983,-41.475 17.095,-63.798l-179.029,-310.086Z" style="fill:#58791b;"/></g><g id="BAMBUS4" serif:id="BAMBUS"><path d="M1750.62,-196.898c10.133,-37.817 -12.343,-76.747 -50.161,-86.88l-137.039,-36.72c-37.817,-10.133 -76.747,12.343 -86.88,50.16l-140.759,525.32c-10.133,37.817 12.343,76.746 50.16,86.879l137.04,36.72c37.817,10.133 76.747,-12.343 86.88,-50.16l140.759,-525.319Z" style="fill:#58791b;"/><path d="M1560.9,511.141c10.133,-37.817 -12.343,-76.747 -50.16,-86.88l-137.04,-36.72c-37.817,-10.133 -76.746,12.343 -86.88,50.16l-140.758,525.32c-10.133,37.817 12.343,76.746 50.16,86.879l137.039,36.72c37.818,10.133 76.747,-12.343 86.88,-50.16l140.759,-525.319Z" style="fill:#58791b;"/><path d="M1371.18,1219.18c10.133,-37.818 -12.343,-76.747 -50.16,-86.88l-137.04,-36.72c-37.817,-10.133 -76.747,12.343 -86.88,50.16l-140.759,525.319c-10.133,37.818 12.343,76.747 50.16,86.88l137.04,36.72c37.817,10.133 76.747,-12.343 86.88,-50.16l140.759,-525.319Z" style="fill:#58791b;"/><path d="M1181.46,1927.22c10.133,-37.818 -12.343,-76.747 -50.16,-86.88l-137.04,-36.72c-37.817,-10.133 -76.746,12.343 -86.879,50.16l-140.759,525.319c-10.133,37.818 12.343,76.747 50.16,86.88l137.04,36.72c37.817,10.133 76.746,-12.343 86.879,-50.16l140.759,-525.319Z" style="fill:#58791b;"/></g><g id="BAMBUS5" serif:id="BAMBUS"><path d="M7238.18,2739.54c-4.392,-16.392 -21.266,-26.134 -37.658,-21.742l-59.401,15.916c-16.392,4.393 -26.134,21.267 -21.742,37.659l61.013,227.703c4.392,16.392 21.266,26.134 37.658,21.742l59.401,-15.916c16.392,-4.393 26.135,-21.267 21.742,-37.659l-61.013,-227.703Z" style="fill:#58791b;"/><path d="M7320.42,3046.44c-4.392,-16.392 -21.266,-26.134 -37.658,-21.742l-59.401,15.916c-16.392,4.393 -26.135,21.267 -21.742,37.659l61.012,227.703c4.393,16.392 21.267,26.134 37.659,21.742l59.401,-15.916c16.392,-4.393 26.134,-21.267 21.742,-37.659l-61.013,-227.703Z" style="fill:#58791b;"/><path d="M7402.65,3353.35c-4.392,-16.392 -21.267,-26.134 -37.659,-21.742l-59.401,15.916c-16.392,4.392 -26.134,21.267 -21.742,37.659l61.013,227.703c4.392,16.392 21.267,26.134 37.659,21.742l59.4,-15.917c16.392,-4.392 26.135,-21.266 21.743,-37.658l-61.013,-227.703Z" style="fill:#58791b;"/><path d="M7484.89,3660.25c-4.392,-16.392 -21.266,-26.135 -37.658,-21.742l-59.401,15.916c-16.392,4.392 -26.134,21.267 -21.742,37.659l61.013,227.702c4.392,16.393 21.266,26.135 37.658,21.743l59.401,-15.917c16.392,-4.392 26.134,-21.266 21.742,-37.658l-61.013,-227.703Z" style="fill:#58791b;"/></g><g id="BAMBUS6" serif:id="BAMBUS"><path d="M6990.39,3081.8c-12.888,-22.323 -41.475,-29.982 -63.798,-17.094l-80.892,46.703c-22.323,12.888 -29.982,41.475 -17.094,63.797l179.028,310.087c12.888,22.323 41.475,29.982 63.798,17.094l80.892,-46.703c22.323,-12.888 29.982,-41.475 17.094,-63.797l-179.028,-310.087Z" style="fill:#58791b;"/><path d="M7231.69,3499.74c-12.888,-22.323 -41.475,-29.983 -63.797,-17.095l-80.893,46.703c-22.322,12.888 -29.982,41.475 -17.094,63.798l179.028,310.086c12.888,22.323 41.475,29.983 63.798,17.095l80.892,-46.703c22.323,-12.888 29.983,-41.475 17.095,-63.798l-179.029,-310.086Z" style="fill:#58791b;"/><path d="M7472.99,3917.68c-12.888,-22.322 -41.474,-29.982 -63.797,-17.094l-80.892,46.703c-22.323,12.888 -29.983,41.475 -17.095,63.798l179.029,310.086c12.888,22.323 41.474,29.983 63.797,17.094l80.892,-46.703c22.323,-12.888 29.983,-41.474 17.095,-63.797l-179.029,-310.087Z" style="fill:#58791b;"/></g><g id="BAMBUS7" serif:id="BAMBUS"><path d="M986.662,2654.24c10.133,-37.817 -12.343,-76.747 -50.16,-86.88l-137.04,-36.72c-37.817,-10.133 -76.747,12.343 -86.88,50.161l-140.759,525.319c-10.133,37.817 12.343,76.746 50.16,86.88l137.04,36.719c37.817,10.133 76.747,-12.343 86.88,-50.16l140.759,-525.319Z" style="fill:#58791b;"/><path d="M796.943,3362.27c10.133,-37.817 -12.343,-76.747 -50.16,-86.88l-137.04,-36.72c-37.817,-10.133 -76.746,12.343 -86.879,50.16l-140.759,525.32c-10.133,37.817 12.343,76.746 50.16,86.879l137.04,36.72c37.817,10.133 76.746,-12.343 86.879,-50.16l140.759,-525.319Z" style="fill:#58791b;"/><path d="M607.225,4070.31c10.133,-37.817 -12.343,-76.747 -50.16,-86.88l-137.04,-36.72c-37.817,-10.133 -76.747,12.343 -86.88,50.16l-140.759,525.32c-10.133,37.817 12.343,76.746 50.16,86.879l137.04,36.72c37.817,10.133 76.747,-12.343 86.88,-50.16l140.759,-525.319Z" style="fill:#58791b;"/></g></g><g><g id="GIGA-BAMBUS1" serif:id="GIGA BAMBUS"><g id="BAMBUS8" serif:id="BAMBUS"><path d="M3206.36,1054.72c-6.165,-26.481 10.329,-52.985 36.809,-59.15l95.96,-22.34c26.48,-6.165 52.984,10.329 59.149,36.81l85.637,367.844c6.165,26.48 -10.329,52.984 -36.809,59.149l-95.96,22.34c-26.48,6.165 -52.984,-10.328 -59.149,-36.809l-85.637,-367.844Z" style="fill:#58791b;fill-opacity:0.69;"/><path d="M3321.78,1550.51c-6.164,-26.481 10.329,-52.985 36.81,-59.15l95.959,-22.34c26.481,-6.165 52.985,10.329 59.15,36.809l85.637,367.844c6.165,26.481 -10.329,52.985 -36.81,59.15l-95.959,22.34c-26.481,6.165 -52.985,-10.329 -59.15,-36.81l-85.637,-367.843Z" style="fill:#58791b;fill-opacity:0.69;"/><path d="M3437.2,2046.3c-6.165,-26.481 10.329,-52.985 36.81,-59.15l95.959,-22.34c26.481,-6.165 52.985,10.329 59.15,36.81l85.637,367.844c6.164,26.48 -10.329,52.984 -36.81,59.149l-95.959,22.34c-26.481,6.165 -52.985,-10.329 -59.15,-36.809l-85.637,-367.844Z" style="fill:#58791b;fill-opacity:0.69;"/><path d="M3552.63,2542.09c-6.165,-26.48 10.329,-52.984 36.809,-59.149l95.96,-22.34c26.48,-6.165 52.984,10.329 59.149,36.809l85.637,367.844c6.165,26.481 -10.329,52.985 -36.809,59.15l-95.96,22.34c-26.48,6.165 -52.984,-10.329 -59.149,-36.81l-85.637,-367.844Z" style="fill:#58791b;fill-opacity:0.69;"/></g><g id="BAMBUS9" serif:id="BAMBUS"><path d="M3671.14,3051.16c-6.165,-26.48 10.329,-52.984 36.81,-59.149l95.959,-22.34c26.481,-6.165 52.985,10.328 59.15,36.809l85.637,367.844c6.164,26.481 -10.329,52.985 -36.81,59.15l-95.959,22.34c-26.481,6.164 -52.985,-10.329 -59.15,-36.81l-85.637,-367.844Z" style="fill:#58791b;fill-opacity:0.69;"/><path d="M3786.57,3546.95c-6.165,-26.481 10.329,-52.985 36.809,-59.15l95.96,-22.34c26.48,-6.165 52.984,10.329 59.149,36.81l85.637,367.843c6.165,26.481 -10.329,52.985 -36.809,59.15l-95.96,22.34c-26.48,6.165 -52.984,-10.329 -59.149,-36.81l-85.637,-367.843Z" style="fill:#58791b;fill-opacity:0.69;"/><path d="M3901.99,4042.74c-6.165,-26.481 10.328,-52.985 36.809,-59.15l95.959,-22.34c26.481,-6.165 52.985,10.329 59.15,36.81l85.637,367.844c6.165,26.48 -10.329,52.984 -36.81,59.149l-95.959,22.34c-26.481,6.165 -52.985,-10.329 -59.15,-36.809l-85.636,-367.844Z" style="fill:#58791b;fill-opacity:0.69;"/></g></g><g id="BAMBUS10" serif:id="BAMBUS"><path d="M517.526,1579.43c5.347,-19.954 25.888,-31.814 45.842,-26.467l72.307,19.375c19.954,5.346 31.813,25.887 26.467,45.841l-74.27,277.179c-5.347,19.954 -25.888,31.813 -45.841,26.467l-72.308,-19.375c-19.954,-5.347 -31.813,-25.887 -26.467,-45.841l74.27,-277.179Z" style="fill:#58791b;fill-opacity:0.31;"/><path d="M417.423,1953.02c5.347,-19.954 25.888,-31.813 45.842,-26.467l72.307,19.375c19.954,5.347 31.813,25.888 26.467,45.841l-74.27,277.18c-5.347,19.953 -25.888,31.813 -45.841,26.466l-72.308,-19.375c-19.954,-5.346 -31.813,-25.887 -26.466,-45.841l74.269,-277.179Z" style="fill:#58791b;fill-opacity:0.31;"/><path d="M317.321,2326.61c5.346,-19.954 25.887,-31.813 45.841,-26.466l72.307,19.374c19.954,5.347 31.813,25.888 26.467,45.842l-74.27,277.179c-5.347,19.954 -25.888,31.813 -45.841,26.466l-72.308,-19.374c-19.954,-5.347 -31.813,-25.888 -26.466,-45.842l74.27,-277.179Z" style="fill:#58791b;fill-opacity:0.31;"/><path d="M217.218,2700.2c5.346,-19.953 25.887,-31.813 45.841,-26.466l72.307,19.375c19.954,5.346 31.813,25.887 26.467,45.841l-74.27,277.179c-5.347,19.954 -25.888,31.813 -45.841,26.467l-72.308,-19.375c-19.954,-5.347 -31.813,-25.888 -26.466,-45.841l74.27,-277.18Z" style="fill:#58791b;fill-opacity:0.31;"/></g><g id="BAMBUS11" serif:id="BAMBUS"><path d="M1598.86,1451.77c15.689,-27.173 50.487,-36.497 77.66,-20.809l98.469,56.851c27.173,15.689 36.497,50.487 20.809,77.66l-217.929,377.464c-15.688,27.173 -50.487,36.497 -77.66,20.809l-98.468,-56.851c-27.174,-15.689 -36.498,-50.487 -20.809,-77.66l217.928,-377.464Z" style="fill:#58791b;fill-opacity:0.31;"/><path d="M1305.13,1960.52c15.689,-27.173 50.487,-36.497 77.66,-20.809l98.469,56.851c27.173,15.689 36.497,50.487 20.809,77.66l-217.929,377.464c-15.688,27.173 -50.486,36.497 -77.66,20.808l-98.468,-56.85c-27.173,-15.689 -36.498,-50.487 -20.809,-77.66l217.928,-377.464Z" style="fill:#58791b;fill-opacity:0.31;"/><path d="M1011.4,2469.28c15.688,-27.173 50.486,-36.497 77.659,-20.809l98.469,56.851c27.173,15.689 36.497,50.487 20.809,77.66l-217.929,377.464c-15.688,27.173 -50.486,36.497 -77.659,20.808l-98.469,-56.85c-27.173,-15.689 -36.497,-50.487 -20.809,-77.66l217.929,-377.464Z" style="fill:#58791b;fill-opacity:0.31;"/><path d="M717.671,2978.03c15.688,-27.173 50.486,-36.497 77.66,-20.809l98.468,56.851c27.173,15.689 36.498,50.487 20.809,77.66l-217.928,377.464c-15.689,27.173 -50.487,36.497 -77.66,20.808l-98.469,-56.85c-27.173,-15.689 -36.497,-50.487 -20.809,-77.66l217.929,-377.464Z" style="fill:#58791b;fill-opacity:0.31;"/></g><g id="BAMBUS12" serif:id="BAMBUS"><path d="M6794.36,-490.68c-12.335,-46.035 15.024,-93.423 61.059,-105.758l166.816,-44.698c46.034,-12.335 93.422,15.025 105.757,61.059l171.344,639.463c12.335,46.034 -15.025,93.422 -61.059,105.757l-166.817,44.699c-46.034,12.334 -93.422,-15.025 -105.757,-61.059l-171.343,-639.463Z" style="fill:#58791b;fill-opacity:0.31;"/><path d="M7025.3,371.204c-12.335,-46.034 15.025,-93.422 61.059,-105.757l166.816,-44.698c46.035,-12.335 93.423,15.025 105.758,61.059l171.343,639.463c12.335,46.034 -15.025,93.422 -61.059,105.757l-166.816,44.698c-46.034,12.335 -93.423,-15.024 -105.758,-61.059l-171.343,-639.463Z" style="fill:#58791b;fill-opacity:0.31;"/><path d="M7256.24,1233.09c-12.335,-46.034 15.025,-93.422 61.059,-105.757l166.817,-44.698c46.034,-12.335 93.422,15.024 105.757,61.059l171.344,639.463c12.334,46.034 -15.025,93.422 -61.06,105.757l-166.816,44.698c-46.034,12.335 -93.422,-15.025 -105.757,-61.059l-171.344,-639.463Z" style="fill:#58791b;fill-opacity:0.31;"/><path d="M7487.18,2094.97c-12.334,-46.034 15.025,-93.423 61.06,-105.757l166.816,-44.699c46.034,-12.334 93.422,15.025 105.757,61.059l171.344,639.463c12.335,46.035 -15.025,93.423 -61.059,105.758l-166.817,44.698c-46.034,12.335 -93.422,-15.025 -105.757,-61.059l-171.344,-639.463Z" style="fill:#58791b;fill-opacity:0.31;"/></g><g id="BAMBUS13" serif:id="BAMBUS"><path d="M114.432,3083.8c5.346,-19.954 25.887,-31.813 45.841,-26.466l72.307,19.374c19.954,5.347 31.813,25.888 26.467,45.842l-74.27,277.179c-5.347,19.954 -25.888,31.813 -45.841,26.466l-72.308,-19.375c-19.954,-5.346 -31.813,-25.887 -26.466,-45.841l74.27,-277.179Z" style="fill:#58791b;fill-opacity:0.31;"/><path d="M14.329,3457.39c5.346,-19.953 25.887,-31.813 45.841,-26.466l72.307,19.375c19.954,5.346 31.813,25.887 26.467,45.841l-74.27,277.179c-5.347,19.954 -25.887,31.813 -45.841,26.466l-72.308,-19.374c-19.954,-5.347 -31.813,-25.888 -26.466,-45.841l74.27,-277.18Z" style="fill:#58791b;fill-opacity:0.31;"/><path d="M-85.774,3830.98c5.346,-19.954 25.887,-31.813 45.841,-26.467l72.307,19.375c19.954,5.347 31.813,25.887 26.467,45.841l-74.27,277.179c-5.347,19.954 -25.887,31.813 -45.841,26.467l-72.308,-19.375c-19.954,-5.347 -31.813,-25.887 -26.466,-45.841l74.27,-277.179Z" style="fill:#58791b;fill-opacity:0.31;"/></g><g id="BAMBUS14" serif:id="BAMBUS"><path d="M416.068,3500.42c15.689,-27.173 50.487,-36.497 77.66,-20.808l98.469,56.85c27.173,15.689 36.497,50.487 20.809,77.66l-217.929,377.464c-15.689,27.173 -50.487,36.497 -77.66,20.809l-98.469,-56.851c-27.173,-15.689 -36.497,-50.487 -20.808,-77.66l217.928,-377.464Z" style="fill:#58791b;fill-opacity:0.31;"/><path d="M122.338,4009.18c15.689,-27.173 50.487,-36.497 77.66,-20.809l98.469,56.851c27.173,15.689 36.497,50.487 20.809,77.66l-217.929,377.464c-15.688,27.173 -50.487,36.497 -77.66,20.809l-98.468,-56.851c-27.174,-15.689 -36.498,-50.487 -20.809,-77.66l217.928,-377.464Z" style="fill:#58791b;fill-opacity:0.31;"/></g><g id="BAMBUS15" serif:id="BAMBUS"><path d="M7724.31,2979.96c-12.335,-46.035 15.024,-93.423 61.059,-105.758l166.816,-44.698c46.034,-12.335 93.423,15.025 105.758,61.059l171.343,639.463c12.335,46.034 -15.025,93.423 -61.059,105.757l-166.816,44.699c-46.035,12.334 -93.423,-15.025 -105.758,-61.059l-171.343,-639.463Z" style="fill:#58791b;fill-opacity:0.31;"/></g></g></svg>