<?xml version="1.0" encoding="UTF-8" standalone="no"?><!DOCTYPE svg PUBLIC "-//W3C//DTD SVG 1.1//EN" "http://www.w3.org/Graphics/SVG/1.1/DTD/svg11.dtd"><svg width="100%" height="100%" viewBox="0 0 1800 250" version="1.1" xmlns="http://www.w3.org/2000/svg" xmlns:xlink="http://www.w3.org/1999/xlink" xml:space="preserve" xmlns:serif="http://www.serif.com/" style="fill-rule:evenodd;clip-rule:evenodd;stroke-linejoin:round;stroke-miterlimit:2;"><g id="CTA"><path d="M326.989,34.89c0.114,-5.054 4.667,-7.69 8.025,-7.14c3.358,0.55 5.521,4.286 5.407,9.339c0.028,3.725 -2.448,8.899 -4.781,12.743c-4.497,0.109 -10.216,-0.32 -13.432,-2.199c-4.439,-2.418 -6.602,-6.154 -5.406,-9.339c1.195,-3.186 5.748,-5.822 10.187,-3.404Z"/><path d="M672.471,75.322c4.436,-2.423 8.992,0.207 10.191,3.392c1.199,3.184 -0.959,6.922 -5.396,9.345c-3.213,1.883 -8.932,2.319 -13.428,2.215c-2.338,-3.842 -4.82,-9.013 -4.796,-12.737c-0.12,-5.053 2.038,-8.792 5.395,-9.345c3.357,-0.554 7.914,2.076 8.034,7.13Z"/><path d="M959.989,150.816c0.114,-5.054 4.667,-7.689 8.025,-7.139c3.358,0.549 5.521,4.285 5.407,9.339c0.028,3.724 -2.448,8.898 -4.781,12.743c-4.497,0.109 -10.216,-0.321 -13.432,-2.2c-4.439,-2.418 -6.602,-6.153 -5.406,-9.339c1.195,-3.186 5.748,-5.822 10.187,-3.404Z"/><path d="M502.047,199.706c-0.132,5.053 -4.694,7.673 -8.05,7.111c-3.356,-0.561 -5.506,-4.305 -5.374,-9.358c-0.015,-3.724 2.479,-8.889 4.826,-12.726c4.496,-0.093 10.214,0.356 13.423,2.247c4.431,2.433 6.58,6.176 5.374,9.357c-1.206,3.182 -5.769,5.802 -10.199,3.369Z"/><path d="M1293.83,201.243c3.613,-3.535 8.712,-2.238 10.729,0.502c2.018,2.74 0.954,6.923 -2.659,10.458c-2.583,2.684 -7.969,4.654 -12.325,5.774c-3.292,-3.064 -7.083,-7.369 -8.07,-10.96c-1.486,-4.832 -0.422,-9.015 2.659,-10.458c3.081,-1.444 8.18,-0.147 9.666,4.684Z"/><path d="M1658.99,214.103c0.114,-5.053 4.667,-7.689 8.025,-7.139c3.358,0.55 5.521,4.285 5.407,9.339c0.028,3.724 -2.448,8.898 -4.781,12.743c-4.497,0.109 -10.216,-0.321 -13.432,-2.2c-4.439,-2.418 -6.602,-6.153 -5.406,-9.339c1.195,-3.186 5.748,-5.822 10.187,-3.404Z"/><path d="M1373.42,51.261c4.314,2.636 4.308,7.897 2.146,10.525c-2.161,2.628 -6.477,2.623 -10.791,-0.013c-3.235,-1.845 -6.467,-6.584 -8.62,-10.532c2.162,-3.943 5.405,-8.674 8.645,-10.512c4.319,-2.625 8.636,-2.62 10.791,0.013c2.155,2.633 2.149,7.894 -2.171,10.519Z"/><path d="M853.739,74.492c3.387,-10.451 14.511,-13.1 21.16,-9.862c6.648,3.238 8.823,12.364 5.435,22.815c-2.263,7.772 -10.643,17.002 -17.899,23.552c-9.429,-2.575 -21.071,-7.035 -26.595,-12.952c-7.735,-7.802 -9.909,-16.928 -5.435,-22.816c4.475,-5.888 15.598,-8.538 23.334,-0.737Z"/><path d="M1111.8,158.925c-8.886,-15.748 0.298,-32.175 11.629,-36.622c11.331,-4.446 24.809,3.089 33.694,18.838c6.894,11.401 8.737,31.836 8.588,47.924c-13.627,8.553 -32,17.686 -45.323,17.785c-18.07,0.678 -31.548,-6.857 -33.695,-18.838c-2.147,-11.981 7.037,-28.408 25.107,-29.087Z"/><path d="M184.139,77.544c21.97,-20.077 51.713,-11.425 63.036,5.102c11.323,16.527 4.225,40.93 -17.746,61.007c-15.734,15.274 -47.826,25.79 -73.683,31.503c-18.758,-18.691 -40.203,-44.779 -45.289,-66.109c-7.774,-28.729 -0.675,-53.132 17.745,-61.008c18.421,-7.875 48.164,0.776 55.937,29.505Z"/><path d="M45.901,73.466c-0.577,-6.65 5.021,-10.764 9.508,-10.525c4.487,0.239 7.863,4.832 8.439,11.483c0.573,4.884 -1.934,12.032 -4.445,17.414c-5.886,0.789 -13.456,1.048 -17.947,-0.957c-6.175,-2.536 -9.55,-7.129 -8.439,-11.483c1.111,-4.353 6.709,-8.468 12.884,-5.932Z"/><path d="M737.28,176.609c6.067,-2.784 11.827,1.101 13.114,5.406c1.287,4.305 -1.9,9.031 -7.967,11.814c-4.406,2.185 -11.981,2.234 -17.894,1.684c-2.727,-5.276 -5.521,-12.316 -5.147,-17.22c0.307,-6.668 3.494,-11.394 7.967,-11.815c4.474,-0.421 10.234,3.463 9.927,10.131Z"/><path d="M1718.63,80.17c-6.456,-1.698 -8.443,-8.355 -6.706,-12.499c1.737,-4.144 7.199,-5.774 13.655,-4.076c4.792,1.107 10.677,5.876 14.898,10.054c-1.241,5.808 -3.549,13.022 -6.949,16.575c-4.469,4.959 -9.93,6.589 -13.655,4.076c-3.725,-2.514 -5.712,-9.171 -1.243,-14.13Z"/><path d="M1080.03,74.026c-3.774,5.505 -10.712,5.133 -14.028,2.101c-3.316,-3.032 -3.01,-8.724 0.764,-14.23c2.657,-4.138 9.13,-8.072 14.486,-10.639c5.05,3.126 11.065,7.729 13.264,12.129c3.163,5.878 2.857,11.569 -0.764,14.229c-3.622,2.66 -10.559,2.288 -13.722,-3.59Z"/></g></svg>