<?xml version="1.0" encoding="UTF-8" standalone="no"?><!DOCTYPE svg PUBLIC "-//W3C//DTD SVG 1.1//EN" "http://www.w3.org/Graphics/SVG/1.1/DTD/svg11.dtd"><svg width="100%" height="100%" viewBox="0 0 1280 1280" version="1.1" xmlns="http://www.w3.org/2000/svg" xmlns:xlink="http://www.w3.org/1999/xlink" xml:space="preserve" xmlns:serif="http://www.serif.com/" style="fill-rule:evenodd;clip-rule:evenodd;stroke-linejoin:round;stroke-miterlimit:2;"><g><g><path d="M711.189,406.762c31.718,-28.952 76.427,-16.972 94.101,6.489c17.675,23.461 8.312,58.403 -23.406,87.355c-22.671,22.014 -69.932,37.438 -108.146,45.924c-28.851,-26.456 -62.068,-63.444 -70.694,-93.844c-12.992,-40.932 -3.63,-75.874 23.407,-87.355c27.036,-11.481 71.746,0.499 84.738,41.431Z"/><path d="M642.416,884.116c53.705,2.448 82.677,52.63 77.554,89.042c-5.122,36.414 -44.341,59.057 -98.046,56.608c-39.555,-0.582 -95.044,-28.764 -136.383,-55.079c-2.12,-48.958 1.219,-111.104 20.492,-145.65c24.733,-47.733 63.951,-70.376 98.047,-56.607c34.096,13.77 63.068,63.952 38.336,111.686Z"/></g></g></svg>