<?xml version="1.0" encoding="UTF-8" standalone="no"?><!DOCTYPE svg PUBLIC "-//W3C//DTD SVG 1.1//EN" "http://www.w3.org/Graphics/SVG/1.1/DTD/svg11.dtd"><svg width="100%" height="100%" viewBox="0 0 3042 4042" version="1.1" xmlns="http://www.w3.org/2000/svg" xmlns:xlink="http://www.w3.org/1999/xlink" xml:space="preserve" xmlns:serif="http://www.serif.com/" style="fill-rule:evenodd;clip-rule:evenodd;stroke-linejoin:round;stroke-miterlimit:2;"><g><g><g id="GIGA-BAMBUS" serif:id="GIGA BAMBUS"><g id="BAMBUS"><path d="M94.081,1470.97c4.57,-19.63 -7.657,-39.277 -27.286,-43.847l-71.134,-16.561c-19.63,-4.57 -39.277,7.657 -43.847,27.287l-63.482,272.679c-4.57,19.629 7.657,39.277 27.287,43.847l71.133,16.56c19.63,4.57 39.277,-7.657 43.847,-27.286l63.482,-272.679Z" style="fill:#58791b;"/><path d="M8.519,1838.5c4.57,-19.63 -7.657,-39.277 -27.287,-43.847l-71.134,-16.56c-19.629,-4.57 -39.277,7.657 -43.847,27.286l-63.481,272.679c-4.57,19.63 7.656,39.277 27.286,43.847l71.134,16.561c19.63,4.57 39.277,-7.657 43.847,-27.287l63.482,-272.679Z" style="fill:#58791b;"/></g><g id="BAMBUS1" serif:id="BAMBUS"></g></g><g id="BAMBUS2" serif:id="BAMBUS"><path d="M2813.81,2136.54c-3.963,-14.792 -19.19,-23.583 -33.981,-19.62l-53.601,14.363c-14.792,3.963 -23.583,19.19 -19.62,33.981l55.056,205.47c3.963,14.792 19.19,23.583 33.981,19.62l53.601,-14.363c14.792,-3.963 23.583,-19.19 19.62,-33.981l-55.056,-205.47Z" style="fill:#58791b;"/><path d="M2888.01,2413.48c-3.963,-14.792 -19.19,-23.583 -33.981,-19.62l-53.601,14.363c-14.792,3.963 -23.583,19.19 -19.619,33.981l55.055,205.47c3.964,14.792 19.19,23.583 33.982,19.62l53.601,-14.363c14.791,-3.963 23.582,-19.19 19.619,-33.981l-55.056,-205.47Z" style="fill:#58791b;"/><path d="M2962.22,2690.41c-3.964,-14.792 -19.19,-23.583 -33.982,-19.62l-53.601,14.363c-14.791,3.963 -23.582,19.19 -19.619,33.981l55.055,205.47c3.964,14.792 19.191,23.583 33.982,19.62l53.601,-14.363c14.792,-3.963 23.583,-19.19 19.619,-33.981l-55.055,-205.47Z" style="fill:#58791b;"/><path d="M3036.43,2967.35c-3.963,-14.792 -19.19,-23.583 -33.982,-19.62l-53.6,14.363c-14.792,3.963 -23.583,19.19 -19.62,33.981l55.056,205.47c3.963,14.792 19.19,23.583 33.981,19.62l53.601,-14.363c14.792,-3.963 23.583,-19.19 19.62,-33.981l-55.056,-205.47Z" style="fill:#58791b;"/></g><g id="BAMBUS3" serif:id="BAMBUS"><path d="M2268.88,2298.56c-11.63,-20.143 -37.425,-27.055 -57.568,-15.425l-72.994,42.143c-20.143,11.629 -27.055,37.425 -15.426,57.568l161.549,279.81c11.629,20.143 37.425,27.055 57.568,15.425l72.994,-42.143c20.143,-11.629 27.055,-37.425 15.425,-57.568l-161.548,-279.81Z" style="fill:#58791b;"/><path d="M2486.62,2675.7c-11.63,-20.143 -37.425,-27.055 -57.568,-15.425l-72.994,42.143c-20.143,11.629 -27.055,37.425 -15.426,57.568l161.549,279.81c11.629,20.143 37.425,27.055 57.568,15.425l72.994,-42.143c20.143,-11.629 27.055,-37.425 15.425,-57.568l-161.548,-279.81Z" style="fill:#58791b;"/><path d="M2704.36,3052.83c-11.63,-20.143 -37.425,-27.055 -57.568,-15.425l-72.994,42.143c-20.143,11.629 -27.055,37.425 -15.426,57.568l161.549,279.81c11.629,20.143 37.425,27.055 57.568,15.425l72.994,-42.143c20.143,-11.629 27.055,-37.425 15.425,-57.568l-161.548,-279.81Z" style="fill:#58791b;"/><path d="M2922.1,3429.97c-11.63,-20.143 -37.425,-27.055 -57.569,-15.426l-72.993,42.143c-20.144,11.63 -27.055,37.426 -15.426,57.569l161.548,279.81c11.63,20.143 37.426,27.055 57.569,15.425l72.994,-42.143c20.143,-11.63 27.055,-37.425 15.425,-57.568l-161.548,-279.81Z" style="fill:#58791b;"/></g><g id="BAMBUS4" serif:id="BAMBUS"></g><g id="BAMBUS5" serif:id="BAMBUS"><path d="M3112.62,3251.71c-3.963,-14.791 -19.19,-23.582 -33.981,-19.619l-53.601,14.362c-14.792,3.964 -23.583,19.19 -19.62,33.982l55.056,205.47c3.963,14.791 19.19,23.583 33.982,19.619l53.601,-14.362c14.791,-3.963 23.582,-19.19 19.619,-33.982l-55.056,-205.47Z" style="fill:#58791b;"/></g><g id="BAMBUS6" serif:id="BAMBUS"><path d="M3145.67,3817.21c-11.63,-20.143 -37.425,-27.055 -57.569,-15.425l-72.993,42.143c-20.144,11.629 -27.056,37.425 -15.426,57.568l161.548,279.81c11.63,20.143 37.426,27.055 57.569,15.425l72.994,-42.143c20.143,-11.629 27.055,-37.425 15.425,-57.568l-161.548,-279.81Z" style="fill:#58791b;"/></g><g id="BAMBUS7" serif:id="BAMBUS"></g></g><g><g id="GIGA-BAMBUS1" serif:id="GIGA BAMBUS"></g><g id="BAMBUS8" serif:id="BAMBUS"></g><g id="BAMBUS9" serif:id="BAMBUS"></g><g id="BAMBUS10" serif:id="BAMBUS"><path d="M2501.24,685.527c-11.131,-41.539 13.558,-84.3 55.097,-95.431l150.529,-40.334c41.539,-11.13 84.3,13.558 95.431,55.097l154.614,577.026c11.13,41.54 -13.558,84.301 -55.098,95.432l-150.528,40.334c-41.54,11.13 -84.301,-13.558 -95.432,-55.098l-154.613,-577.026Z" style="fill:#58791b;fill-opacity:0.31;"/><path d="M2709.64,1463.26c-11.13,-41.539 13.558,-84.301 55.097,-95.431l150.529,-40.334c41.539,-11.131 84.301,13.558 95.431,55.097l154.614,577.026c11.13,41.54 -13.558,84.301 -55.097,95.432l-150.529,40.334c-41.539,11.13 -84.301,-13.558 -95.431,-55.098l-154.614,-577.026Z" style="fill:#58791b;fill-opacity:0.31;"/><path d="M2918.03,2240.99c-11.13,-41.539 13.558,-84.301 55.098,-95.431l150.528,-40.334c41.54,-11.131 84.301,13.558 95.432,55.097l154.613,577.026c11.131,41.54 -13.558,84.301 -55.097,95.431l-150.529,40.334c-41.539,11.131 -84.3,-13.557 -95.431,-55.097l-154.614,-577.026Z" style="fill:#58791b;fill-opacity:0.31;"/></g><g id="BAMBUS11" serif:id="BAMBUS"></g><g id="BAMBUS12" serif:id="BAMBUS"></g><g id="BAMBUS13" serif:id="BAMBUS"><path d="M3047.12,2871.94c-11.13,-41.539 13.558,-84.3 55.098,-95.431l150.528,-40.334c41.54,-11.13 84.301,13.558 95.432,55.097l154.613,577.026c11.131,41.54 -13.558,84.301 -55.097,95.432l-150.529,40.334c-41.539,11.13 -84.3,-13.558 -95.431,-55.098l-154.614,-577.026Z" style="fill:#58791b;fill-opacity:0.31;"/></g></g></g><g><g><g id="GIGA-BAMBUS2" serif:id="GIGA BAMBUS"><g id="BAMBUS14" serif:id="BAMBUS"><path d="M2919.08,3037.64c4.57,-19.63 -7.657,-39.277 -27.286,-43.847l-71.134,-16.56c-19.63,-4.57 -39.277,7.657 -43.847,27.286l-63.482,272.679c-4.57,19.63 7.657,39.277 27.287,43.847l71.133,16.561c19.63,4.57 39.277,-7.657 43.847,-27.287l63.482,-272.679Z" style="fill:#58791b;"/><path d="M2833.52,3405.16c4.57,-19.63 -7.657,-39.277 -27.287,-43.847l-71.134,-16.561c-19.629,-4.57 -39.277,7.657 -43.847,27.287l-63.481,272.679c-4.57,19.63 7.656,39.277 27.286,43.847l71.134,16.56c19.63,4.57 39.277,-7.656 43.847,-27.286l63.482,-272.679Z" style="fill:#58791b;"/><path d="M2747.96,3772.69c4.57,-19.63 -7.656,-39.277 -27.286,-43.847l-71.134,-16.561c-19.63,-4.57 -39.277,7.657 -43.847,27.287l-63.482,272.679c-4.57,19.629 7.657,39.277 27.287,43.847l71.133,16.56c19.63,4.57 39.277,-7.657 43.847,-27.287l63.482,-272.678Z" style="fill:#58791b;"/></g><g id="BAMBUS15" serif:id="BAMBUS"></g></g><g id="BAMBUS16" serif:id="BAMBUS"></g><g id="BAMBUS17" serif:id="BAMBUS"></g><g id="BAMBUS18" serif:id="BAMBUS"><path d="M481.692,1571.94c9.144,-34.125 -11.138,-69.253 -45.262,-78.397l-123.66,-33.135c-34.124,-9.143 -69.253,11.138 -78.396,45.263l-127.016,474.027c-9.143,34.125 11.138,69.253 45.263,78.397l123.659,33.135c34.125,9.143 69.253,-11.138 78.397,-45.263l127.015,-474.027Z" style="fill:#58791b;"/><path d="M310.498,2210.84c9.143,-34.125 -11.138,-69.253 -45.263,-78.397l-123.659,-33.134c-34.125,-9.144 -69.253,11.138 -78.397,45.262l-127.015,474.028c-9.144,34.124 11.138,69.253 45.262,78.397l123.66,33.134c34.124,9.144 69.253,-11.138 78.397,-45.263l127.015,-474.027Z" style="fill:#58791b;"/><path d="M139.303,2849.75c9.144,-34.125 -11.137,-69.254 -45.262,-78.397l-123.659,-33.135c-34.125,-9.143 -69.254,11.138 -78.397,45.263l-127.016,474.027c-9.143,34.125 11.138,69.253 45.263,78.397l123.659,33.134c34.125,9.144 69.253,-11.137 78.397,-45.262l127.015,-474.027Z" style="fill:#58791b;"/></g><g id="BAMBUS19" serif:id="BAMBUS"></g><g id="BAMBUS20" serif:id="BAMBUS"></g><g id="BAMBUS21" serif:id="BAMBUS"></g></g><g><g id="GIGA-BAMBUS3" serif:id="GIGA BAMBUS"><g id="BAMBUS22" serif:id="BAMBUS"><path d="M1795.29,2701.35c-5.563,-23.895 9.321,-47.811 33.216,-53.374l86.589,-20.159c23.896,-5.563 47.812,9.32 53.375,33.215l77.275,331.928c5.563,23.895 -9.32,47.811 -33.215,53.374l-86.59,20.159c-23.895,5.563 -47.812,-9.32 -53.374,-33.215l-77.276,-331.928Z" style="fill:#58791b;fill-opacity:0.69;"/><path d="M1899.44,3148.73c-5.563,-23.895 9.32,-47.812 33.215,-53.375l86.59,-20.158c23.895,-5.563 47.812,9.32 53.375,33.215l77.275,331.928c5.563,23.895 -9.32,47.811 -33.216,53.374l-86.589,20.159c-23.896,5.563 -47.812,-9.32 -53.375,-33.216l-77.275,-331.927Z" style="fill:#58791b;fill-opacity:0.69;"/><path d="M2003.6,3596.11c-5.563,-23.896 9.32,-47.812 33.215,-53.375l86.59,-20.159c23.895,-5.563 47.811,9.321 53.374,33.216l77.276,331.928c5.563,23.895 -9.321,47.811 -33.216,53.374l-86.59,20.159c-23.895,5.563 -47.811,-9.321 -53.374,-33.216l-77.275,-331.927Z" style="fill:#58791b;fill-opacity:0.69;"/><path d="M2107.75,4043.49c-5.562,-23.895 9.321,-47.811 33.216,-53.374l86.59,-20.159c23.895,-5.563 47.811,9.321 53.374,33.216l77.276,331.927c5.562,23.896 -9.321,47.812 -33.216,53.375l-86.59,20.159c-23.895,5.563 -47.811,-9.321 -53.374,-33.216l-77.276,-331.928Z" style="fill:#58791b;fill-opacity:0.69;"/></g><g id="BAMBUS23" serif:id="BAMBUS"></g></g><g id="BAMBUS24" serif:id="BAMBUS"></g><g id="BAMBUS25" serif:id="BAMBUS"><path d="M344.75,3059.63c14.156,-24.52 45.557,-32.934 70.077,-18.778l88.854,51.3c24.52,14.157 32.934,45.558 18.777,70.078l-196.65,340.608c-14.157,24.52 -45.557,32.933 -70.077,18.777l-88.854,-51.3c-24.52,-14.157 -32.934,-45.557 -18.777,-70.077l196.65,-340.608Z" style="fill:#58791b;fill-opacity:0.31;"/><path d="M79.699,3518.71c14.157,-24.52 45.558,-32.934 70.078,-18.777l88.854,51.3c24.52,14.157 32.934,45.557 18.777,70.077l-196.65,340.608c-14.157,24.52 -45.557,32.934 -70.077,18.777l-88.855,-51.3c-24.52,-14.156 -32.933,-45.557 -18.777,-70.077l196.65,-340.608Z" style="fill:#58791b;fill-opacity:0.31;"/><path d="M-185.351,3977.79c14.157,-24.52 45.557,-32.933 70.077,-18.777l88.855,51.3c24.52,14.157 32.933,45.557 18.777,70.078l-196.65,340.608c-14.157,24.52 -45.558,32.933 -70.078,18.777l-88.854,-51.3c-24.52,-14.157 -32.934,-45.558 -18.777,-70.078l196.65,-340.608Z" style="fill:#58791b;fill-opacity:0.31;"/></g><g id="BAMBUS26" serif:id="BAMBUS"></g><g id="BAMBUS27" serif:id="BAMBUS"></g><g id="BAMBUS28" serif:id="BAMBUS"></g><g id="BAMBUS29" serif:id="BAMBUS"></g></g></g></svg>