<?xml version="1.0" encoding="UTF-8" standalone="no"?><!DOCTYPE svg PUBLIC "-//W3C//DTD SVG 1.1//EN" "http://www.w3.org/Graphics/SVG/1.1/DTD/svg11.dtd"><svg width="100%" height="100%" viewBox="0 0 4542 4292" version="1.1" xmlns="http://www.w3.org/2000/svg" xmlns:xlink="http://www.w3.org/1999/xlink" xml:space="preserve" xmlns:serif="http://www.serif.com/" style="fill-rule:evenodd;clip-rule:evenodd;stroke-linecap:round;stroke-linejoin:round;stroke-miterlimit:1.5;"><g id="PANDA_SHEEP"><g id="PANDA_SHEEP1" serif:id="PANDA_SHEEP"><g><path id="body_color" d="M2280.04,3697.25c-19.559,-0.073 -38.502,-1.129 -55.499,-3.224c5.526,34.136 12.143,84.933 8.039,112.636c-3.53,23.835 -16.606,35.953 -29.326,38.475c-142.431,28.23 -287.262,37.349 -370.099,17.702c-44.42,-10.535 -72.677,-30.781 -82.283,-55.944c-44.722,-117.144 -125.695,-421.046 -132.516,-664.153c-18.096,37.347 -36.018,78.472 -56.109,112.961c-28.556,49.018 -62.676,84.615 -102.704,90.567c-80.911,12.03 -138.994,-11.735 -174.545,-56.184c-50.553,-63.206 -55.198,-173.993 -5.04,-294.586c53.173,-127.843 171.548,-286.909 392.867,-347.893c218.142,-74.478 423.354,-88.618 616.661,-91.877c0.269,-0.004 0.538,-0.004 0.806,0c193.291,3.259 398.484,17.397 616.512,91.832c221.436,60.985 339.836,220.077 393.016,347.938c50.159,120.593 45.514,231.38 -5.04,294.586c-35.551,44.449 -93.634,68.214 -174.545,56.184c-40.027,-5.952 -74.148,-41.549 -102.703,-90.567c-20.092,-34.49 -38.014,-75.616 -56.108,-112.951c-6.824,243.101 -87.795,547 -132.517,664.144c-9.607,25.162 -37.864,45.408 -82.283,55.943c-82.838,19.647 -227.668,10.528 -370.1,-17.702c-12.72,-2.522 -25.796,-14.64 -29.326,-38.475c-4.103,-27.703 2.513,-78.5 8.037,-112.636c-17.051,2.102 -36.061,3.158 -55.69,3.224c-6.254,0.137 -12.768,0.148 -19.505,-0Z" style="fill:#f3e3c2;"/><clipPath id="_clip1"><path d="M2280.04,3697.25c-19.559,-0.073 -38.502,-1.129 -55.499,-3.224c5.526,34.136 12.143,84.933 8.039,112.636c-3.53,23.835 -16.606,35.953 -29.326,38.475c-142.431,28.23 -287.262,37.349 -370.099,17.702c-44.42,-10.535 -72.677,-30.781 -82.283,-55.944c-44.722,-117.144 -125.695,-421.046 -132.516,-664.153c-18.096,37.347 -36.018,78.472 -56.109,112.961c-28.556,49.018 -62.676,84.615 -102.704,90.567c-80.911,12.03 -138.994,-11.735 -174.545,-56.184c-50.553,-63.206 -55.198,-173.993 -5.04,-294.586c53.173,-127.843 171.548,-286.909 392.867,-347.893c218.142,-74.478 423.354,-88.618 616.661,-91.877c0.269,-0.004 0.538,-0.004 0.806,0c193.291,3.259 398.484,17.397 616.512,91.832c221.436,60.985 339.836,220.077 393.016,347.938c50.159,120.593 45.514,231.38 -5.04,294.586c-35.551,44.449 -93.634,68.214 -174.545,56.184c-40.027,-5.952 -74.148,-41.549 -102.703,-90.567c-20.092,-34.49 -38.014,-75.616 -56.108,-112.951c-6.824,243.101 -87.795,547 -132.517,664.144c-9.607,25.162 -37.864,45.408 -82.283,55.943c-82.838,19.647 -227.668,10.528 -370.1,-17.702c-12.72,-2.522 -25.796,-14.64 -29.326,-38.475c-4.103,-27.703 2.513,-78.5 8.037,-112.636c-17.051,2.102 -36.061,3.158 -55.69,3.224c-6.254,0.137 -12.768,0.148 -19.505,-0Z"/></clipPath><g clip-path="url(#_clip1)"><path id="leg_right" d="M2355.71,3694.57c0,-0 279.808,-82.298 507.861,16.148c228.054,98.445 -7.861,187.078 -7.861,187.078l-333.333,33.333l-183.333,-8.333l-41.667,-50l58.333,-178.226Z" style="fill:#f3e3c2;"/><clipPath id="_clip2"><path d="M2355.71,3694.57c0,-0 279.808,-82.298 507.861,16.148c228.054,98.445 -7.861,187.078 -7.861,187.078l-333.333,33.333l-183.333,-8.333l-41.667,-50l58.333,-178.226Z"/></clipPath><g clip-path="url(#_clip2)"><path d="M2601.25,3880.99c-22.968,-27.212 -9.634,-24.321 -25.521,1.749" style="fill:#9bfe21;stroke:#977d57;stroke-width:43.25px;"/></g><path id="leg_left" d="M2224.07,3694.57c0,-0 -279.807,-82.298 -507.861,16.148c-228.053,98.445 7.861,187.078 7.861,187.078l333.333,33.333l183.334,-8.333l41.666,-50l-58.333,-178.226Z" style="fill:#f3e3c2;"/><clipPath id="_clip3"><path d="M2224.07,3694.57c0,-0 -279.807,-82.298 -507.861,16.148c-228.053,98.445 7.861,187.078 7.861,187.078l333.333,33.333l183.334,-8.333l41.666,-50l-58.333,-178.226Z"/></clipPath><g clip-path="url(#_clip3)"><path d="M2008.24,3881.71c-22.968,-27.212 -9.634,-24.321 -25.52,1.749" style="fill:#9bfe21;stroke:#977d57;stroke-width:43.25px;"/></g><g id="hands_detail_-color" serif:id="hands_detail_ color"><path d="M3025,3266.67c0,-0 107.344,-109.567 310.154,-83.334c270.688,35.014 48.179,141.667 48.179,141.667l-241.666,66.667l-125,-75l8.333,-50Z" style="fill:#f3e3c2;"/><clipPath id="_clip4"><path d="M3025,3266.67c0,-0 107.344,-109.567 310.154,-83.334c270.688,35.014 48.179,141.667 48.179,141.667l-241.666,66.667l-125,-75l8.333,-50Z"/></clipPath><g clip-path="url(#_clip4)"><path d="M3217.92,3355.99c-22.969,-27.212 -9.634,-24.321 -25.521,1.749" style="fill:#9bfe21;stroke:#977d57;stroke-width:43.25px;"/></g></g><g id="hands_detail_-color1" serif:id="hands_detail_ color"><path d="M1550.33,3266.67c0,-0 -107.344,-109.567 -310.154,-83.334c-270.688,35.014 -48.179,141.667 -48.179,141.667l241.666,66.667l125,-75l-8.333,-50Z" style="fill:#f3e3c2;"/><clipPath id="_clip5"><path d="M1550.33,3266.67c0,-0 -107.344,-109.567 -310.154,-83.334c-270.688,35.014 -48.179,141.667 -48.179,141.667l241.666,66.667l125,-75l-8.333,-50Z"/></clipPath><g clip-path="url(#_clip5)"><path d="M1357.41,3355.99c22.969,-27.212 9.634,-24.321 25.521,1.749" style="fill:#9bfe21;stroke:#977d57;stroke-width:43.25px;"/></g></g><g id="body_shadows"><path id="body_shadow_1" d="M2929.69,3187.61c17.026,-81.757 26.057,-135.95 26.057,-135.95l4.134,53.991l1.898,100.173c0,0 78.847,203.55 105.177,271.524c5.065,13.077 1.369,27.926 -9.237,37.101c-34.918,30.21 -109.374,94.625 -109.374,94.625c-15.223,15.026 -38.357,23.46 -62.583,28.294l-6.241,29.987l-45.921,182.769l-88.066,23.205l-74.025,25.283c50.41,-55.116 101.199,-152.939 139.667,-258.378c-13.366,0.395 -28.121,4.963 -29.247,6.839c-44.927,72.307 -119.477,81.49 -167.209,40.961c-1.666,-1.445 -3.838,-2.165 -6.036,-2.003c-2.198,0.163 -4.24,1.196 -5.675,2.87c-60.868,71.151 -136.808,36.918 -168.381,3.675c-1.527,-1.7 -3.688,-2.694 -5.973,-2.747c-2.285,-0.052 -4.489,0.841 -6.094,2.468c-71.625,71.204 -199.546,36.692 -187.12,7.245c-0,0 32.725,-146.885 22.603,-184.405l-41.816,20.956l340.04,-265.171l373.422,-83.312Z" style="fill:#525252;fill-opacity:0.25;"/><path id="body_shadow_23" d="M2188.36,3715.47c-85.653,38.207 -178.675,-5.596 -216.004,-36.703c-2.657,-2.294 -6.468,-2.674 -9.525,-0.949c-85.138,47.099 -205.632,6.088 -230.285,-55.18c-1.049,-2.789 -3.516,-4.799 -6.459,-5.264c-82.101,-13.619 -120.055,-117.091 -130.635,-162.256l45.485,-213.426l515.811,-161.477l369.41,168.374l-163.22,40.302l-115.547,121.418c-82.214,97.169 93.512,220.772 93.512,220.772c-63.583,61.294 -50.731,103.801 -104.749,70.599c-0.69,0.569 -1.383,1.132 -2.068,1.679l16.661,167.802l-45.303,7.092l-126.461,25.708c74.39,-45.699 100.334,-139.4 109.377,-188.491Z" style="fill:#525252;fill-opacity:0.25;"/><path d="M1622.27,3193.9c-0,0 -5.973,-137.502 -5.12,-148.964c0.853,-11.463 100.693,-0 100.693,-0l1.707,98.617l-97.28,50.347Z" style="fill:#f3e3c2;stroke:#f3e3c2;stroke-width:41.67px;"/><path id="body_shadow_5" d="M2924.59,2622.81l89.386,55.465c0,-0 -751.567,210.005 -1446.03,11.574l-27.438,-65.395" style="fill:#525252;fill-opacity:0.25;"/><path id="body_shadow_4" d="M3183.95,2866.37c-20.917,-46.221 -39.444,-79.947 -48.345,-91.249c-42.993,-54.591 18.11,11.342 81.981,81.93l229.673,-63.633c47.316,202.126 -41.203,331.65 -41.203,331.65l1.415,121.216l-47.099,8.7l-36.905,128.54l-93.199,-23.607c22.428,-18.044 36.249,-43.974 43.491,-75.033c-39.793,31.153 -78.193,28.365 -112.691,5.377c-3.511,-2.359 -8.234,-1.703 -10.971,1.523c-28.717,33.672 -67.293,45.917 -137.517,8.656l-363.771,-329.46l184.781,-79.64l231.968,7.832l118.392,-32.802Z" style="fill:#525252;fill-opacity:0.25;"/><path id="body_shadow_3" d="M1437.69,3313.95c-0,0 -9.746,-9.025 -15,-13.891c-2.028,-1.876 -4.854,-2.626 -7.545,-2.001c-65.595,15.244 -95.074,-2.33 -112.936,-39.912c-1.621,-3.421 -5.351,-5.314 -9.069,-4.603c-52.376,9.967 -86.226,-4.231 -128.172,-68.731l-172.336,-447.816l200.612,15.531l201.657,114.912l387.052,84.084c-48.395,186.23 -171.042,262.93 -188.712,273.146l-0.682,2.396l-23.646,38.056l-73.241,129.544l-35.03,-44.854l-23.355,10.933l-130.237,-12.404l24.904,-13.529c33.241,18.945 66.277,2.035 105.736,-20.861Z" style="fill:#525252;fill-opacity:0.25;"/></g></g><path id="body_sghape" d="M1550.79,2679.52c-80.29,-19.344 -193.485,10.459 -189.249,129.381c-64.166,-20.198 -127.554,137.85 -80.001,164.173c-69.397,55.555 -80.048,117.294 -49.643,183.354c-29.6,72.648 -13.28,104.616 72.083,88.78c13.805,59.735 110.882,56.79 119.605,36.436c-6.262,17.892 52.247,62.082 87.333,36.914c59.38,-14.574 50.829,-77.405 58.258,-72.039c3.635,-3.635 33.302,-17.297 37.932,-46.763c-8.18,29.247 -5.515,37.661 17.893,66.908c0,-0 -26.346,102.451 28.097,162.408c-19.431,90.956 2.207,155.585 82.609,182.545c62.625,97.036 145.276,82.81 231.021,51.398c82.412,59.802 155.909,75.084 246,27.373c71.222,55.751 153.225,50.662 216.766,-24.157c58.181,65.84 117.34,77.885 178.08,2.93c54.226,56.082 129.034,32.504 173.021,-31.726c68.269,-7.338 102.729,-46.875 117.239,-105.412c56.727,-43.715 74.597,-102.344 47.584,-174.218c52.013,-51.76 25.222,-148.513 13.088,-151.314c17.525,-47.664 20.4,-21.367 20.4,-21.367c-3.121,7.282 28.408,102.452 67.797,113.04c41.097,31.863 75.674,15.906 106.105,-30.455c38.817,37.615 85.157,42.081 131.084,-12.75c45.199,1.457 65.022,-5.579 67.554,-53.9c24.559,-36.273 23.643,-76.061 -3.354,-119.446c2.511,-33.205 -5.753,-67.273 -47.726,-104.037c16.411,-25.09 -5.37,-72.736 -33.71,-77.884c19.54,-24.648 -55.818,-125.306 -98.058,-111.26c5.743,-44.857 -72.362,-107.846 -130.562,-88.851c-76.64,-116.932 -124.363,-45.712 -205.846,-8.69" style="fill:#55ddfa;"/><clipPath id="_clip6"><path d="M1550.79,2679.52c-80.29,-19.344 -193.485,10.459 -189.249,129.381c-64.166,-20.198 -127.554,137.85 -80.001,164.173c-69.397,55.555 -80.048,117.294 -49.643,183.354c-29.6,72.648 -13.28,104.616 72.083,88.78c13.805,59.735 110.882,56.79 119.605,36.436c-6.262,17.892 52.247,62.082 87.333,36.914c59.38,-14.574 50.829,-77.405 58.258,-72.039c3.635,-3.635 33.302,-17.297 37.932,-46.763c-8.18,29.247 -5.515,37.661 17.893,66.908c0,-0 -26.346,102.451 28.097,162.408c-19.431,90.956 2.207,155.585 82.609,182.545c62.625,97.036 145.276,82.81 231.021,51.398c82.412,59.802 155.909,75.084 246,27.373c71.222,55.751 153.225,50.662 216.766,-24.157c58.181,65.84 117.34,77.885 178.08,2.93c54.226,56.082 129.034,32.504 173.021,-31.726c68.269,-7.338 102.729,-46.875 117.239,-105.412c56.727,-43.715 74.597,-102.344 47.584,-174.218c52.013,-51.76 25.222,-148.513 13.088,-151.314c17.525,-47.664 20.4,-21.367 20.4,-21.367c-3.121,7.282 28.408,102.452 67.797,113.04c41.097,31.863 75.674,15.906 106.105,-30.455c38.817,37.615 85.157,42.081 131.084,-12.75c45.199,1.457 65.022,-5.579 67.554,-53.9c24.559,-36.273 23.643,-76.061 -3.354,-119.446c2.511,-33.205 -5.753,-67.273 -47.726,-104.037c16.411,-25.09 -5.37,-72.736 -33.71,-77.884c19.54,-24.648 -55.818,-125.306 -98.058,-111.26c5.743,-44.857 -72.362,-107.846 -130.562,-88.851c-76.64,-116.932 -124.363,-45.712 -205.846,-8.69"/></clipPath><g clip-path="url(#_clip6)"><path id="color_body" d="M1116.32,2185.27c-0,-0 -286.736,515.911 -88.73,551.704c38.545,6.968 -134.816,578.093 69.531,567.079c46.446,-2.503 183.326,258.55 404.585,218.167c42.24,-7.709 -165.179,297.491 95.956,332.88c67.647,9.167 41.157,367.306 284.407,82.415c28.775,-33.701 141.82,316.257 315.163,101.497c27.871,-34.531 196.332,196.208 291.475,-5.479c24.145,-51.184 302.355,194 343.225,-72.156c17.131,-111.566 209.093,113.019 196.41,-233.902c-3.663,-100.189 495.901,-17.972 346.516,-289.635c-51.508,-93.67 292.886,-232.569 144.91,-395.934c-27.744,-30.629 203.41,-507.023 30.067,-585.952c-21.286,-9.692 -310.132,-253.14 -502.282,-181.457" style="fill:#55ddfa;stroke:#000;stroke-width:35.74px;"/><g><g><path d="M2456.1,2696.39c59.425,50.423 55.767,97.403 0,162.594c-57.493,67.211 -11.391,152.529 32.532,175.669" style="fill:none;stroke:#ea71a3;stroke-width:27.67px;stroke-miterlimit:10;"/><path d="M2499.41,3041.61l2.274,-3.939l-15.484,-8.94l-2.274,3.939l15.484,8.94Z" style="fill:#fff;stroke:#fff;stroke-width:27.67px;stroke-miterlimit:10;"/></g><g><path d="M2115.89,2696.39c-59.424,50.423 -55.766,97.403 0,162.594c57.494,67.211 11.392,152.529 -32.531,175.669" style="fill:none;stroke:#ea71a3;stroke-width:27.67px;stroke-miterlimit:10;"/><path d="M2094.42,3031.45l-2.582,-3.744l-14.719,10.152l2.582,3.744l14.719,-10.152Z" style="fill:#fff;stroke:#fff;stroke-width:27.67px;stroke-miterlimit:10;"/></g></g><g id="shadows"><path id="body_shadow_11" serif:id="body_shadow_1" d="M2812.11,3639.37l88.065,-23.206l97.86,-218.069l-41.862,-375.466l-79.503,-35.409c31.121,6.913 48.279,63.102 40.819,82.008c-1.1,2.812 -0.591,5.999 1.331,8.328c12.65,15.645 27.861,81.072 10.541,92.929c-0.726,0.436 -1.067,1.305 -0.832,2.118c19.073,66.28 15.744,120.107 -8.337,167.411c-0.967,1.888 -1.178,4.074 -0.587,6.111c15.671,55.136 0.466,113.311 -43.191,168.38c-0.716,0.902 -1.236,1.944 -1.528,3.058c-11.994,45.688 -27.995,105.972 -77.383,122.435" style="fill:#525252;fill-opacity:0.25;"/><path id="body_shadow_2" d="M1479.15,3381.33l99.394,-21.244l130.199,-153.095l109.696,147.82l-162.04,-302.02c22.403,30.286 -20.402,52.656 -38.989,60.587c-4.156,1.735 -6.177,6.462 -4.56,10.665c8.556,21.33 0.632,36.681 -22.043,46.636c-3.688,1.646 -5.652,5.712 -4.649,9.625c8.526,31.614 -16.829,46.486 -39.659,53.978c-3.469,1.129 -5.797,4.385 -5.744,8.032c0.375,23.873 -11.007,40.909 -40.669,44.137c-2.903,0.324 -5.422,2.151 -6.631,4.81c-11.393,23.866 -101.228,40.681 -131.602,36.624" style="fill:#525252;fill-opacity:0.25;"/><path d="M1656.89,3051.99c0,0 64.851,-29.504 77.139,-10.048c12.288,19.456 3.755,15.019 8.533,50.859c4.779,35.84 100.222,318.389 105,341.941c4.779,23.552 -313.719,-13.61 -313.719,-13.61c17.564,-14.272 69.932,-211.742 76.571,-233.296c29.685,-17.163 36.23,-39.102 25.864,-66.276c44.32,-31.479 28.499,-38.091 20.612,-69.57Z" style="fill:#55ddfa;"/><path d="M2978.99,3181.11c-25.016,-29.169 -26.383,-43.574 -17.474,-63.134c1.521,-3.405 0.585,-7.407 -2.288,-9.785c-30.765,-25.412 -31.157,-53.409 -17.944,-71.245c2.724,-3.58 2.057,-8.685 -1.495,-11.445c-32.265,-24.91 -63.761,-31.328 -50.899,-51.312l-74.504,-102.376l275.601,169.376l27.191,156.09l-29.825,45.063l-54.273,-2.402l-54.09,-58.83Z" style="fill:#55ddfa;"/><path id="body_shadow_41" serif:id="body_shadow_4" d="M3079.52,2682.07l38.55,-36.212c0.907,-0.854 2.159,-1.237 3.389,-1.036c91.701,14.818 115.784,72.671 207.485,109.18c5.144,2.041 8.94,6.502 10.13,11.907c17.276,78.522 146.343,665.161 146.343,665.161c-0,-0 -128.565,-113.436 -178.014,-157.067c-4.014,-3.543 -6.081,-8.798 -5.557,-14.126c0.524,-5.328 3.576,-10.08 8.203,-12.773c13.998,-7.806 18.124,-16.389 17.683,-43.055c-0.047,-3.73 1.165,-7.367 3.44,-10.323c29.699,-38.272 12.807,-67.867 -2.468,-84.233c-3.632,-3.831 -5.22,-9.164 -4.275,-14.357c5.895,-34.633 -9.342,-71.62 -43.088,-89.291c-6.151,-3.169 -9.678,-9.832 -8.839,-16.7c3.784,-29.414 -7.351,-50.774 -36.003,-67.267c-7.604,-4.553 -10.296,-14.274 -6.117,-22.09c16.529,-31.382 -35.63,-74.007 -84.873,-90.167c-1.744,-0.511 -3.128,-1.845 -3.701,-3.57c-0.573,-1.726 0.11,-3.406 0.829,-5.075c24.579,-57.102 -78.419,-88.565 -107.441,-81.752c-0.053,0.014 -0.105,0.032 -0.155,0.055c-4.535,1.576 -38.678,-19.911 -47.052,-47.825c-0.45,-1.637 -1.871,-2.821 -3.563,-2.967c-1.691,-0.146 -3.295,0.776 -4.019,2.312c-29.45,62.283 -85.99,80.052 -172.127,49.28c-3.065,-1.097 -6.487,-0.307 -8.762,2.02c-66.603,68.026 -126.647,81.962 -178.842,51.159c-3.579,-2.139 -8.189,-1.292 -10.773,1.98c-72.905,92.239 -144.012,94.952 -216.882,39.05c-3.132,-2.411 -7.527,-2.286 -10.517,0.297c-74.082,63.72 -152.773,65.197 -236.819,-5.602c-2.649,-2.235 -6.407,-2.595 -9.433,-0.903c-85.532,47.665 -156.076,29.934 -214.464,-40.842c-2.625,-3.194 -7.196,-3.977 -10.734,-1.84c-90.469,54.37 -174.358,27.867 -252.337,-57.57c-2.261,-2.483 -5.793,-3.365 -8.956,-2.237c-87.179,30.955 -146.193,-1.994 -202.77,-53.108l-7.383,-37.668l874.109,139.102l806.236,-205.628l-40.433,133.781Z" style="fill:#525252;fill-opacity:0.25;"/><g><path id="body_shadow_21" serif:id="body_shadow_2" d="M2370.95,3631.66l172.059,38.789l288.359,-130.895l-4.649,-171.166c12.053,54.23 -59.673,57.461 -85.391,56.91c-2.247,-0.072 -4.428,0.768 -6.046,2.329c-1.617,1.561 -2.535,3.711 -2.543,5.959c0.102,35.619 -19.242,52.087 -55.924,51.445c-4.245,-0.063 -7.852,3.088 -8.361,7.302c-5.613,49.606 -48.285,54.044 -82.184,50.366c-3.78,-0.424 -7.365,1.769 -8.711,5.327c-12.589,33.168 -36.896,49.951 -77.811,36.161c-3.081,-1.034 -6.481,-0.175 -8.702,2.198c-25.677,26.108 -150.554,-3.421 -187.04,-26.245" style="fill:#525252;fill-opacity:0.25;"/><path d="M2818.08,3363.9c-0,0 107.71,2.074 112.522,34.474c4.813,32.4 -3.514,21.751 -17.176,71.278c-5.675,20.571 -76.333,110.942 -157.51,149.618c-114.268,54.442 -249.378,58.796 -253.419,78.369c-6.911,33.479 -276.301,-141.109 -276.301,-141.109l149.192,1.611c-3.423,-5.503 23.529,58.029 130.825,39.526c39.425,18.219 67.819,-3.185 91.302,-42.234c37.169,8.224 66.412,-3.231 83.189,-45.637c31.765,-7.559 60.497,-21.156 73.152,-66.758c65.511,-8.339 79.839,-37.674 64.224,-79.138Z" style="fill:#55ddfa;"/></g><g><path id="body_shadow_22" serif:id="body_shadow_2" d="M2548.4,3325.89l93.308,-64.342l45.362,-267.752l-89.566,-86.795c35.775,22.572 -0.851,65.142 -16.295,80.71c-3.203,3.168 -3.303,8.308 -0.228,11.598c18.256,19.126 16.284,39 -3.777,59.504c-2.821,2.906 -3.13,7.424 -0.732,10.688c22.509,30.043 1.764,56.844 -18.972,74.487c-2.786,2.355 -3.713,6.251 -2.287,9.609c10.567,24.618 6.853,43.065 -22.959,58.732c-2.845,1.509 -4.562,4.526 -4.405,7.743c-1.316,24.346 -42.285,68.066 -65.642,63.996c-2.245,-0.419 -4.564,0.105 -6.411,1.448c-1.847,1.343 -3.06,3.387 -3.354,5.651c-5.306,38.773 -42.312,65.678 -88.694,56.064c-3.49,-0.741 -7.063,0.833 -8.871,3.909c-11.041,18.665 -32.435,24.32 -75.051,34.22" style="fill:#525252;fill-opacity:0.25;"/><path d="M2590.16,2909.58c-0,0 62.086,-61.964 82.533,-46.812c20.447,15.153 9.91,14.125 29.271,49.604c19.361,35.479 -48.16,365.274 -33.758,387.894c8.312,13.056 -552.803,158.33 -552.803,158.33l245.19,-95.336c60.638,-1.495 98.543,-15.372 107.879,-61.107c6.196,1.262 57.844,4.409 78.26,-79.023c37.044,-10.876 43.263,-33.884 29.786,-71.707c34.73,-14.884 46.657,-47.778 25.796,-82.948c19.791,-22.652 25.23,-45.122 -1.528,-78.066c32.51,-43.013 20.892,-66.979 -10.626,-80.829Z" style="fill:#55ddfa;"/></g><g><path id="body_shadow_24" serif:id="body_shadow_2" d="M1745.3,3095.51l-61.309,358.092l241.505,253.819l154.432,-95.273c0,-0 -79.599,-68.932 -98.863,-123.924c-1.232,-4.23 -5.56,-6.755 -9.849,-5.746c-59.228,14.697 -64.857,-27.514 -72.273,-70.028c-0.696,-3.882 -4.017,-6.744 -7.959,-6.859c-42.804,-1.125 -62.355,-15.438 -61.599,-71.861c0.035,-3.348 -1.938,-6.39 -5.009,-7.722c-41.17,-19.786 -64.504,-196.032 -52.787,-250.038" style="fill:#005264;fill-opacity:0.25;"/><path d="M2198.11,3626.74c-0,-0 40.127,132.436 5.088,151.098c-35.039,18.663 -26.184,4.286 -88.036,7.13c-61.853,2.844 -570.313,142.082 -611.206,146.845c-40.894,4.762 241.048,-952.337 241.048,-952.337l57.02,182.941c4.923,-6.353 -56.873,51.644 6.549,175.457c-5.217,55.362 21.213,80.428 74.994,93.718c5.288,48.663 39.057,81.065 94.02,84.836c21.149,35.833 47.984,65.579 104.966,63.053c35.351,76.762 74.447,82.698 115.557,47.259Z" style="fill:#55ddfa;"/></g></g></g><path id="shape_head" d="M2969.87,2654.71c71.274,10.594 118.518,-19.5 109.9,-78.812c80.881,-2.024 123.208,-37.247 114.21,-116.666c74.13,-7.803 110.727,-44.202 79.99,-131.903c-23.425,4.183 149.801,-19.55 61.095,-169.387m-0,0c55.446,-46.182 65.549,-109.235 13.64,-195.363c86.41,-54.174 99.432,-127.586 11.065,-219.212c43.623,-79.984 42.23,-149.64 -68.936,-184.685c49.349,-80.925 32.077,-128.27 -58.392,-161.757c57.095,-77.253 36.985,-137.107 -83.18,-174.414c9.199,-128.831 -52.353,-164.714 -170.481,-126.271c5.96,-84.037 -28.648,-142.641 -190.106,-121.729c-39.863,-129.284 -110.034,-145.238 -207.319,-59.814c-79.42,-117.572 -167.54,-141.629 -266.933,-44.493c-120.61,-80.306 -218.096,-74.725 -286.277,39.705c-109.972,-70.549 -201.507,-61.526 -264.042,72.653c-132.758,-57 -201.324,-12.129 -219.238,113.123c-116.468,-3.692 -183.419,28.628 -135.059,144.811c-160.537,31.144 -162.772,111.417 -105.987,210.005c-108.144,66.989 -122.235,141.325 -70.595,220.796c-101.77,82.09 -98.429,165.681 -25.433,250.267c-59.449,91.069 -37.22,151.886 38.151,193.021c-63.816,86.271 -42.511,148.647 35.981,194.971c-36.716,78.558 -21.788,141.623 91.309,175.237c-18.125,66.039 -0.279,109.942 89.022,125.736c30.296,97.309 104.561,108.369 199.781,78.325c66.575,77.038 164.76,125.833 256.304,53.052c60.005,58.448 139.232,101.814 223.323,38.69c90.635,78.414 160.422,91.328 243.567,2.469c87.555,73.855 166.472,56.042 224.068,-34.879c70.863,51.293 125.691,23.511 186.19,-48.84c57.316,48.304 180.353,12.375 174.382,-44.636" style="fill:#fff;"/><clipPath id="_clip7"><path d="M2969.87,2654.71c71.274,10.594 118.518,-19.5 109.9,-78.812c80.881,-2.024 123.208,-37.247 114.21,-116.666c74.13,-7.803 110.727,-44.202 79.99,-131.903c-23.425,4.183 149.801,-19.55 61.095,-169.387m-0,0c55.446,-46.182 65.549,-109.235 13.64,-195.363c86.41,-54.174 99.432,-127.586 11.065,-219.212c43.623,-79.984 42.23,-149.64 -68.936,-184.685c49.349,-80.925 32.077,-128.27 -58.392,-161.757c57.095,-77.253 36.985,-137.107 -83.18,-174.414c9.199,-128.831 -52.353,-164.714 -170.481,-126.271c5.96,-84.037 -28.648,-142.641 -190.106,-121.729c-39.863,-129.284 -110.034,-145.238 -207.319,-59.814c-79.42,-117.572 -167.54,-141.629 -266.933,-44.493c-120.61,-80.306 -218.096,-74.725 -286.277,39.705c-109.972,-70.549 -201.507,-61.526 -264.042,72.653c-132.758,-57 -201.324,-12.129 -219.238,113.123c-116.468,-3.692 -183.419,28.628 -135.059,144.811c-160.537,31.144 -162.772,111.417 -105.987,210.005c-108.144,66.989 -122.235,141.325 -70.595,220.796c-101.77,82.09 -98.429,165.681 -25.433,250.267c-59.449,91.069 -37.22,151.886 38.151,193.021c-63.816,86.271 -42.511,148.647 35.981,194.971c-36.716,78.558 -21.788,141.623 91.309,175.237c-18.125,66.039 -0.279,109.942 89.022,125.736c30.296,97.309 104.561,108.369 199.781,78.325c66.575,77.038 164.76,125.833 256.304,53.052c60.005,58.448 139.232,101.814 223.323,38.69c90.635,78.414 160.422,91.328 243.567,2.469c87.555,73.855 166.472,56.042 224.068,-34.879c70.863,51.293 125.691,23.511 186.19,-48.84c57.316,48.304 180.353,12.375 174.382,-44.636"/></clipPath><g clip-path="url(#_clip7)"><path id="head_color" d="M2271.67,711.6c-609.923,-5.787 -1140.31,572.658 -1233.28,1108.14c-38.42,221.289 -10.115,404.343 69.051,552.119c184.025,343.514 644.602,496.881 1187.91,494.09c365.034,-1.875 733.375,-104.42 980.635,-295.394c249.011,-192.326 375.979,-473.958 255.557,-833.026c-157.498,-469.626 -575.148,-1019.44 -1259.87,-1025.93l-0.001,0Z" style="fill:#fff;"/><clipPath id="_clip8"><path d="M2271.67,711.6c-609.923,-5.787 -1140.31,572.658 -1233.28,1108.14c-38.42,221.289 -10.115,404.343 69.051,552.119c184.025,343.514 644.602,496.881 1187.91,494.09c365.034,-1.875 733.375,-104.42 980.635,-295.394c249.011,-192.326 375.979,-473.958 255.557,-833.026c-157.498,-469.626 -575.148,-1019.44 -1259.87,-1025.93l-0.001,0Z"/></clipPath><g clip-path="url(#_clip8)"><g id="hodie_shadow"><path id="shadow_hoddie" d="M3010.82,1808.9c-0,0 -47.873,-31.482 -131.906,-70.087c-36.595,-16.812 -129.391,-52.476 -129.391,-52.476c-71.127,25.723 -141.794,18.725 -212.907,-55.709c-2.341,-2.455 -5.938,-3.244 -9.092,-1.995c-72.889,28.699 -141.445,18.863 -204.247,-25.139c-2.846,-2.002 -6.638,-2.02 -9.503,-0.044c-76.242,52.347 -146.732,50.717 -212.925,8.698c-3.578,-2.286 -8.302,-1.513 -10.964,1.794c-42.464,52.314 -103.905,59.989 -180.664,31.622c-1.719,-0.637 -3.601,-0.689 -5.353,-0.147c-17.623,5.47 -116.833,36.556 -169.717,59.051c-65.935,28.048 -132.635,62.53 -199.624,104.432c-998.242,624.409 70.072,-473.875 70.072,-473.875l1041.17,-3.055l678.197,216.583l-313.148,260.347Z" style="fill:#525252;fill-opacity:0.25;"/><path id="shadow_hoddie1" serif:id="shadow_hoddie" d="M1281.6,1821.78l-374.834,924.115c-0,0 1079.62,15.799 1012.7,-22.431c-758.985,-433.627 -574.111,-697.115 -574.111,-697.115" style="fill:#525252;fill-opacity:0.25;"/><path id="shadow_hoddie2" serif:id="shadow_hoddie" d="M3261.31,1821.78l215.726,919.47c0,0 -920.51,20.444 -853.595,-17.786c758.985,-433.627 574.111,-697.115 574.111,-697.115" style="fill:#525252;fill-opacity:0.25;"/></g><g id="smile_panda"><g><path d="M2289.89,2236.49c-25.142,85.724 -134.818,112.797 -219.503,29.663" style="fill:none;stroke:#000;stroke-width:40.53px;stroke-miterlimit:10;"/><path d="M2289.89,2236.49c25.142,85.724 134.819,112.797 219.504,29.663" style="fill:none;stroke:#000;stroke-width:40.53px;stroke-miterlimit:10;"/><path d="M2289.89,2147.03c35.304,-0.855 83.625,-25.151 111.501,-12.575c27.876,12.575 27.876,37.726 -0,62.878c-19.513,18.863 -69.688,37.727 -111.501,50.302c-41.813,-12.575 -91.988,-31.439 -111.501,-50.302c-27.876,-25.152 -27.876,-50.303 -0,-62.878c27.875,-12.576 76.196,13.43 111.501,12.575Z"/></g></g><g id="right_eye"><path d="M2019.85,2000.9c54.751,-47.861 69.741,-421.791 -287.345,-429.763c-272.328,-6.08 -529.476,238.385 -503.786,481.395c16.339,154.557 268.027,518.148 687.113,152.48c-270.133,114.005 -420.226,-82.602 -425.89,-159.943c-11.766,-160.657 114.035,-249.512 250.026,-272.417c44.424,-7.483 179.795,6.522 279.882,228.248Z"/><path d="M1767.76,1832.36c109.16,-0 197.783,88.623 197.783,197.783c-0,109.158 -88.623,197.782 -197.783,197.782c-109.159,0 -197.782,-88.624 -197.782,-197.782c-0,-109.16 88.623,-197.783 197.782,-197.783Z" style="fill:#fff;"/><clipPath id="_clip9"><path d="M1767.76,1832.36c109.16,-0 197.783,88.623 197.783,197.783c-0,109.158 -88.623,197.782 -197.783,197.782c-109.159,0 -197.782,-88.624 -197.782,-197.782c-0,-109.16 88.623,-197.783 197.782,-197.783Z"/></clipPath><g clip-path="url(#_clip9)"><path d="M1609.67,2148.96c-24.919,-33.09 -39.696,-74.24 -39.696,-118.814c-0,-109.16 88.623,-197.783 197.782,-197.783c18.095,-0 35.626,2.435 52.282,6.996c-19.445,16.268 -31.821,40.712 -31.821,68.025c-0,48.934 39.727,88.661 88.66,88.661c31.042,-0 58.381,-15.989 74.221,-40.172c9.311,22.937 14.441,48.011 14.441,74.273c-0,109.158 -88.623,197.782 -197.783,197.782c-42.429,0 -81.756,-13.389 -113.981,-36.17c13.765,-23.298 26.056,-49.26 6.655,-60.462c-22.02,-12.713 -39.863,-10.829 -50.76,17.664Z"/><path d="M1609.67,2148.96c-24.919,-33.09 -39.696,-74.24 -39.696,-118.814c-0,-109.16 88.623,-197.783 197.782,-197.783c18.095,-0 35.626,2.435 52.282,6.996c-19.445,16.268 -31.821,40.712 -31.821,68.025c-0,48.934 39.727,88.661 88.66,88.661c31.042,-0 58.381,-15.989 74.221,-40.172c9.311,22.937 14.441,48.011 14.441,74.273c-0,109.158 -88.623,197.782 -197.783,197.782c-42.429,0 -81.756,-13.389 -113.981,-36.17"/></g></g><g id="left_eye"><path d="M2559.18,2000.9c-54.751,-47.861 -69.742,-421.791 287.345,-429.763c272.328,-6.08 529.476,238.385 503.785,481.395c-16.339,154.557 -268.025,518.148 -687.112,152.48c270.132,114.005 420.226,-82.602 425.89,-159.943c11.767,-160.657 -114.036,-249.512 -250.027,-272.417c-44.423,-7.483 -179.794,6.522 -279.881,228.248Z"/><path d="M3014.46,2030.14c-0,-109.16 -88.625,-197.783 -197.783,-197.783c-109.159,-0 -197.783,88.623 -197.783,197.783c-0,109.158 88.624,197.782 197.783,197.782c109.158,0 197.783,-88.624 197.783,-197.782Z" style="fill:#fff;"/><clipPath id="_clip10"><path d="M3014.46,2030.14c-0,-109.16 -88.625,-197.783 -197.783,-197.783c-109.159,-0 -197.783,88.623 -197.783,197.783c-0,109.158 88.624,197.782 197.783,197.782c109.158,0 197.783,-88.624 197.783,-197.782Z"/></clipPath><g clip-path="url(#_clip10)"><path d="M2697.86,2188.23c33.09,24.918 74.24,39.695 118.814,39.695c109.158,0 197.783,-88.624 197.783,-197.782c-0,-18.096 -2.436,-35.626 -6.996,-52.283c-16.27,19.445 -40.713,31.822 -68.025,31.822c-48.934,-0 -88.662,-39.727 -88.662,-88.66c-0,-31.044 15.988,-58.38 40.172,-74.222c-22.937,-9.31 -48.011,-14.44 -74.272,-14.44c-109.159,-0 -197.783,88.623 -197.783,197.783c-0,42.429 13.39,81.755 36.17,113.98"/></g></g><path id="hoddie_color" d="M1688.7,2934.29l413.842,202.61l519.324,-28.798l205.426,-130.551l55.374,-62.19c208.997,141.583 466.509,310.526 466.509,310.526l162.415,-1058.35l-9.467,-229.669l-35.179,-281.465l-175.651,-479.146l-286.72,-255.259l-390.699,-141.834l-447.883,-28.138l-468.068,117.598l-344.112,134.083l-184.128,411.093l-109.145,290.543l-60.26,246.51l68.988,1371.55c-0,-0 356.003,-220.123 619.434,-389.116Zm931.46,-208.944c576.884,-194.349 685.46,-455.566 578.224,-685.018c-15.627,-33.436 -46.734,-84.015 -46.734,-84.015c-55.212,-3.332 -95.342,-57.338 -123.708,-131.744c-81.782,-11.078 -119.65,-40.742 -128.156,-97.186c-55.077,46.047 -110.985,-6.637 -142.417,-84.07c-68.261,54.226 -167.248,17.315 -211.489,-90.136c-53.191,63.8 -166.765,58.415 -224.88,-27.945c-56.437,97.239 -156.571,98.333 -236.646,22.235c-28.36,83.491 -91.523,100.292 -185.475,59.879c-9.783,71.267 -78.7,114.627 -172.726,82.801c-18.272,99.43 -95.271,150.105 -174.414,115.593c-40.304,69.071 -68.918,134.657 -144.298,151.134c0,0 -25.855,49.72 -44.426,91.121c-101.173,225.548 7.328,482.277 561.532,681.395c244.194,40.778 442.153,47.112 695.613,-4.044Z" style="fill:#55ddfa;"/><clipPath id="_clip11"><path d="M1688.7,2934.29l413.842,202.61l519.324,-28.798l205.426,-130.551l55.374,-62.19c208.997,141.583 466.509,310.526 466.509,310.526l162.415,-1058.35l-9.467,-229.669l-35.179,-281.465l-175.651,-479.146l-286.72,-255.259l-390.699,-141.834l-447.883,-28.138l-468.068,117.598l-344.112,134.083l-184.128,411.093l-109.145,290.543l-60.26,246.51l68.988,1371.55c-0,-0 356.003,-220.123 619.434,-389.116Zm931.46,-208.944c576.884,-194.349 685.46,-455.566 578.224,-685.018c-15.627,-33.436 -46.734,-84.015 -46.734,-84.015c-55.212,-3.332 -95.342,-57.338 -123.708,-131.744c-81.782,-11.078 -119.65,-40.742 -128.156,-97.186c-55.077,46.047 -110.985,-6.637 -142.417,-84.07c-68.261,54.226 -167.248,17.315 -211.489,-90.136c-53.191,63.8 -166.765,58.415 -224.88,-27.945c-56.437,97.239 -156.571,98.333 -236.646,22.235c-28.36,83.491 -91.523,100.292 -185.475,59.879c-9.783,71.267 -78.7,114.627 -172.726,82.801c-18.272,99.43 -95.271,150.105 -174.414,115.593c-40.304,69.071 -68.918,134.657 -144.298,151.134c0,0 -25.855,49.72 -44.426,91.121c-101.173,225.548 7.328,482.277 561.532,681.395c244.194,40.778 442.153,47.112 695.613,-4.044Z"/></clipPath><g clip-path="url(#_clip11)"><g id="face_sheep"><path d="M2290.49,1090.1c155.069,-0 289.299,204.571 289.299,276.136c-0,71.566 -134.23,99.866 -289.299,99.866c-155.069,-0 -280.965,-27.869 -280.965,-99.434c-0,-71.566 125.896,-276.568 280.965,-276.568Z" style="fill:#f3e3c2;"/><path id="shadow_head" d="M2016.67,1078.59l465.584,84.385l98.56,-29.643l85.856,50l22.884,25c-6.106,24.553 -131.695,109.088 -202.41,32.348c-2.328,-2.544 -5.991,-3.377 -9.19,-2.09c-56.481,22.501 -115.892,29.282 -178.299,-9.793c-2.996,-1.886 -6.859,-1.669 -9.625,0.541c-55.905,44.373 -118.885,57.5 -193.086,12.354c-2.599,-1.586 -5.856,-1.626 -8.493,-0.106c-138.781,80.746 -155.115,-49.92 -155.115,-49.92" style="fill:#525252;fill-opacity:0.25;"/><path d="M2262.86,1354.85c-2.6,1.277 -3.959,2.698 -3.942,4.12c0.053,4.472 13.443,7.872 29.881,7.589c16.439,-0.284 29.742,-4.144 29.688,-8.616c-0.017,-1.422 -1.41,-2.796 -4.038,-3.982l-51.589,0.889Z" style="fill:#9bfe21;stroke:#000;stroke-width:19.77px;"/><g><path d="M2325.16,1420.66c-0,-0 -30.233,23.278 -36.702,-62.331" style="fill:none;stroke:#000;stroke-width:18.5px;"/><path d="M2252.24,1420.91c0,0 30.233,23.278 36.702,-62.33" style="fill:none;stroke:#000;stroke-width:18.5px;"/></g><g id="eyes_cricket"><ellipse cx="2452.26" cy="1308.43" rx="22.632" ry="21.522" style="stroke:#000;stroke-width:24.84px;"/><ellipse cx="2125.04" cy="1308.43" rx="22.632" ry="21.522" style="stroke:#000;stroke-width:24.84px;"/></g><g id="forehead"><path d="M2650.29,1245.63c45.145,-18.442 39.26,-46.013 39.26,-46.013l110.449,67.046l-44.084,-191.755l-519.327,-0.651l-286.589,-57.594l-125,164.606l91.667,2.06c31.42,73.173 80.08,102.017 166.666,33.334c0,-0 127.698,90.553 203.531,-26.311c26.356,-40.619 84.921,113.606 185.431,17.019c21.981,-21.123 66.691,83.728 177.996,38.259Z" style="fill:#55ddfa;"/></g></g><g><path id="body_shadow_25" serif:id="body_shadow_2" d="M3232.95,1881.74l77.684,-153.16l-62.826,-333.712l310.757,12.915l-568.965,-107.962c67.312,2.9 45.354,92.368 36.633,120.847c-0.694,2.173 -0.466,4.536 0.631,6.535c1.098,2 2.967,3.462 5.173,4.044c42.379,10.994 55.134,39.78 41.498,84.389c-1.257,4.132 0.862,8.538 4.875,10.136c56.905,22.294 47.124,75.684 31.399,115.083c-1.424,3.532 -0.27,7.579 2.802,9.829c34.854,25.644 46.53,60.279 16.248,105.294c-1.86,2.77 -1.883,6.383 -0.06,9.176c22.894,37.54 -52.413,177.687 -90.684,213.92" style="fill:#525252;fill-opacity:0.25;"/><path d="M2981.65,1308.63c-0,0 37.553,-126.847 76.17,-122.322c38.617,4.525 23.721,11.023 75.887,42.821c52.166,31.797 542.595,201.541 578.616,220.284c36.021,18.743 -703.748,620.627 -703.748,620.627l50.572,-176.096c-7.41,2.315 74.034,-9.545 87.924,-142.394c33.708,-40.921 18.509,-81.285 -18.468,-121.402c21.543,-41.404 17.997,-79.634 -25.009,-112.872c1.732,-39.986 -4.429,-78.287 -52.437,-107.654c11.863,-80.179 -16.998,-106.395 -69.507,-100.992Z" style="fill:#55ddfa;"/></g><g><path id="body_shadow_26" serif:id="body_shadow_2" d="M1485.82,1378.6l-148.278,52.919l-168.45,259.028l-198.901,-200.962l311.031,423.556c-42.615,-43.188 26.672,-88.162 51.072,-102.013c1.992,-1.101 3.446,-2.971 4.022,-5.173c0.577,-2.202 0.227,-4.544 -0.969,-6.481c-20.638,-32.997 -11.08,-59.554 25.391,-80.342c3.732,-2.138 5.214,-6.772 3.415,-10.679c-23.102,-49.296 16.346,-78.231 51.369,-94.458c3.47,-1.594 5.41,-5.345 4.707,-9.098c-7.085,-37.492 3.944,-61.234 51.844,-71.712c3.352,-0.74 5.904,-3.464 6.426,-6.857c8.302,-32.542 84.105,-79.414 113.506,-62.084c2.129,1.22 4.689,1.433 6.991,0.582c2.301,-0.851 4.108,-2.678 4.931,-4.99c19.094,-51.794 80.71,-76.041 142.653,-45.431c3.275,1.635 7.234,0.934 9.748,-1.726c21.23,-22.245 52.236,-22.447 114.958,-20.938" style="fill:#525252;fill-opacity:0.25;"/><path d="M1320.9,1917.57c0,0 -125.458,64.515 -148.335,37.616c-22.876,-26.9 -8.857,-21.961 -23.574,-75.24c-14.716,-53.279 -234.486,-468.952 -246.673,-503.622c-7.034,-20.009 1053.19,-46.331 1053.19,-46.331l-98.907,134.264c-83.108,-18.669 -213.11,-107.604 -261.363,-17.796c-8.027,-3.768 -77.36,-25.488 -132.601,77.36c-54.046,1.706 -70.082,29.868 -64.154,84.229c-52.21,7.768 -79.272,46.997 -62.412,100.379c-34.409,23.075 -14.359,83.592 29.718,121.704c-58.433,45.541 -83.28,58.484 -44.891,87.437Z" style="fill:#55ddfa;"/></g></g></g><path id="shadow_head1" serif:id="shadow_head" d="M2331.71,446.608l974.84,627.389l249.25,617.703l-135.617,954.654l-216.015,-170.521c48.132,-30.32 76.247,-76.845 77.712,-144.943c55.556,-48.539 71.909,-104.918 38.576,-171.234c51.572,-64.181 55.366,-131.695 11.382,-202.542c74.77,-69.271 79.668,-136.814 -18.067,-201.64c67.411,-91.603 34.062,-152.651 -62.055,-182.71c33.195,-72.638 30.659,-130.806 -45.034,-170.111c24.308,-80.762 -13.072,-132.495 -102.098,-159.924c7.934,-94.458 -48.645,-137.306 -162.934,-133.987c-8.671,-81.32 -73.884,-109.155 -164.798,-112.678c-50.158,-72.51 -117.25,-96.637 -198.519,-80.258c-71.725,-74.438 -164.807,-75.156 -263.2,-56.259c-50.969,-9.145 -94.404,-32.696 -142.683,-30.001c-51.387,2.869 -101.294,12.249 -149.816,27.722" style="fill:#525252;fill-opacity:0.25;"/></g><g id="EAR"><path d="M3107.41,974.378c-0,0 -223.464,-98.672 -284.717,112.544c-7.983,27.529 54.005,55.459 54.005,55.459l230.712,-168.003Z" style="fill:#d7caa6;"/><path d="M2876.62,1142.42c-0,-0 4.357,-30.598 6.798,-37.232c3.031,-8.238 6.505,-16.32 10.355,-24.208c8.646,-17.718 19.284,-34.529 32.092,-49.539c12.689,-14.871 27.552,-27.917 44.327,-38.001c16.518,-9.93 34.734,-16.842 53.642,-20.544c16.471,-3.224 33.354,-4.047 50.089,-2.99c10.511,0.663 20.954,2.079 31.299,4.041l1.071,0.207l1.12,-0.738c-0,-0 -0.072,0.314 -0.223,0.916l0.223,0.044l-0.28,0.184c-3.953,15.653 -52.484,202.71 -230.513,167.86Z" style="fill:#f3e3c2;"/></g><g id="EAR1" serif:id="EAR"><path d="M1509.97,975.146c0,-0 223.464,-98.672 284.717,112.544c7.983,27.529 -54.005,55.459 -54.005,55.459l-230.712,-168.003Z" style="fill:#d7caa6;"/><path d="M1740.76,1143.19c0,-0 -4.357,-30.598 -6.798,-37.232c-3.031,-8.238 -6.505,-16.32 -10.355,-24.208c-8.646,-17.718 -19.284,-34.529 -32.092,-49.539c-12.689,-14.871 -27.552,-27.917 -44.327,-38.001c-16.518,-9.93 -34.734,-16.842 -53.642,-20.544c-16.471,-3.224 -33.354,-4.047 -50.089,-2.99c-10.511,0.663 -20.954,2.079 -31.299,4.041l-1.071,0.207l-1.12,-0.738c0,-0 0.072,0.314 0.223,0.916l-0.223,0.044l0.28,0.184c3.953,15.653 52.484,202.71 230.513,167.86Z" style="fill:#f3e3c2;"/></g></g></g></g></svg>