<?xml version="1.0" encoding="UTF-8" standalone="no"?><!DOCTYPE svg PUBLIC "-//W3C//DTD SVG 1.1//EN" "http://www.w3.org/Graphics/SVG/1.1/DTD/svg11.dtd"><svg width="100%" height="100%" viewBox="0 0 2271 2146" version="1.1" xmlns="http://www.w3.org/2000/svg" xmlns:xlink="http://www.w3.org/1999/xlink" xml:space="preserve" xmlns:serif="http://www.serif.com/" style="fill-rule:evenodd;clip-rule:evenodd;stroke-linecap:round;stroke-linejoin:round;stroke-miterlimit:10;"><g id="PANDA_CRICKET"><g><g id="PANDA"><g><g id="wings_cricket"><g><path d="M1448.22,1406.17c-0,-0 82.479,307.778 90.91,372.965c8.43,65.187 -0.737,92.062 -23.31,123.545c-22.574,31.482 -186.427,-183.37 -179.49,-216.786" style="fill:#12761f;"/><clipPath id="_clip1"><path d="M1448.22,1406.17c-0,-0 82.479,307.778 90.91,372.965c8.43,65.187 -0.737,92.062 -23.31,123.545c-22.574,31.482 -186.427,-183.37 -179.49,-216.786"/></clipPath><g clip-path="url(#_clip1)"><path d="M1520.21,1913.43c3.956,-21.918 39.132,-62.007 39.132,-84.279c-0,-27.942 -23.395,-72.362 -28.996,-102.942c-5.071,-27.684 -11.355,-55.427 -21.738,-81.586c-15.546,-39.173 -59.545,-139.85 -71.543,-153.448c-11.998,-13.598 -3.527,48.106 -0.446,71.862c3.114,24.02 4.884,18.272 9.627,37.309c3.464,13.902 62.924,286.977 66.557,312.882" style="fill:#0b5a12;"/></g></g><g><path d="M822.615,1406.17c-0,-0 -82.48,307.778 -90.911,372.965c-8.43,65.187 0.737,92.062 23.311,123.545c22.573,31.482 186.426,-183.37 179.489,-216.786" style="fill:#12761f;"/><clipPath id="_clip2"><path d="M822.615,1406.17c-0,-0 -82.48,307.778 -90.911,372.965c-8.43,65.187 0.737,92.062 23.311,123.545c22.573,31.482 186.426,-183.37 179.489,-216.786"/></clipPath><g clip-path="url(#_clip2)"><path d="M750.621,1913.43c-3.957,-21.918 -39.133,-62.007 -39.133,-84.279c0,-27.942 23.395,-72.362 28.996,-102.942c5.071,-27.684 11.356,-55.427 21.738,-81.586c15.547,-39.173 59.545,-139.85 71.543,-153.448c11.999,-13.598 3.527,48.106 0.447,71.862c-3.115,24.02 -4.885,18.272 -9.628,37.309c-3.463,13.902 -62.924,286.977 -66.556,312.882" style="fill:#0b5a12;"/></g></g></g><path id="body_color" d="M1140.02,1848.62c-9.78,-0.036 -19.251,-0.564 -27.749,-1.612c2.763,17.068 6.071,42.467 4.019,56.319c-1.765,11.917 -8.303,17.976 -14.663,19.237c-71.216,14.115 -143.631,18.675 -185.05,8.851c-22.209,-5.268 -36.338,-15.39 -41.141,-27.972c-22.361,-58.572 -62.847,-210.523 -66.258,-332.077c-9.048,18.674 -18.009,39.236 -28.055,56.481c-14.277,24.509 -31.338,42.308 -51.351,45.283c-40.456,6.016 -69.497,-5.867 -87.273,-28.092c-25.277,-31.602 -27.599,-86.996 -2.52,-147.293c26.587,-63.921 85.774,-143.454 196.434,-173.946c109.07,-37.239 211.676,-44.309 308.33,-45.938c0.134,-0.003 0.269,-0.003 0.403,-0c96.645,1.629 199.242,8.698 308.256,45.915c110.718,30.493 169.918,110.039 196.508,173.969c25.079,60.297 22.757,115.691 -2.52,147.293c-17.776,22.225 -46.817,34.108 -87.272,28.092c-20.014,-2.975 -37.074,-20.774 -51.352,-45.283c-10.046,-17.245 -19.007,-37.808 -28.054,-56.476c-3.412,121.551 -43.898,273.5 -66.259,332.072c-4.803,12.582 -18.931,22.704 -41.141,27.972c-41.419,9.824 -113.834,5.264 -185.05,-8.851c-6.36,-1.261 -12.898,-7.32 -14.663,-19.237c-2.052,-13.852 1.257,-39.251 4.019,-56.319c-8.526,1.051 -18.031,1.579 -27.846,1.613c-3.127,0.068 -6.384,0.074 -9.752,-0.001Z" style="fill:#4aae1d;"/><clipPath id="_clip3"><path d="M1140.02,1848.62c-9.78,-0.036 -19.251,-0.564 -27.749,-1.612c2.763,17.068 6.071,42.467 4.019,56.319c-1.765,11.917 -8.303,17.976 -14.663,19.237c-71.216,14.115 -143.631,18.675 -185.05,8.851c-22.209,-5.268 -36.338,-15.39 -41.141,-27.972c-22.361,-58.572 -62.847,-210.523 -66.258,-332.077c-9.048,18.674 -18.009,39.236 -28.055,56.481c-14.277,24.509 -31.338,42.308 -51.351,45.283c-40.456,6.016 -69.497,-5.867 -87.273,-28.092c-25.277,-31.602 -27.599,-86.996 -2.52,-147.293c26.587,-63.921 85.774,-143.454 196.434,-173.946c109.07,-37.239 211.676,-44.309 308.33,-45.938c0.134,-0.003 0.269,-0.003 0.403,-0c96.645,1.629 199.242,8.698 308.256,45.915c110.718,30.493 169.918,110.039 196.508,173.969c25.079,60.297 22.757,115.691 -2.52,147.293c-17.776,22.225 -46.817,34.108 -87.272,28.092c-20.014,-2.975 -37.074,-20.774 -51.352,-45.283c-10.046,-17.245 -19.007,-37.808 -28.054,-56.476c-3.412,121.551 -43.898,273.5 -66.259,332.072c-4.803,12.582 -18.931,22.704 -41.141,27.972c-41.419,9.824 -113.834,5.264 -185.05,-8.851c-6.36,-1.261 -12.898,-7.32 -14.663,-19.237c-2.052,-13.852 1.257,-39.251 4.019,-56.319c-8.526,1.051 -18.031,1.579 -27.846,1.613c-3.127,0.068 -6.384,0.074 -9.752,-0.001Z"/></clipPath><g clip-path="url(#_clip3)"><path id="leg_right" d="M1177.86,1847.28c0,-0 139.904,-41.149 253.931,8.074c114.026,49.223 -3.931,93.539 -3.931,93.539l-166.666,16.667l-91.667,-4.167l-20.833,-25l29.166,-89.113Z" style="fill:#00960c;"/><path id="leg_left" d="M1112.03,1847.28c0,-0 -139.904,-41.149 -253.93,8.074c-114.027,49.223 3.93,93.539 3.93,93.539l166.667,16.667l91.666,-4.167l20.834,-25l-29.167,-89.113Z" style="fill:#00960c;"/><g id="_2body" serif:id="2body"><ellipse id="body2_color" cx="1143.59" cy="1607.3" rx="109.518" ry="191.899" style="fill:#00960c;"/><clipPath id="_clip4"><ellipse id="body2_color1" serif:id="body2_color" cx="1143.59" cy="1607.3" rx="109.518" ry="191.899"/></clipPath><g clip-path="url(#_clip4)"><path id="shadow_body2" d="M1215.05,1429.9l74.045,74.083l-35.981,101.319c-0,0 -35.999,-228.197 -169.1,-162.419l-18.463,-80.927l90.264,42.523" style="fill:#111;fill-opacity:0.18;"/></g></g><g><path d="M1228.05,1348.2c29.712,25.212 27.884,48.701 0,81.297c-28.747,33.606 -5.696,76.264 16.266,87.835" style="fill:none;stroke:#714ab6;stroke-width:13.83px;"/><path d="M1249.7,1520.8l1.137,-1.969l-7.743,-4.47l-1.137,1.969l7.743,4.47Z" style="fill:#fff;stroke:#fff;stroke-width:13.83px;"/></g><g><path d="M1057.95,1348.2c-29.712,25.212 -27.883,48.701 0,81.297c28.747,33.606 5.696,76.264 -16.265,87.835" style="fill:none;stroke:#714ab6;stroke-width:13.83px;"/><path d="M1047.21,1515.73l-1.291,-1.872l-7.36,5.075l1.291,1.872l7.36,-5.075Z" style="fill:#fff;stroke:#fff;stroke-width:13.83px;"/></g><g id="body_shadows"><path id="body_shadow_1" d="M1372.77,1936.66l44.032,-11.603l22.961,-91.384l41.705,-200.383l-1.525,-80.469l-2.067,-26.995c0,-0 -64.975,315.18 -152.462,410.834" style="fill:#525252;fill-opacity:0.25;"/><path id="body_shadow_2" d="M1039.49,1951.98l63.231,-12.854l22.651,-3.546l-8.656,-87.179l-20.118,-5.013c0,-0 -0.555,73.85 -57.108,108.592Z" style="fill:#525252;fill-opacity:0.25;"/><path id="body_shadow_3" d="M653.525,1674.17l65.118,6.202l50.915,-23.833l26.721,-43.007l11.149,-39.132c-0,0 21.565,-43.361 18.677,-40.201c-19.819,21.685 -112.116,156.269 -170.128,123.206" style="fill:#525252;fill-opacity:0.25;"/><path d="M811.134,1596.95c0,0 -2.986,-68.751 -2.56,-74.482c0.427,-5.731 50.347,-0 50.347,-0l0.853,49.309l-48.64,25.173Z" style="fill:#4aae1d;"/><path id="body_shadow_4" d="M1661.73,1691.76l21.607,-75.259l-0.278,-33.911l-15.483,-23.988l-5.401,-70.541c-0,0 -133.532,-150.22 -94.376,-100.502c18.284,23.216 94.831,231.094 24.347,287.801" style="fill:#525252;fill-opacity:0.25;"/><path id="body_shadow_5" d="M1462.3,1311.41l44.693,27.732c0,-0 -375.783,105.002 -723.014,5.787l-13.719,-32.697" style="fill:#525252;fill-opacity:0.25;"/></g></g><g id="Czolki"><path d="M1375,525c0,0 245.851,-436.959 445.394,-376.425" style="fill:none;stroke:#0b5a12;stroke-width:27.8px;stroke-miterlimit:1.5;"/><path d="M912.5,525c0,0 -245.851,-436.959 -445.394,-376.425" style="fill:none;stroke:#0b5a12;stroke-width:27.8px;stroke-miterlimit:1.5;"/></g><path id="head_color" d="M1131.13,434.007c-308.082,-2.923 -489.073,211.663 -536.034,482.145c-25.975,149.615 -5.323,252.63 53.091,322.421c43.927,52.482 109.464,86.44 193.887,106.833c82.717,19.982 183.776,27.026 300.208,26.428c154.082,-0.791 293.755,-21.821 395.088,-72.226c69.097,-34.37 120.568,-82.378 147.491,-146.578c28.643,-68.302 29.557,-155.277 -7.059,-264.455c-79.475,-236.978 -201.155,-451.29 -546.672,-454.568l-0,-0Z" style="fill:#fff;"/><clipPath id="_clip5"><path id="head_color1" serif:id="head_color" d="M1131.13,434.007c-308.082,-2.923 -489.073,211.663 -536.034,482.145c-25.975,149.615 -5.323,252.63 53.091,322.421c43.927,52.482 109.464,86.44 193.887,106.833c82.717,19.982 183.776,27.026 300.208,26.428c154.082,-0.791 293.755,-21.821 395.088,-72.226c69.097,-34.37 120.568,-82.378 147.491,-146.578c28.643,-68.302 29.557,-155.277 -7.059,-264.455c-79.475,-236.978 -201.155,-451.29 -546.672,-454.568l-0,-0Z"/></clipPath><g clip-path="url(#_clip5)"><g id="hodie_shadow"><path id="shadow_hoddie" d="M1507.52,910.89c0,0 -359.837,-236.634 -738.146,0c-499.121,312.204 35.036,-236.938 35.036,-236.938l520.586,-1.527l339.099,108.291l-156.575,130.174Z" style="fill:#525252;fill-opacity:0.25;"/><path id="shadow_hoddie1" serif:id="shadow_hoddie" d="M640.801,910.89l-187.417,462.058c-0,0 539.809,7.9 506.352,-11.215c-379.493,-216.814 -287.056,-348.558 -287.056,-348.558" style="fill:#525252;fill-opacity:0.25;"/><path id="shadow_hoddie2" serif:id="shadow_hoddie" d="M1630.66,910.89l107.863,459.736c0,-0 -460.255,10.222 -426.798,-8.893c379.493,-216.814 287.056,-348.558 287.056,-348.558" style="fill:#525252;fill-opacity:0.25;"/></g><g id="right_eye"><path d="M1009.92,1000.45c27.376,-23.931 34.871,-210.896 -143.672,-214.882c-136.164,-3.04 -264.738,119.192 -251.893,240.698c8.17,77.278 134.013,259.073 343.556,76.24c-135.066,57.002 -210.112,-41.301 -212.944,-79.972c-5.884,-80.328 57.017,-124.756 125.013,-136.209c22.211,-3.741 89.897,3.262 139.94,114.125Z"/><path d="M883.88,916.181c54.58,-0 98.892,44.311 98.892,98.891c-0,54.58 -44.312,98.892 -98.892,98.892c-54.579,-0 -98.891,-44.312 -98.891,-98.892c0,-54.58 44.312,-98.891 98.891,-98.891Z" style="fill:#fff;"/><clipPath id="_clip6"><path d="M883.88,916.181c54.58,-0 98.892,44.311 98.892,98.891c-0,54.58 -44.312,98.892 -98.892,98.892c-54.579,-0 -98.891,-44.312 -98.891,-98.892c0,-54.58 44.312,-98.891 98.891,-98.891Z"/></clipPath><g clip-path="url(#_clip6)"><path d="M804.837,1074.48c-12.459,-16.545 -19.848,-37.12 -19.848,-59.407c0,-54.58 44.312,-98.891 98.891,-98.891c9.048,-0 17.813,1.218 26.141,3.498c-9.722,8.134 -15.91,20.356 -15.91,34.013c-0,24.466 19.863,44.33 44.33,44.33c15.521,-0 29.19,-7.994 37.111,-20.086c4.655,11.468 7.22,24.006 7.22,37.136c-0,54.58 -44.312,98.892 -98.892,98.892c-21.214,-0 -40.877,-6.695 -56.99,-18.085c6.882,-11.65 13.028,-24.631 3.328,-30.231c-11.011,-6.357 -19.932,-5.415 -25.381,8.831Z"/><path d="M804.837,1074.48c-12.459,-16.545 -19.848,-37.12 -19.848,-59.407c0,-54.58 44.312,-98.891 98.891,-98.891c9.048,-0 17.813,1.218 26.141,3.498c-9.722,8.134 -15.91,20.356 -15.91,34.013c-0,24.466 19.863,44.33 44.33,44.33c15.521,-0 29.19,-7.994 37.111,-20.086c4.655,11.468 7.22,24.006 7.22,37.136c-0,54.58 -44.312,98.892 -98.892,98.892c-21.214,-0 -40.877,-6.695 -56.99,-18.085"/></g></g><g id="left_eye"><path d="M1279.59,1000.45c-27.376,-23.931 -34.871,-210.896 143.672,-214.882c136.164,-3.04 264.738,119.192 251.893,240.698c-8.169,77.278 -134.013,259.073 -343.556,76.24c135.066,57.002 210.113,-41.301 212.945,-79.972c5.883,-80.328 -57.018,-124.756 -125.013,-136.209c-22.212,-3.741 -89.898,3.262 -139.941,114.125Z"/><path d="M1507.23,1015.07c-0,-54.58 -44.312,-98.891 -98.892,-98.891c-54.579,-0 -98.891,44.311 -98.891,98.891c-0,54.58 44.312,98.892 98.891,98.892c54.58,-0 98.892,-44.312 98.892,-98.892Z" style="fill:#fff;"/><clipPath id="_clip7"><path d="M1507.23,1015.07c-0,-54.58 -44.312,-98.891 -98.892,-98.891c-54.579,-0 -98.891,44.311 -98.891,98.891c-0,54.58 44.312,98.892 98.891,98.892c54.58,-0 98.892,-44.312 98.892,-98.892Z"/></clipPath><g clip-path="url(#_clip7)"><path d="M1348.93,1094.12c16.544,12.459 37.12,19.848 59.406,19.848c54.58,-0 98.892,-44.312 98.892,-98.892c-0,-9.048 -1.218,-17.812 -3.498,-26.141c-8.135,9.723 -20.357,15.911 -34.013,15.911c-24.467,-0 -44.331,-19.864 -44.331,-44.33c0,-15.522 7.995,-29.19 20.086,-37.111c-11.468,-4.655 -24.005,-7.22 -37.136,-7.22c-54.579,-0 -98.891,44.311 -98.891,98.891c-0,21.215 6.695,40.878 18.085,56.991"/></g></g><path id="hoddie_color" d="M982.772,1371.87c-664.565,-226.506 -126.902,-612.135 162.173,-611.196c285.236,0.927 809.551,384.902 165.137,602.002c-11.211,3.777 428.437,24.894 428.437,24.894l-13.388,-286.466l-0,-93.268l-41.665,-154.628l-115.357,-225.807l-143.36,-127.629l-195.35,-70.917l-181.627,-0l-198.808,63.553l-117.812,90.814l-85.905,124.18l-59.91,172.805l-20.578,95.722l-82.134,411.641c0,-0 513.435,-11.171 500.147,-15.7Z" style="fill:#4aae1d;"/><clipPath id="_clip8"><path d="M982.772,1371.87c-664.565,-226.506 -126.902,-612.135 162.173,-611.196c285.236,0.927 809.551,384.902 165.137,602.002c-11.211,3.777 428.437,24.894 428.437,24.894l-13.388,-286.466l-0,-93.268l-41.665,-154.628l-115.357,-225.807l-143.36,-127.629l-195.35,-70.917l-181.627,-0l-198.808,63.553l-117.812,90.814l-85.905,124.18l-59.91,172.805l-20.578,95.722l-82.134,411.641c0,-0 513.435,-11.171 500.147,-15.7Z"/></clipPath><g clip-path="url(#_clip8)"><path id="shadow_head" d="M979.844,382.705l490.206,100.429l225.914,365.967l29.167,235.862l-28.869,34.918c1.263,-33.655 -110.894,-689.292 -702.616,-673.742" style="fill:#525252;fill-opacity:0.25;"/><ellipse cx="1150.64" cy="1138.17" rx="168.75" ry="441.818" style="fill:#00960c;"/><circle cx="1431.58" cy="867.775" r="122.379" style="fill:#0b5a12;"/><circle cx="859.514" cy="867.775" r="122.379" style="fill:#0b5a12;"/></g></g><g id="smile_panda"><g><path d="M1144.94,1118.24c-12.571,42.863 -67.409,56.399 -109.752,14.832" style="fill:none;stroke:#000;stroke-width:20.27px;"/><path d="M1144.94,1118.24c12.571,42.863 67.409,56.399 109.751,14.832" style="fill:none;stroke:#000;stroke-width:20.27px;"/><path d="M1144.94,1073.51c17.651,-0.428 41.812,-12.576 55.75,-6.288c13.938,6.288 13.938,18.863 -0,31.439c-9.756,9.432 -34.844,18.863 -55.751,25.151c-20.906,-6.288 -45.994,-15.719 -55.75,-25.151c-13.938,-12.576 -13.938,-25.151 -0,-31.439c13.938,-6.288 38.098,6.715 55.751,6.288Z"/></g></g><g id="eyes_cricket"><ellipse cx="1022.65" cy="611.565" rx="9.985" ry="23.972" style="stroke:#000;stroke-width:20.66px;stroke-miterlimit:1.5;"/><ellipse cx="1274.73" cy="611.565" rx="9.985" ry="23.972" style="stroke:#000;stroke-width:20.66px;stroke-miterlimit:1.5;"/></g></g></g></g></g></svg>