<?xml version="1.0" encoding="UTF-8" standalone="no"?><!DOCTYPE svg PUBLIC "-//W3C//DTD SVG 1.1//EN" "http://www.w3.org/Graphics/SVG/1.1/DTD/svg11.dtd"><svg width="100%" height="100%" viewBox="0 0 2271 2146" version="1.1" xmlns="http://www.w3.org/2000/svg" xmlns:xlink="http://www.w3.org/1999/xlink" xml:space="preserve" xmlns:serif="http://www.serif.com/" style="fill-rule:evenodd;clip-rule:evenodd;stroke-linecap:round;stroke-linejoin:round;stroke-miterlimit:1.5;"><g id="PANDA"></g><g id="PANDA_COW"><g id="PANDA_COW1" serif:id="PANDA_COW"><g><g id="PANDA1" serif:id="PANDA"><g><g id="tail"><path d="M1417.44,1780.7l57.515,43.022l19.171,-23.85l-71.893,-52.722" style="fill:#cfaac9;"/><path d="M1465.49,1808.66c0,0 16.645,39.682 26.371,42.009c9.727,2.327 19.977,8.625 35.962,-2.406c9.965,-6.877 7.997,-23.562 5.998,-28.707c-3.884,-10 -43.169,-23.211 -58.741,-21.627c-15.572,1.584 -9.59,10.731 -9.59,10.731Z" style="fill:#b18cab;"/></g><path id="body_color" d="M1140.02,1848.62c-9.78,-0.036 -19.251,-0.564 -27.749,-1.612c2.763,17.068 6.071,42.467 4.019,56.319c-1.765,11.917 -8.303,17.976 -14.663,19.237c-71.216,14.115 -143.631,18.675 -185.05,8.851c-22.209,-5.268 -36.338,-15.39 -41.141,-27.972c-22.361,-58.572 -62.847,-210.523 -66.258,-332.077c-9.048,18.674 -18.009,39.236 -28.055,56.481c-14.277,24.509 -31.338,42.308 -51.351,45.283c-40.456,6.016 -69.497,-5.867 -87.273,-28.092c-25.277,-31.602 -27.599,-86.996 -2.52,-147.293c26.587,-63.921 85.774,-143.454 196.434,-173.946c109.07,-37.239 211.676,-44.309 308.33,-45.938c0.134,-0.003 0.269,-0.003 0.403,-0c96.645,1.629 199.242,8.698 308.256,45.915c110.718,30.493 169.918,110.039 196.508,173.969c25.079,60.297 22.757,115.691 -2.52,147.293c-17.776,22.225 -46.817,34.108 -87.272,28.092c-20.014,-2.975 -37.074,-20.774 -51.352,-45.283c-10.046,-17.245 -19.007,-37.808 -28.054,-56.476c-3.412,121.551 -43.898,273.5 -66.259,332.072c-4.803,12.582 -18.931,22.704 -41.141,27.972c-41.419,9.824 -113.834,5.264 -185.05,-8.851c-6.36,-1.261 -12.898,-7.32 -14.663,-19.237c-2.052,-13.852 1.257,-39.251 4.019,-56.319c-8.526,1.051 -18.031,1.579 -27.846,1.613c-3.127,0.068 -6.384,0.074 -9.752,-0.001Z" style="fill:#fdcef5;"/><clipPath id="_clip1"><path d="M1140.02,1848.62c-9.78,-0.036 -19.251,-0.564 -27.749,-1.612c2.763,17.068 6.071,42.467 4.019,56.319c-1.765,11.917 -8.303,17.976 -14.663,19.237c-71.216,14.115 -143.631,18.675 -185.05,8.851c-22.209,-5.268 -36.338,-15.39 -41.141,-27.972c-22.361,-58.572 -62.847,-210.523 -66.258,-332.077c-9.048,18.674 -18.009,39.236 -28.055,56.481c-14.277,24.509 -31.338,42.308 -51.351,45.283c-40.456,6.016 -69.497,-5.867 -87.273,-28.092c-25.277,-31.602 -27.599,-86.996 -2.52,-147.293c26.587,-63.921 85.774,-143.454 196.434,-173.946c109.07,-37.239 211.676,-44.309 308.33,-45.938c0.134,-0.003 0.269,-0.003 0.403,-0c96.645,1.629 199.242,8.698 308.256,45.915c110.718,30.493 169.918,110.039 196.508,173.969c25.079,60.297 22.757,115.691 -2.52,147.293c-17.776,22.225 -46.817,34.108 -87.272,28.092c-20.014,-2.975 -37.074,-20.774 -51.352,-45.283c-10.046,-17.245 -19.007,-37.808 -28.054,-56.476c-3.412,121.551 -43.898,273.5 -66.259,332.072c-4.803,12.582 -18.931,22.704 -41.141,27.972c-41.419,9.824 -113.834,5.264 -185.05,-8.851c-6.36,-1.261 -12.898,-7.32 -14.663,-19.237c-2.052,-13.852 1.257,-39.251 4.019,-56.319c-8.526,1.051 -18.031,1.579 -27.846,1.613c-3.127,0.068 -6.384,0.074 -9.752,-0.001Z"/></clipPath><g clip-path="url(#_clip1)"><g id="latki_body"><path d="M679.366,1542.57c15.719,-5.812 43.564,-21.535 29.062,-52.312c-14.502,-30.776 -8.707,-55.89 5.812,-78.467c14.52,-22.577 20.956,-27.76 17.438,-37.781c-3.519,-10.02 -38.431,18.297 -46.5,29.062c-8.068,10.766 -21.227,26.746 -29.062,31.968c-7.834,5.223 -20.26,5.456 -29.062,29.062c-8.801,23.607 -12.28,31.342 -12.943,40.687c-0.663,9.345 -17.955,13.925 0,20.344c17.955,6.418 49.535,23.249 65.255,17.437Z" style="fill:#dba4d2;"/><path d="M798.905,1265.6c0,-0 -18.254,-1.679 -17.437,24.044c0.818,25.724 -8.798,46.915 11.625,66.048c20.423,19.133 28.326,-10.643 43.593,34.874c15.267,45.518 17.114,65.367 63.936,75.562c46.823,10.195 87.619,38.024 115.568,-11.625c27.948,-49.649 44.129,-46.937 21.024,-79.523c-23.105,-32.586 -57.648,-27.692 -31.968,-54.162c25.679,-26.471 26.499,-18.46 55.217,-31.174c28.719,-12.714 105.446,-28.769 14.531,-24.044c-90.914,4.724 -183.205,-22.396 -194.715,-23.25c-11.51,-0.854 -22.011,-5.152 -37.781,0c-15.769,5.152 -43.593,23.25 -43.593,23.25Z" style="fill:#dba4d2;"/><path d="M893.38,1533.45c-10.866,4.886 -14.088,16.338 -13.27,42.061c0.817,25.723 -8.798,31.558 11.624,50.691c20.423,19.133 44.993,-37.271 60.26,8.247c15.267,45.517 131.966,26.96 108.861,-5.626c-23.104,-32.586 -57.648,-27.692 -31.968,-54.162c25.68,-26.47 -30.123,-40.492 -41.633,-41.346c-11.51,-0.854 -26.178,7.727 -41.948,12.879c-15.769,5.151 -41.06,-17.63 -51.926,-12.744Z" style="fill:#dba4d2;"/><path d="M1259.85,1477.5c1.453,-9.688 24.17,-35.211 55.218,-14.531c31.048,20.679 73.209,-21.22 66.843,26.155c-6.366,47.375 29.035,56.129 20.343,87.186c-8.692,31.058 4.04,51.559 -20.343,58.124c-24.384,6.566 -24.539,-6.423 -31.969,-29.057c-7.429,-22.633 -5.223,-11.905 -17.437,-40.691c-12.214,-28.787 -10.669,-31.974 -26.156,-43.593c-15.486,-11.62 -47.952,-33.906 -46.499,-43.593Z" style="fill:#dba4d2;"/><path d="M1584.47,1539.33c10.354,50.249 -63.668,34.474 -34.875,76.617c28.794,42.142 42.819,52.733 61.031,33.925c18.211,-18.809 51.812,-22.769 66.842,-13.582c15.03,9.187 46.097,-37.15 29.062,-58.124c-17.034,-20.974 -132.795,-90.932 -122.06,-38.836Z" style="fill:#dba4d2;"/><path d="M1509.06,1707.39c-37.821,-16.165 -80.311,-52.301 -92.998,-0c-12.688,52.301 36.954,72.07 -66.843,107.529c-103.797,35.459 -36.203,51.748 -10.243,52.312c25.961,0.564 143.195,7.864 149.741,8.718c6.545,0.854 21.335,-21.162 23.249,-37.78c1.914,-16.619 4.906,-45.619 5.813,-75.561c0.906,-29.943 29.102,-39.053 -8.719,-55.218Z" style="fill:#dba4d2;"/><path d="M1241.78,1686.09c-0,0 75.096,4.403 54.672,35.128c-20.424,30.724 -37.308,18.835 -37.252,52.689c0.055,33.854 -14.693,70.131 -37.819,36.259c-23.125,-33.872 -34.66,-23.252 -6.938,-82.009c27.721,-58.758 27.337,-42.067 27.337,-42.067Z" style="fill:#dba4d2;"/><path d="M817.113,1688.46c0,0 69.695,3.691 78.468,35.783c8.772,32.092 8.919,79.011 31.968,89.184c23.048,10.173 53.52,15.713 40.687,26.156c-12.834,10.443 -68.256,7.401 -90.093,11.625c-21.836,4.223 -30.688,11.177 -31.968,-5.813c-1.279,-16.99 -18.387,-34.609 -20.343,-63.936c-1.957,-29.328 -8.719,-92.999 -8.719,-92.999Z" style="fill:#dba4d2;"/><path d="M1569.33,1369.34c0,0 -46.561,34.259 -81.373,20.344c-34.813,-13.916 -24.261,-26.818 -58.124,-23.25c-33.864,3.568 -56.625,-8.174 -50.29,-17.437c6.336,-9.264 116.554,-21.861 122.945,-23.25c6.39,-1.389 66.842,43.593 66.842,43.593Z" style="fill:#dba4d2;"/></g><path id="leg_right" d="M1177.86,1847.28c0,-0 139.904,-41.149 253.931,8.074c114.026,49.223 -3.931,93.539 -3.931,93.539l-166.666,16.667l-91.667,-4.167l-20.833,-25l29.166,-89.113Z" style="fill:#c388a3;"/><clipPath id="_clip2"><path d="M1177.86,1847.28c0,-0 139.904,-41.149 253.931,8.074c114.026,49.223 -3.931,93.539 -3.931,93.539l-166.666,16.667l-91.667,-4.167l-20.833,-25l29.166,-89.113Z"/></clipPath><g clip-path="url(#_clip2)"><path d="M1300.62,1940.5c-11.485,-13.606 -4.817,-12.161 -12.761,0.874" style="fill:#9bfe21;stroke:#6a445a;stroke-width:21.62px;"/></g><path id="leg_left" d="M1112.03,1847.28c0,-0 -139.904,-41.149 -253.93,8.074c-114.027,49.223 3.93,93.539 3.93,93.539l166.667,16.667l91.666,-4.167l20.834,-25l-29.167,-89.113Z" style="fill:#c388a3;"/><clipPath id="_clip3"><path d="M1112.03,1847.28c0,-0 -139.904,-41.149 -253.93,8.074c-114.027,49.223 3.93,93.539 3.93,93.539l166.667,16.667l91.666,-4.167l20.834,-25l-29.167,-89.113Z"/></clipPath><g clip-path="url(#_clip3)"><path d="M1004.12,1940.86c-11.484,-13.606 -4.817,-12.16 -12.761,0.875" style="fill:#9bfe21;stroke:#6a445a;stroke-width:21.62px;"/></g><g id="hands_detail_-color" serif:id="hands_detail_ color"><path d="M1512.5,1633.33c0,0 53.672,-54.783 155.077,-41.666c135.344,17.506 24.09,70.833 24.09,70.833l-120.834,33.333l-62.5,-37.5l4.167,-25Z" style="fill:#c388a3;"/><clipPath id="_clip4"><path d="M1512.5,1633.33c0,0 53.672,-54.783 155.077,-41.666c135.344,17.506 24.09,70.833 24.09,70.833l-120.834,33.333l-62.5,-37.5l4.167,-25Z"/></clipPath><g clip-path="url(#_clip4)"><path d="M1608.96,1678c-11.484,-13.606 -4.817,-12.161 -12.761,0.874" style="fill:#9bfe21;stroke:#6a445a;stroke-width:21.62px;"/></g></g><g id="hands_detail_-color1" serif:id="hands_detail_ color"><path d="M775.164,1633.33c-0,0 -53.673,-54.783 -155.078,-41.666c-135.343,17.506 -24.089,70.833 -24.089,70.833l120.833,33.333l62.5,-37.5l-4.166,-25Z" style="fill:#c388a3;"/><clipPath id="_clip5"><path d="M775.164,1633.33c-0,0 -53.673,-54.783 -155.078,-41.666c-135.343,17.506 -24.089,70.833 -24.089,70.833l120.833,33.333l62.5,-37.5l-4.166,-25Z"/></clipPath><g clip-path="url(#_clip5)"><path d="M678.706,1678c11.484,-13.606 4.817,-12.161 12.76,0.874" style="fill:#9bfe21;stroke:#6a445a;stroke-width:21.62px;"/></g></g><g id="_2body" serif:id="2body"><ellipse id="body2_color" cx="1143.59" cy="1682.16" rx="109.518" ry="117.042" style="fill:#c388a3;"/><clipPath id="_clip6"><ellipse id="body2_color1" serif:id="body2_color" cx="1143.59" cy="1682.16" rx="109.518" ry="117.042"/></clipPath><g clip-path="url(#_clip6)"><path id="shadow_body2" d="M1215.05,1573.96l74.045,45.184l-35.981,61.796c-0,-0 -35.999,-125.46 -169.1,-99.062l-18.463,-49.358l90.264,25.935" style="fill:#111;fill-opacity:0.25;"/></g></g><g><path d="M1228.05,1348.2c29.712,25.212 27.884,48.701 0,81.297c-28.747,33.606 -5.696,76.264 16.266,87.835" style="fill:none;stroke:#21b0d2;stroke-width:13.83px;stroke-miterlimit:10;"/><path d="M1249.7,1520.8l1.137,-1.969l-7.743,-4.47l-1.137,1.969l7.743,4.47Z" style="fill:#fff;stroke:#fff;stroke-width:13.83px;stroke-miterlimit:10;"/></g><g><path d="M1057.95,1348.2c-29.712,25.212 -27.883,48.701 0,81.297c28.747,33.606 5.696,76.264 -16.265,87.835" style="fill:none;stroke:#21b0d2;stroke-width:13.83px;stroke-miterlimit:10;"/><path d="M1047.21,1515.73l-1.291,-1.872l-7.36,5.075l1.291,1.872l7.36,-5.075Z" style="fill:#fff;stroke:#fff;stroke-width:13.83px;stroke-miterlimit:10;"/></g><g id="body_shadows"><path id="body_shadow_1" d="M1372.77,1936.66l44.032,-11.603l22.961,-91.384l41.705,-200.383l-1.525,-80.469l-2.067,-26.995c0,-0 -64.975,315.18 -152.462,410.834" style="fill:#525252;fill-opacity:0.25;"/><path id="body_shadow_2" d="M1039.49,1951.98l63.231,-12.854l22.651,-3.546l-8.656,-87.179l-20.118,-5.013c0,-0 -0.555,73.85 -57.108,108.592Z" style="fill:#525252;fill-opacity:0.25;"/><path id="body_shadow_3" d="M653.525,1674.17l65.118,6.202l50.915,-23.833l26.721,-43.007l11.149,-39.132c-0,0 21.565,-43.361 18.677,-40.201c-19.819,21.685 -112.116,156.269 -170.128,123.206" style="fill:#525252;fill-opacity:0.25;"/><path d="M811.134,1596.95c0,0 -2.986,-68.751 -2.56,-74.482c0.427,-5.731 50.347,-0 50.347,-0l0.853,49.309l-48.64,25.173Z" style="fill:#fdcef5;"/><path id="body_shadow_4" d="M1661.73,1691.76l21.607,-75.259l-0.278,-33.911l-15.483,-23.988l-5.401,-70.541c-0,0 -133.532,-150.22 -94.376,-100.502c18.284,23.216 94.831,231.094 24.347,287.801" style="fill:#525252;fill-opacity:0.25;"/><path id="body_shadow_5" d="M1462.3,1311.41l44.693,27.732c0,-0 -375.783,105.002 -723.014,5.787l-13.719,-32.697" style="fill:#525252;fill-opacity:0.25;"/></g></g><g id="ears_cow"><path d="M612.843,434.223c45.627,16.474 106.125,9.689 147.756,29.451c50.139,23.799 59.192,84.946 16.875,108.944c-17.762,10.073 -22.952,26.161 -41.03,28.37c-28.661,3.503 -68.798,-21.596 -81.474,-49.037c-25.865,-55.993 -88.178,-134.356 -42.127,-117.728Z"/><clipPath id="_clip7"><path d="M612.843,434.223c45.627,16.474 106.125,9.689 147.756,29.451c50.139,23.799 59.192,84.946 16.875,108.944c-17.762,10.073 -22.952,26.161 -41.03,28.37c-28.661,3.503 -68.798,-21.596 -81.474,-49.037c-25.865,-55.993 -88.178,-134.356 -42.127,-117.728Z"/></clipPath><g clip-path="url(#_clip7)"><path d="M635.541,496.597c-0,0 37.583,65.07 62.857,67.68c25.274,2.609 45.81,3.298 36.391,-13.536c-3.546,-6.338 -20.766,-0.316 -34.42,-4.383c-11.485,-3.422 -27.403,-16.407 -33.961,-23.294c-37.266,-39.142 -35.798,-38.821 -30.867,-26.467Z" style="fill:#dba4d2;"/></g><path d="M1655.54,434.223c-45.627,16.474 -106.124,9.689 -147.756,29.451c-50.139,23.799 -59.192,84.946 -16.875,108.944c17.763,10.073 22.952,26.161 41.03,28.37c28.661,3.503 68.799,-21.596 81.474,-49.037c25.865,-55.993 88.178,-134.356 42.127,-117.728Z"/><clipPath id="_clip8"><path d="M1655.54,434.223c-45.627,16.474 -106.124,9.689 -147.756,29.451c-50.139,23.799 -59.192,84.946 -16.875,108.944c17.763,10.073 22.952,26.161 41.03,28.37c28.661,3.503 68.799,-21.596 81.474,-49.037c25.865,-55.993 88.178,-134.356 42.127,-117.728Z"/></clipPath><g clip-path="url(#_clip8)"><path d="M1632.84,496.597c0,0 -37.583,65.07 -62.857,67.68c-25.273,2.609 -45.81,3.298 -36.391,-13.536c3.547,-6.338 20.766,-0.316 34.42,-4.383c11.485,-3.422 27.404,-16.407 33.961,-23.294c37.266,-39.142 35.799,-38.821 30.867,-26.467Z" style="fill:#dba4d2;"/></g></g><g id="horns_cow"><path d="M879.218,367.283c-11.316,-28.404 -25.821,26.921 -25.821,63.262c-0,36.34 4.176,73.59 28.403,73.59c14.622,0 68.897,-24.538 76.876,-41.048c5.242,-10.846 -36.7,-21.446 -45.89,-32.542c-25.821,-31.176 -24.601,-40.756 -33.568,-63.262Z" style="fill:#868685;"/><path d="M1391.62,367.283c11.316,-28.404 25.821,26.921 25.821,63.262c0,36.34 -4.176,73.59 -28.403,73.59c-14.621,0 -68.897,-24.538 -76.876,-41.048c-5.242,-10.846 36.7,-21.446 45.891,-32.542c25.821,-31.176 24.6,-40.756 33.567,-63.262Z" style="fill:#868685;"/></g><path id="head_color" d="M1131.13,434.007c-308.082,-2.923 -489.073,211.663 -536.034,482.145c-25.975,149.615 -5.323,252.63 53.091,322.421c43.927,52.482 109.464,86.44 193.887,106.833c82.717,19.982 183.776,27.026 300.208,26.428c154.082,-0.791 293.755,-21.821 395.088,-72.226c69.097,-34.37 120.568,-82.378 147.491,-146.578c28.643,-68.302 29.557,-155.277 -7.059,-264.455c-79.475,-236.978 -201.155,-451.29 -546.672,-454.568l-0,-0Z" style="fill:#fff;"/><clipPath id="_clip9"><path id="head_color1" serif:id="head_color" d="M1131.13,434.007c-308.082,-2.923 -489.073,211.663 -536.034,482.145c-25.975,149.615 -5.323,252.63 53.091,322.421c43.927,52.482 109.464,86.44 193.887,106.833c82.717,19.982 183.776,27.026 300.208,26.428c154.082,-0.791 293.755,-21.821 395.088,-72.226c69.097,-34.37 120.568,-82.378 147.491,-146.578c28.643,-68.302 29.557,-155.277 -7.059,-264.455c-79.475,-236.978 -201.155,-451.29 -546.672,-454.568l-0,-0Z"/></clipPath><g clip-path="url(#_clip9)"><g id="hodie_shadow"><path id="shadow_hoddie" d="M1507.52,910.89c0,0 -359.837,-236.634 -738.146,0c-499.121,312.204 35.036,-236.938 35.036,-236.938l520.586,-1.527l339.099,108.291l-156.575,130.174Z" style="fill:#525252;fill-opacity:0.25;"/><path id="shadow_hoddie1" serif:id="shadow_hoddie" d="M640.801,910.89l-187.417,462.058c-0,0 539.809,7.9 506.352,-11.215c-379.493,-216.814 -287.056,-348.558 -287.056,-348.558" style="fill:#525252;fill-opacity:0.25;"/><path id="shadow_hoddie2" serif:id="shadow_hoddie" d="M1630.66,910.89l107.863,459.736c0,-0 -460.255,10.222 -426.798,-8.893c379.493,-216.814 287.056,-348.558 287.056,-348.558" style="fill:#525252;fill-opacity:0.25;"/></g><g id="smile_panda"><g><path d="M1144.94,1118.24c-12.571,42.863 -67.409,56.399 -109.752,14.832" style="fill:none;stroke:#000;stroke-width:20.27px;stroke-miterlimit:10;"/><path d="M1144.94,1118.24c12.571,42.863 67.409,56.399 109.751,14.832" style="fill:none;stroke:#000;stroke-width:20.27px;stroke-miterlimit:10;"/><path d="M1144.94,1073.51c17.651,-0.428 41.812,-12.576 55.75,-6.288c13.938,6.288 13.938,18.863 -0,31.439c-9.756,9.432 -34.844,18.863 -55.751,25.151c-20.906,-6.288 -45.994,-15.719 -55.75,-25.151c-13.938,-12.576 -13.938,-25.151 -0,-31.439c13.938,-6.288 38.098,6.715 55.751,6.288Z"/></g></g><g id="right_eye"><path d="M1009.92,1000.45c27.376,-23.931 34.871,-210.896 -143.672,-214.882c-136.164,-3.04 -264.738,119.192 -251.893,240.698c8.17,77.278 134.013,259.073 343.556,76.24c-135.066,57.002 -210.112,-41.301 -212.944,-79.972c-5.884,-80.328 57.017,-124.756 125.013,-136.209c22.211,-3.741 89.897,3.262 139.94,114.125Z"/><path d="M883.88,916.181c54.58,-0 98.892,44.311 98.892,98.891c-0,54.58 -44.312,98.892 -98.892,98.892c-54.579,-0 -98.891,-44.312 -98.891,-98.892c0,-54.58 44.312,-98.891 98.891,-98.891Z" style="fill:#fff;"/><clipPath id="_clip10"><path d="M883.88,916.181c54.58,-0 98.892,44.311 98.892,98.891c-0,54.58 -44.312,98.892 -98.892,98.892c-54.579,-0 -98.891,-44.312 -98.891,-98.892c0,-54.58 44.312,-98.891 98.891,-98.891Z"/></clipPath><g clip-path="url(#_clip10)"><path d="M804.837,1074.48c-12.459,-16.545 -19.848,-37.12 -19.848,-59.407c0,-54.58 44.312,-98.891 98.891,-98.891c9.048,-0 17.813,1.218 26.141,3.498c-9.722,8.134 -15.91,20.356 -15.91,34.013c-0,24.466 19.863,44.33 44.33,44.33c15.521,-0 29.19,-7.994 37.111,-20.086c4.655,11.468 7.22,24.006 7.22,37.136c-0,54.58 -44.312,98.892 -98.892,98.892c-21.214,-0 -40.877,-6.695 -56.99,-18.085c6.882,-11.65 13.028,-24.631 3.328,-30.231c-11.011,-6.357 -19.932,-5.415 -25.381,8.831Z"/><path d="M804.837,1074.48c-12.459,-16.545 -19.848,-37.12 -19.848,-59.407c0,-54.58 44.312,-98.891 98.891,-98.891c9.048,-0 17.813,1.218 26.141,3.498c-9.722,8.134 -15.91,20.356 -15.91,34.013c-0,24.466 19.863,44.33 44.33,44.33c15.521,-0 29.19,-7.994 37.111,-20.086c4.655,11.468 7.22,24.006 7.22,37.136c-0,54.58 -44.312,98.892 -98.892,98.892c-21.214,-0 -40.877,-6.695 -56.99,-18.085"/></g></g><g id="left_eye"><path d="M1279.59,1000.45c-27.376,-23.931 -34.871,-210.896 143.672,-214.882c136.164,-3.04 264.738,119.192 251.893,240.698c-8.169,77.278 -134.013,259.073 -343.556,76.24c135.066,57.002 210.113,-41.301 212.945,-79.972c5.883,-80.328 -57.018,-124.756 -125.013,-136.209c-22.212,-3.741 -89.898,3.262 -139.941,114.125Z"/><path d="M1507.23,1015.07c-0,-54.58 -44.312,-98.891 -98.892,-98.891c-54.579,-0 -98.891,44.311 -98.891,98.891c-0,54.58 44.312,98.892 98.891,98.892c54.58,-0 98.892,-44.312 98.892,-98.892Z" style="fill:#fff;"/><clipPath id="_clip11"><path d="M1507.23,1015.07c-0,-54.58 -44.312,-98.891 -98.892,-98.891c-54.579,-0 -98.891,44.311 -98.891,98.891c-0,54.58 44.312,98.892 98.891,98.892c54.58,-0 98.892,-44.312 98.892,-98.892Z"/></clipPath><g clip-path="url(#_clip11)"><path d="M1348.93,1094.12c16.544,12.459 37.12,19.848 59.406,19.848c54.58,-0 98.892,-44.312 98.892,-98.892c-0,-9.048 -1.218,-17.812 -3.498,-26.141c-8.135,9.723 -20.357,15.911 -34.013,15.911c-24.467,-0 -44.331,-19.864 -44.331,-44.33c0,-15.522 7.995,-29.19 20.086,-37.111c-11.468,-4.655 -24.005,-7.22 -37.136,-7.22c-54.579,-0 -98.891,44.311 -98.891,98.891c-0,21.215 6.695,40.878 18.085,56.991"/></g></g><path id="hoddie_color" d="M982.772,1371.87c-664.565,-226.506 -126.902,-612.135 162.173,-611.196c285.236,0.927 809.551,384.902 165.137,602.002c-11.211,3.777 428.437,24.894 428.437,24.894l-13.388,-286.466l-0,-93.268l-41.665,-154.628l-115.357,-225.807l-143.36,-127.629l-195.35,-70.917l-181.627,-0l-198.808,63.553l-117.812,90.814l-85.905,124.18l-59.91,172.805l-20.578,95.722l-82.134,411.641c0,-0 513.435,-11.171 500.147,-15.7Z" style="fill:#fdcef5;"/><clipPath id="_clip12"><path d="M982.772,1371.87c-664.565,-226.506 -126.902,-612.135 162.173,-611.196c285.236,0.927 809.551,384.902 165.137,602.002c-11.211,3.777 428.437,24.894 428.437,24.894l-13.388,-286.466l-0,-93.268l-41.665,-154.628l-115.357,-225.807l-143.36,-127.629l-195.35,-70.917l-181.627,-0l-198.808,63.553l-117.812,90.814l-85.905,124.18l-59.91,172.805l-20.578,95.722l-82.134,411.641c0,-0 513.435,-11.171 500.147,-15.7Z"/></clipPath><g clip-path="url(#_clip12)"><g id="latki_head"><path d="M578.236,874.976c0,-0 139.422,1.813 174.1,-82.469c34.679,-84.282 55.124,-82.345 73.306,-85.523c18.181,-3.177 70.257,-78.179 61.087,-125.23c-9.169,-47.051 -23.658,-47.047 -33.598,-45.816c-9.939,1.231 -76.744,5.685 -111.07,37.004c-34.326,31.32 -67.336,118.102 -84.411,146.26c-17.074,28.158 -52.508,64.64 -64.142,94.686c-11.634,30.046 -15.272,61.088 -15.272,61.088Z" style="fill:#dba4d2;"/><path d="M1138.13,434.579c-0,-0 -11.032,37.598 11.413,42.761c22.445,5.163 39.235,2.027 46.62,15.272c7.385,13.245 37.131,41.959 51.925,33.598c14.793,-8.36 63.465,-36.708 85.523,-15.591c22.057,21.117 56.586,23.067 70.251,0c13.664,-23.067 32.884,-25.817 21.38,-33.279c-11.503,-7.461 -103.001,-29.641 -109.958,-30.544c-6.956,-0.903 -49.82,-11.539 -76.359,-12.217c-26.54,-0.679 -100.795,-0 -100.795,-0Z" style="fill:#dba4d2;"/><path d="M1457.02,764.388c0,0 -0.724,-31.782 21.381,-51.927c22.105,-20.146 5.037,-67.989 -0,-79.415c-5.037,-11.426 1.357,-61.462 45.816,-38.337c44.459,23.124 75.641,30.485 73.305,71.936c-2.336,41.45 -47.326,37.012 -3.054,82.468c44.271,45.457 51.147,47.32 45.815,85.523c-5.331,38.203 17.753,70.862 3.055,67.197c-14.698,-3.666 -70.301,-41.627 -88.577,-58.034c-18.277,-16.407 -42.245,-31.447 -58.034,-39.707c-15.789,-8.26 -39.707,-39.704 -39.707,-39.704Z" style="fill:#dba4d2;"/><path d="M1552.66,1314.36c0,-0 -0.724,-31.782 21.381,-51.928c22.105,-20.145 5.037,-67.988 -0,-79.414c-5.037,-11.426 1.357,-61.462 45.816,-38.338c44.459,23.125 75.641,30.486 73.305,71.936c-2.336,41.451 -47.326,37.012 -3.054,82.469c44.271,45.457 51.147,47.32 45.816,85.523c-5.332,38.203 17.752,70.862 3.054,67.196c-14.698,-3.665 -70.301,-41.626 -88.577,-58.033c-18.277,-16.407 -42.245,-31.447 -58.034,-39.707c-15.788,-8.26 -39.707,-39.704 -39.707,-39.704Z" style="fill:#dba4d2;"/><path d="M665.831,1330.33c-18.277,-16.406 -23.465,-92.99 -1.36,-113.135c22.105,-20.146 -102.326,-112.84 -19.863,-136.766c11.992,-3.479 50.387,-3.902 94.845,19.222c44.459,23.125 75.642,30.486 73.306,71.936c-2.336,41.451 -47.326,37.012 -3.055,82.469c44.272,45.456 51.148,47.32 45.816,85.523c-5.331,38.203 -87.881,-53.149 -102.579,-56.814c-14.698,-3.666 -68.834,63.972 -87.11,47.565Z" style="fill:#dba4d2;"/></g><path id="shadow_head" d="M979.844,382.705l490.206,100.429l225.914,365.967l29.167,235.862l-28.869,34.918c1.263,-33.655 -110.894,-689.292 -702.616,-673.742" style="fill:#525252;fill-opacity:0.25;"/><ellipse cx="1148.69" cy="806.923" rx="168.75" ry="139.734" style="fill:#c388a3;"/><clipPath id="_clip13"><ellipse cx="1148.69" cy="806.923" rx="168.75" ry="139.734"/></clipPath><g clip-path="url(#_clip13)"><path d="M1226.65,739.277c1.645,-1.174 2.512,-2.505 2.512,-3.86c-0,-4.261 -8.402,-7.721 -18.75,-7.721c-10.349,0 -18.75,3.46 -18.75,7.721c-0,1.355 0.866,2.686 2.512,3.86l32.476,-0Z" style="fill:#9bfe21;stroke:#000;stroke-width:14.72px;"/><path d="M1089.15,739.277c1.645,-1.174 2.512,-2.505 2.512,-3.86c-0,-4.261 -8.402,-7.721 -18.75,-7.721c-10.349,0 -18.75,3.46 -18.75,7.721c-0,1.355 0.866,2.686 2.512,3.86l32.476,-0Z" style="fill:#9bfe21;stroke:#000;stroke-width:14.72px;"/><path id="shadow_head1" serif:id="shadow_head" d="M1135.42,617.263l128.447,26.315l59.196,95.894l7.643,61.802l-45.065,-16.267c0.331,-8.819 -11.84,-105.197 -150.221,-117.789" style="fill:#525252;fill-opacity:0.25;"/></g></g></g><g id="eyes_cricket"><ellipse cx="1265.18" cy="626.934" rx="16.715" ry="15.895" style="stroke:#000;stroke-width:18.35px;"/><ellipse cx="1023.51" cy="626.934" rx="16.715" ry="15.895" style="stroke:#000;stroke-width:18.35px;"/></g></g></g></g></g></g></svg>