<?xml version="1.0" encoding="UTF-8" standalone="no"?><!DOCTYPE svg PUBLIC "-//W3C//DTD SVG 1.1//EN" "http://www.w3.org/Graphics/SVG/1.1/DTD/svg11.dtd"><svg width="100%" height="100%" viewBox="0 0 4542 4292" version="1.1" xmlns="http://www.w3.org/2000/svg" xmlns:xlink="http://www.w3.org/1999/xlink" xml:space="preserve" xmlns:serif="http://www.serif.com/" style="fill-rule:evenodd;clip-rule:evenodd;stroke-linecap:round;stroke-linejoin:round;stroke-miterlimit:10;"><g id="PANDA_UNICORN"><g id="UNICORN"><g><g id="tail"><path d="M2980.18,3377.97c48.013,-265.162 534.356,257.372 597.628,322.193c0.473,0.464 1.139,0.675 1.793,0.569c0.654,-0.106 1.218,-0.518 1.52,-1.107c-29.111,-64.903 -389.5,-662.5 -603.033,-481.168c-234.521,199.154 -270.395,201.266 -256.268,276.652c14.127,75.387 241.112,-21.881 258.36,-117.139Z" style="fill:#e4292b;"/><path d="M2955.09,3393.36c56.105,-248.511 514.991,190.233 575.616,248.424c0.479,0.461 1.15,0.665 1.805,0.55c0.655,-0.115 1.216,-0.536 1.509,-1.133c-28.991,-59.665 -366.492,-573.932 -574.203,-396.47c-228.844,195.517 -262.661,198.992 -252.543,268.683c10.118,69.691 227.602,-30.52 247.816,-120.054Z" style="fill:#e4cd29;"/><path d="M2932.44,3436.74c56.039,-248.217 518.791,157.027 580.645,213.67c0.486,0.461 1.163,0.66 1.821,0.535c0.658,-0.125 1.216,-0.558 1.5,-1.165c-30.832,-58.231 -371.996,-538.731 -579.239,-361.669c-228.844,195.517 -262.661,198.992 -252.543,268.683c10.118,69.691 227.602,-30.52 247.816,-120.054Z" style="fill:#29e45b;"/><path d="M2904.66,3474.48c55.931,-247.734 542.592,144.43 607.864,201.456c0.491,0.468 1.18,0.667 1.846,0.534c0.665,-0.134 1.224,-0.583 1.497,-1.204c-35.06,-58.957 -399.744,-526.042 -606.48,-349.414c-228.844,195.517 -262.66,198.992 -252.542,268.683c10.118,69.69 227.601,-30.52 247.815,-120.055Z" style="fill:#296fe4;"/><path d="M2918.12,3508.97c74.555,-257.03 415.965,50.637 471.422,102.416c0.515,0.492 1.245,0.687 1.937,0.517c0.692,-0.171 1.249,-0.683 1.476,-1.358c-30.791,-51.548 -280.001,-371.867 -451.195,-225.406c-192.705,164.864 -220.956,168.057 -213.128,226.012c7.827,57.954 168.091,-28.413 189.488,-102.181Z" style="fill:#7e29e4;"/></g><path id="body_color" d="M2280.04,3697.25c-19.559,-0.073 -38.502,-1.129 -55.499,-3.224c5.526,34.136 12.143,84.933 8.039,112.636c-3.53,23.835 -16.606,35.953 -29.326,38.475c-142.431,28.23 -287.262,37.349 -370.099,17.702c-44.42,-10.535 -72.677,-30.781 -82.283,-55.944c-44.722,-117.144 -125.695,-421.046 -132.516,-664.153c-18.096,37.347 -36.018,78.472 -56.109,112.961c-28.556,49.018 -62.676,84.615 -102.704,90.567c-80.911,12.03 -138.994,-11.735 -174.545,-56.184c-50.553,-63.206 -55.198,-173.993 -5.04,-294.586c53.173,-127.843 171.548,-286.909 392.867,-347.893c218.142,-74.478 423.354,-88.618 616.661,-91.877c0.269,-0.004 0.538,-0.004 0.806,0c193.291,3.259 398.484,17.397 616.512,91.832c221.436,60.985 339.836,220.077 393.016,347.938c50.159,120.593 45.514,231.38 -5.04,294.586c-35.551,44.449 -93.634,68.214 -174.545,56.184c-40.027,-5.952 -74.148,-41.549 -102.703,-90.567c-20.092,-34.49 -38.014,-75.616 -56.108,-112.951c-6.824,243.101 -87.795,547 -132.517,664.144c-9.607,25.162 -37.864,45.408 -82.283,55.943c-82.838,19.647 -227.668,10.528 -370.1,-17.702c-12.72,-2.522 -25.796,-14.64 -29.326,-38.475c-4.103,-27.703 2.513,-78.5 8.037,-112.636c-17.051,2.102 -36.061,3.158 -55.69,3.224c-6.254,0.137 -12.768,0.148 -19.505,-0Z" style="fill:#ff7bea;"/><clipPath id="_clip1"><path d="M2280.04,3697.25c-19.559,-0.073 -38.502,-1.129 -55.499,-3.224c5.526,34.136 12.143,84.933 8.039,112.636c-3.53,23.835 -16.606,35.953 -29.326,38.475c-142.431,28.23 -287.262,37.349 -370.099,17.702c-44.42,-10.535 -72.677,-30.781 -82.283,-55.944c-44.722,-117.144 -125.695,-421.046 -132.516,-664.153c-18.096,37.347 -36.018,78.472 -56.109,112.961c-28.556,49.018 -62.676,84.615 -102.704,90.567c-80.911,12.03 -138.994,-11.735 -174.545,-56.184c-50.553,-63.206 -55.198,-173.993 -5.04,-294.586c53.173,-127.843 171.548,-286.909 392.867,-347.893c218.142,-74.478 423.354,-88.618 616.661,-91.877c0.269,-0.004 0.538,-0.004 0.806,0c193.291,3.259 398.484,17.397 616.512,91.832c221.436,60.985 339.836,220.077 393.016,347.938c50.159,120.593 45.514,231.38 -5.04,294.586c-35.551,44.449 -93.634,68.214 -174.545,56.184c-40.027,-5.952 -74.148,-41.549 -102.703,-90.567c-20.092,-34.49 -38.014,-75.616 -56.108,-112.951c-6.824,243.101 -87.795,547 -132.517,664.144c-9.607,25.162 -37.864,45.408 -82.283,55.943c-82.838,19.647 -227.668,10.528 -370.1,-17.702c-12.72,-2.522 -25.796,-14.64 -29.326,-38.475c-4.103,-27.703 2.513,-78.5 8.037,-112.636c-17.051,2.102 -36.061,3.158 -55.69,3.224c-6.254,0.137 -12.768,0.148 -19.505,-0Z"/></clipPath><g clip-path="url(#_clip1)"><g id="arms-legs" serif:id="arms legs"><path id="leg_right" d="M2355.71,3694.57c0,-0 279.808,-82.298 507.861,16.148c228.054,98.445 -7.861,187.078 -7.861,187.078l-333.333,33.333l-183.333,-8.333l-41.667,-50l58.333,-178.226Z" style="fill:#c186ff;"/><path id="leg_right1" serif:id="leg_right" d="M2964.51,3252.62c0,-0 253.115,-144.906 497.775,-101.995c244.661,42.911 35.712,183.806 35.712,183.806l-316.533,109.68l-180.272,34.383l-52.121,-38.981l15.439,-186.893Z" style="fill:#c186ff;"/><path id="leg_right2" serif:id="leg_right" d="M1599.21,3268.49c0,-0 -253.115,-144.906 -497.775,-101.995c-244.66,42.911 -35.711,183.806 -35.711,183.806l316.532,109.68l180.273,34.384l52.12,-38.982l-15.439,-186.893Z" style="fill:#c186ff;"/><path id="leg_left" d="M2224.07,3694.57c0,-0 -279.807,-82.298 -507.861,16.148c-228.053,98.445 7.861,187.078 7.861,187.078l333.333,33.333l183.334,-8.333l41.666,-50l-58.333,-178.226Z" style="fill:#c186ff;"/></g><g id="_2body" serif:id="2body"><ellipse id="body2_color" cx="2287.18" cy="3214.6" rx="298.203" ry="383.798" style="fill:#c186ff;"/><clipPath id="_clip2"><ellipse id="body2_color1" serif:id="body2_color" cx="2287.18" cy="3214.6" rx="298.203" ry="383.798"/></clipPath><g clip-path="url(#_clip2)"><path id="shadow_body2" d="M2481.74,2859.81l201.615,148.166l-108.555,102.638c-0,-0 -178.199,-373.062 -461.198,-208.172l-38.927,-178.521l245.775,85.045" style="fill:#111;fill-opacity:0.25;"/></g></g><g><path d="M2456.1,2696.39c59.425,50.423 55.767,97.403 0,162.594c-57.493,67.211 -11.391,152.529 32.532,175.669" style="fill:none;stroke:#40ffe0;stroke-width:27.67px;"/><path d="M2499.41,3041.61l2.274,-3.939l-15.484,-8.94l-2.274,3.939l15.484,8.94Z" style="fill:#fff;stroke:#fff;stroke-width:27.67px;"/></g><g><path d="M2115.89,2696.39c-59.424,50.423 -55.766,97.403 0,162.594c57.494,67.211 11.392,152.529 -32.531,175.669" style="fill:none;stroke:#40ffe0;stroke-width:27.67px;"/><path d="M2094.42,3031.45l-2.582,-3.744l-14.719,10.152l2.582,3.744l14.719,-10.152Z" style="fill:#fff;stroke:#fff;stroke-width:27.67px;"/></g><g id="body_shadows"><path id="body_shadow_1" d="M2745.53,3873.32l88.066,-23.205l45.921,-182.769l83.41,-400.767l-3.05,-160.937l-4.134,-53.991c0,0 -129.951,630.361 -304.924,821.669" style="fill:#525252;fill-opacity:0.25;"/><path id="body_shadow_2" d="M2078.98,3903.96l126.461,-25.708l45.303,-7.092l-17.312,-174.357l-40.236,-10.027c0,-0 -1.11,147.7 -114.216,217.184Z" style="fill:#525252;fill-opacity:0.25;"/><path id="body_shadow_3" d="M1307.05,3348.39l130.237,12.355l101.828,-47.477l53.444,-85.671l34.796,-77.954c0,0 -8.694,-84.294 -10.29,-75.916c-16.576,87.014 -178.244,327.733 -305.111,241.267" style="fill:#525252;fill-opacity:0.25;"/><path d="M1618.1,3143.9c0,0 -1.806,-87.502 -0.953,-98.964c0.853,-11.463 100.693,-0 100.693,-0l-102.46,156.951l2.72,-57.987Z" style="fill:#ff7bea;"/><path id="body_shadow_4" d="M3323.46,3383.52l43.215,-150.518l-0.557,-67.823l-30.966,-47.977l-10.802,-141.08c-0,-0 -267.064,-300.442 -188.752,-201.005c36.568,46.432 189.662,462.187 48.694,575.602" style="fill:#525252;fill-opacity:0.25;"/><path id="body_shadow_5" d="M2924.59,2622.81l89.386,55.465c0,-0 -751.567,210.005 -1446.03,11.574l-27.438,-65.395" style="fill:#525252;fill-opacity:0.25;"/></g><path d="M1768.03,3112.69c28.834,-2.092 45.322,20.007 45.694,72.294c-1.134,-50.66 12.931,-76.242 44.752,-72.523c-28.606,0.26 -45.315,-21.221 -45.459,-72.976c1.735,49.979 -15.262,72.885 -44.987,73.205Z" style="fill:#fff;"/><path d="M2345.25,3391.44c27.454,-1.993 43.153,19.049 43.507,68.834c-1.079,-48.236 12.312,-72.594 42.61,-69.053c-27.236,0.248 -43.146,-20.204 -43.283,-69.483c1.652,47.587 -14.531,69.397 -42.834,69.702Z" style="fill:#fff;"/><path d="M1373.19,2929.03c27.454,-1.993 43.152,19.049 43.507,68.834c-1.08,-48.237 12.312,-72.594 42.61,-69.053c-27.236,0.248 -43.146,-20.205 -43.284,-69.483c1.653,47.587 -14.531,69.397 -42.833,69.702Z" style="fill:#fff;"/><path d="M2737.77,2880.49c47.81,-3.47 75.148,33.174 75.766,119.872c-1.88,-84.002 21.44,-126.419 74.204,-120.253c-47.431,0.432 -75.138,-35.186 -75.377,-121.003c2.877,82.872 -25.305,120.853 -74.593,121.384Z" style="fill:#fff;"/></g><g><clipPath id="_clip3"><rect x="2085.2" y="1634.53" width="1734.33" height="1025.49"/></clipPath><g clip-path="url(#_clip3)"><path d="M2320.68,773.797c0,0 590.162,-148.566 657.493,236.861c131.671,753.73 216.442,1302.74 424.716,1433.42c208.274,130.681 395.294,173.539 395.294,173.539c0,-0 -114.119,-64.015 -344.13,-218.461c-267.468,-179.598 -271.689,-1204.72 -361.533,-1400.75c-89.844,-196.023 -343.04,-379.794 -771.84,-224.61Z" style="fill:#e4382b;"/><path d="M2249.93,764.803c-0,-0 590.161,-148.567 657.493,236.861c131.671,753.73 216.441,1302.73 424.715,1433.42c208.275,130.682 487.386,224.941 487.386,224.941c0,-0 -187.95,-115.416 -417.961,-269.863c-267.467,-179.598 -289.95,-1204.72 -379.794,-1400.75c-89.844,-196.023 -343.04,-379.794 -771.839,-224.609Z" style="fill:#e4e016;"/><path d="M2244.8,794.272c-0,0 590.162,-148.566 657.493,236.861c131.671,753.73 216.442,1302.73 424.716,1433.42c208.274,130.682 355.493,150.687 355.493,150.687c-0,0 -56.057,-41.162 -286.069,-195.609c-267.467,-179.597 -289.95,-1204.72 -379.794,-1400.75c-89.843,-196.023 -343.039,-379.794 -771.839,-224.61Z" style="fill:#29e45b;"/><path d="M2162.74,798.853c0,0 590.162,-148.566 657.493,236.861c131.671,753.73 216.442,1302.73 424.716,1433.42c208.274,130.682 510.019,195.948 510.019,195.948c0,0 -210.583,-86.423 -440.594,-240.87c-267.468,-179.597 -289.951,-1204.72 -379.794,-1400.75c-89.844,-196.022 -343.04,-379.794 -771.84,-224.609Z" style="fill:#296fe4;"/><path d="M2085.2,796.646c-0,0 590.161,-148.566 657.492,236.861c131.671,753.73 216.442,1302.73 424.716,1433.42c208.274,130.682 557.178,169.709 557.178,169.709c0,0 -257.742,-60.184 -487.753,-214.631c-267.467,-179.597 -289.95,-1204.72 -379.794,-1400.75c-89.844,-196.023 -343.04,-379.794 -771.839,-224.61Z" style="fill:#7e29e4;"/></g></g><g><clipPath id="_clip4"><rect x="2220.29" y="176.936" width="1346.77" height="1491.71"/></clipPath><g clip-path="url(#_clip4)"><path d="M2203.39,935.851c-0,0 138.994,-184.815 215.22,11.659c317.728,818.949 148.624,1767.48 269.674,1945.07c121.05,177.588 277.298,226.805 277.298,226.805c-0,0 -103.265,-77.968 -236.948,-287.85c-155.454,-244.061 -168.521,-1637.13 -220.739,-1903.52c-52.217,-266.381 -245.029,-185.973 -304.505,7.836Z" style="fill:#7e29e4;"/><path d="M2126.86,1005.06c-0,-0 352.082,-439.51 363.918,-63.085c32.497,1033.55 125.797,1770.33 246.847,1947.91c121.05,177.588 275.199,245.282 275.199,245.282c0,0 -101.165,-96.445 -234.849,-306.328c-155.453,-244.06 -189.018,-1624.58 -220.738,-1903.52c-31.391,-276.043 -242.512,-398.995 -430.377,79.734Z" style="fill:#296fe4;"/><path d="M2113.76,970.442c0,0 418.049,-537.504 421.862,-31.85c7.807,1035.46 125.797,1770.33 246.847,1947.91c121.05,177.588 196.001,206.682 196.001,206.682c-0,0 -21.967,-57.845 -155.651,-267.728c-155.454,-244.06 -168.521,-1637.13 -220.739,-1903.52c-52.217,-266.381 -178.23,-437.21 -488.32,48.499Z" style="fill:#29e45b;"/><path d="M2116.77,948.958c-0,-0 406.485,-628.013 477.406,0.895c115.16,1021.21 88.772,1721.86 209.822,1899.45c121.05,177.588 283.271,305.679 283.271,305.679c0,0 -109.237,-156.842 -242.921,-366.724c-155.454,-244.061 -57.5,-1509.7 -182.044,-1920.37c-74.218,-244.723 -270.181,-443.418 -545.534,81.069Z" style="fill:#e4e016;"/><path d="M2107.77,1013.63c-0,0 387.125,-872.895 553.486,4.229c183.705,968.569 -533.555,476.385 -412.505,653.973c121.05,177.587 826.114,1389.26 826.114,1389.26c-0,-0 73.159,-307.812 -60.524,-517.694c-155.454,-244.061 -294.082,-1401.55 -346.299,-1667.93c-52.218,-266.382 -305.043,-522.045 -560.272,138.167Z" style="fill:#e4382b;"/></g></g><path d="M2756.97,981.07c55.812,-82.032 143.088,-154.018 251.063,-219.394c5.661,-3.418 12.609,-3.942 18.719,-1.412c6.109,2.53 10.653,7.812 12.241,14.231c31.478,129.746 16.139,255.367 -40.268,377.374c-68.369,-67.838 -147.913,-125.853 -241.755,-170.799Z" style="fill:#ff7bea;"/><clipPath id="_clip5"><path d="M2756.97,981.07c55.812,-82.032 143.088,-154.018 251.063,-219.394c5.661,-3.418 12.609,-3.942 18.719,-1.412c6.109,2.53 10.653,7.812 12.241,14.231c31.478,129.746 16.139,255.367 -40.268,377.374c-68.369,-67.838 -147.913,-125.853 -241.755,-170.799Z"/></clipPath><g clip-path="url(#_clip5)"><path d="M2951.36,1133.94c-0,-0 99.124,-52.076 58.622,-296.349c-40.502,-244.273 76.913,-59.508 76.913,-59.508l78.286,128.045c0,0 1.646,143.656 -8.734,155.967c-10.38,12.312 -115.31,92.213 -130.494,109.173c-15.184,16.961 -75.283,50.649 -85.512,48.005c-10.228,-2.644 11.993,-83.895 11.993,-83.895" style="fill:#525252;fill-opacity:0.25;"/><g><path d="M2821.88,986.672c-1.931,-1.232 -2.505,-3.794 -1.284,-5.733c33.318,-52.25 88.65,-97.473 157.89,-138.253c1.116,-0.657 2.473,-0.757 3.673,-0.273c1.201,0.485 2.107,1.5 2.454,2.748c21.498,78.163 13.484,153.726 -20.279,227.022c-0.506,1.09 -1.458,1.909 -2.612,2.246c-1.154,0.337 -2.397,0.159 -3.409,-0.489c-20.86,-13.339 -116.899,-74.772 -136.433,-87.268Z" style="fill:#c186ff;"/><clipPath id="_clip6"><path d="M2821.88,986.672c-1.931,-1.232 -2.505,-3.794 -1.284,-5.733c33.318,-52.25 88.65,-97.473 157.89,-138.253c1.116,-0.657 2.473,-0.757 3.673,-0.273c1.201,0.485 2.107,1.5 2.454,2.748c21.498,78.163 13.484,153.726 -20.279,227.022c-0.506,1.09 -1.458,1.909 -2.612,2.246c-1.154,0.337 -2.397,0.159 -3.409,-0.489c-20.86,-13.339 -116.899,-74.772 -136.433,-87.268Z"/></clipPath><g clip-path="url(#_clip6)"><path d="M2914.64,1055.18c0,0 77.374,-19.918 61.894,-160.093c-15.481,-140.176 36.615,-2.565 36.615,-2.565l20.715,34.97l-27.599,74.095l-15.419,44.197l-71.583,95.558l-4.623,-86.162" style="fill:#525252;fill-opacity:0.25;"/></g></g></g><g><path d="M1792.58,998.585c-54.944,-89.357 -146.813,-166.921 -262.407,-236.909c-5.661,-3.418 -12.609,-3.942 -18.718,-1.412c-6.109,2.53 -10.653,7.812 -12.241,14.231c-32.049,132.098 -15.568,259.919 43.373,384.003l249.993,-159.913Z" style="fill:#ff7bea;"/><clipPath id="_clip7"><path d="M1792.58,998.585c-54.944,-89.357 -146.813,-166.921 -262.407,-236.909c-5.661,-3.418 -12.609,-3.942 -18.718,-1.412c-6.109,2.53 -10.653,7.812 -12.241,14.231c-32.049,132.098 -15.568,259.919 43.373,384.003l249.993,-159.913Z"/></clipPath><g clip-path="url(#_clip7)"><path d="M1745.7,1025.07c-0,0 16.3,-110.779 -204.961,-221.924c-221.262,-111.145 -2.789,-97.206 -2.789,-97.206l149.588,12.153c0,-0 117.063,83.282 120.898,98.923c3.836,15.64 6.603,147.499 11.366,169.759c4.763,22.26 -3.411,90.671 -11.572,97.38c-8.161,6.708 -60.735,-59.107 -60.735,-59.107" style="fill:#525252;fill-opacity:0.25;"/></g><path d="M1716.33,986.672c1.931,-1.232 2.505,-3.794 1.283,-5.733c-33.317,-52.25 -88.649,-97.473 -157.889,-138.253c-1.116,-0.657 -2.473,-0.757 -3.674,-0.273c-1.2,0.485 -2.107,1.5 -2.453,2.748c-21.498,78.163 -13.484,153.726 20.279,227.022c0.505,1.09 1.457,1.909 2.611,2.246c1.154,0.337 2.397,0.159 3.41,-0.489c20.859,-13.339 116.899,-74.772 136.433,-87.268Z" style="fill:#c186ff;"/><clipPath id="_clip8"><path d="M1716.33,986.672c1.931,-1.232 2.505,-3.794 1.283,-5.733c-33.317,-52.25 -88.649,-97.473 -157.889,-138.253c-1.116,-0.657 -2.473,-0.757 -3.674,-0.273c-1.2,0.485 -2.107,1.5 -2.453,2.748c-21.498,78.163 -13.484,153.726 20.279,227.022c0.505,1.09 1.457,1.909 2.611,2.246c1.154,0.337 2.397,0.159 3.41,-0.489c20.859,-13.339 116.899,-74.772 136.433,-87.268Z"/></clipPath><g clip-path="url(#_clip8)"><path d="M1693.19,1005.93c0,0 13.364,-78.77 -120.94,-121.795c-134.305,-43.025 20.922,-60.294 20.922,-60.294l32.044,21.161l56.401,55.414l34.068,32.101l58.063,104.327l-80.558,-30.914" style="fill:#525252;fill-opacity:0.25;"/></g></g><path id="head_color" d="M2262.17,877.923c-610.685,-5.795 -969.122,419.922 -1062.21,956.076c-51.292,295.43 -11.327,498.977 104.017,636.786c86.624,103.497 216.019,170.179 382.502,210.396c164.777,39.805 366.098,53.77 598.038,52.579c306.446,-1.575 584.277,-43.169 785.814,-143.416c135.9,-67.598 237.305,-161.848 290.257,-288.116c56.532,-134.804 57.891,-306.449 -14.374,-521.928c-157.669,-470.131 -398.585,-895.873 -1084.04,-902.377l-0.001,-0Z" style="fill:#fff;"/><clipPath id="_clip9"><path id="head_color1" serif:id="head_color" d="M2262.17,877.923c-610.685,-5.795 -969.122,419.922 -1062.21,956.076c-51.292,295.43 -11.327,498.977 104.017,636.786c86.624,103.497 216.019,170.179 382.502,210.396c164.777,39.805 366.098,53.77 598.038,52.579c306.446,-1.575 584.277,-43.169 785.814,-143.416c135.9,-67.598 237.305,-161.848 290.257,-288.116c56.532,-134.804 57.891,-306.449 -14.374,-521.928c-157.669,-470.131 -398.585,-895.873 -1084.04,-902.377l-0.001,-0Z"/></clipPath><g clip-path="url(#_clip9)"><g id="shadow_hoddie"><path id="shadow_hoddie1" serif:id="shadow_hoddie" d="M3015.03,1821.78c-0,-0 -719.676,-473.27 -1476.29,-0c-998.243,624.408 70.072,-473.876 70.072,-473.876l1041.17,-3.055l678.197,216.583l-313.148,260.348Z" style="fill:#525252;fill-opacity:0.25;"/><path id="shadow_hoddie2" serif:id="shadow_hoddie" d="M1281.6,1821.78l-374.834,924.115c-0,0 1079.62,15.799 1012.7,-22.431c-758.985,-433.627 -574.111,-697.115 -574.111,-697.115" style="fill:#525252;fill-opacity:0.25;"/><path id="shadow_hoddie3" serif:id="shadow_hoddie" d="M3261.31,1821.78l215.726,919.47c0,0 -920.51,20.444 -853.595,-17.786c758.985,-433.627 574.111,-697.115 574.111,-697.115" style="fill:#525252;fill-opacity:0.25;"/></g><g id="right_eye"><path d="M2019.85,2000.9c54.751,-47.861 69.741,-421.791 -287.345,-429.763c-272.328,-6.08 -529.476,238.385 -503.786,481.395c16.339,154.557 268.027,518.148 687.113,152.48c-270.133,114.005 -420.226,-82.602 -425.89,-159.943c-11.766,-160.657 114.035,-249.512 250.026,-272.417c44.424,-7.483 179.795,6.522 279.882,228.248Z"/><path d="M1767.76,1832.36c109.16,-0 197.783,88.623 197.783,197.783c-0,109.158 -88.623,197.782 -197.783,197.782c-109.159,0 -197.782,-88.624 -197.782,-197.782c-0,-109.16 88.623,-197.783 197.782,-197.783Z" style="fill:#fff;"/><clipPath id="_clip10"><path d="M1767.76,1832.36c109.16,-0 197.783,88.623 197.783,197.783c-0,109.158 -88.623,197.782 -197.783,197.782c-109.159,0 -197.782,-88.624 -197.782,-197.782c-0,-109.16 88.623,-197.783 197.782,-197.783Z"/></clipPath><g clip-path="url(#_clip10)"><path d="M1609.67,2148.96c-24.919,-33.09 -39.696,-74.24 -39.696,-118.814c-0,-109.16 88.623,-197.783 197.782,-197.783c18.095,-0 35.626,2.435 52.282,6.996c-19.445,16.268 -31.821,40.712 -31.821,68.025c-0,48.934 39.727,88.661 88.66,88.661c31.042,-0 58.381,-15.989 74.221,-40.172c9.311,22.937 14.441,48.011 14.441,74.273c-0,109.158 -88.623,197.782 -197.783,197.782c-42.429,0 -81.756,-13.389 -113.981,-36.17c13.765,-23.298 26.056,-49.26 6.655,-60.462c-22.02,-12.713 -39.863,-10.829 -50.76,17.664Z"/><path d="M1609.67,2148.96c-24.919,-33.09 -39.696,-74.24 -39.696,-118.814c-0,-109.16 88.623,-197.783 197.782,-197.783c18.095,-0 35.626,2.435 52.282,6.996c-19.445,16.268 -31.821,40.712 -31.821,68.025c-0,48.934 39.727,88.661 88.66,88.661c31.042,-0 58.381,-15.989 74.221,-40.172c9.311,22.937 14.441,48.011 14.441,74.273c-0,109.158 -88.623,197.782 -197.783,197.782c-42.429,0 -81.756,-13.389 -113.981,-36.17"/></g></g><g id="left_eye"><path d="M2559.18,2000.9c-54.751,-47.861 -69.742,-421.791 287.345,-429.763c272.328,-6.08 529.476,238.385 503.785,481.395c-16.339,154.557 -268.025,518.148 -687.112,152.48c270.132,114.005 420.226,-82.602 425.89,-159.943c11.767,-160.657 -114.036,-249.512 -250.027,-272.417c-44.423,-7.483 -179.794,6.522 -279.881,228.248Z"/><path d="M3014.46,2030.14c-0,-109.16 -88.625,-197.783 -197.783,-197.783c-109.159,-0 -197.783,88.623 -197.783,197.783c-0,109.158 88.624,197.782 197.783,197.782c109.158,0 197.783,-88.624 197.783,-197.782Z" style="fill:#fff;"/><clipPath id="_clip11"><path d="M3014.46,2030.14c-0,-109.16 -88.625,-197.783 -197.783,-197.783c-109.159,-0 -197.783,88.623 -197.783,197.783c-0,109.158 88.624,197.782 197.783,197.782c109.158,0 197.783,-88.624 197.783,-197.782Z"/></clipPath><g clip-path="url(#_clip11)"><path d="M2697.86,2188.23c33.09,24.918 74.24,39.695 118.814,39.695c109.158,0 197.783,-88.624 197.783,-197.782c-0,-18.096 -2.436,-35.626 -6.996,-52.283c-16.27,19.445 -40.713,31.822 -68.025,31.822c-48.934,-0 -88.662,-39.727 -88.662,-88.66c-0,-31.044 15.988,-58.38 40.172,-74.222c-22.937,-9.31 -48.011,-14.44 -74.272,-14.44c-109.159,-0 -197.783,88.623 -197.783,197.783c-0,42.429 13.39,81.755 36.17,113.98"/></g></g><path id="hoddie_color" d="M1965.54,2743.74c-1329.13,-453.012 -253.804,-1224.27 324.345,-1222.39c570.472,1.853 1619.1,769.804 330.276,1204c-22.423,7.554 856.873,49.787 856.873,49.787l-26.777,-572.931l0,-186.535l-83.329,-309.257l-230.715,-451.613l-286.72,-255.26l-390.7,-141.833l-363.254,-0l-397.615,127.107l-235.625,181.627l-171.809,248.361l-119.82,345.608l-41.157,191.445l-164.267,823.281c0,0 1026.87,-22.341 1000.29,-31.399Z" style="fill:#ff7bea;"/><clipPath id="_clip12"><path d="M1965.54,2743.74c-1329.13,-453.012 -253.804,-1224.27 324.345,-1222.39c570.472,1.853 1619.1,769.804 330.276,1204c-22.423,7.554 856.873,49.787 856.873,49.787l-26.777,-572.931l0,-186.535l-83.329,-309.257l-230.715,-451.613l-286.72,-255.26l-390.7,-141.833l-363.254,-0l-397.615,127.107l-235.625,181.627l-171.809,248.361l-119.82,345.608l-41.157,191.445l-164.267,823.281c0,0 1026.87,-22.341 1000.29,-31.399Z"/></clipPath><g clip-path="url(#_clip12)"><path id="shadow_head" d="M1959.69,765.41l980.411,200.858l451.828,731.935l58.333,471.723l-57.737,69.836c2.526,-67.31 -221.788,-1378.58 -1405.23,-1347.48" style="fill:#525252;fill-opacity:0.25;"/><ellipse cx="2285.76" cy="2026.13" rx="337.5" ry="749.007" style="fill:#c186ff;"/><clipPath id="_clip13"><ellipse cx="2285.76" cy="2026.13" rx="337.5" ry="749.007"/></clipPath><g clip-path="url(#_clip13)"><path id="shadow_head1" serif:id="shadow_head" d="M2221.14,941.935l385.623,189.595l135.161,755.677l20.833,731.133l-174.404,-257.835c52.526,-324.074 -59.08,-1057.4 -338.357,-1083.38" style="fill:#525252;fill-opacity:0.25;"/></g><path d="M1616.94,1341.18c27.454,-1.992 43.153,19.049 43.507,68.834c-1.079,-48.236 12.312,-72.594 42.611,-69.052c-27.237,0.247 -43.147,-20.205 -43.284,-69.483c1.652,47.587 -14.531,69.396 -42.834,69.701Z" style="fill:#fff;"/><path d="M2753.34,1365.22c39.005,-2.831 61.308,27.064 61.812,97.794c-1.534,-68.53 17.492,-103.136 60.538,-98.105c-38.696,0.353 -61.3,-28.705 -61.495,-98.716c2.347,67.608 -20.645,98.594 -60.855,99.027Z" style="fill:#fff;"/><path d="M3155.08,1804.12c22.819,-1.656 35.867,15.833 36.161,57.212c-0.897,-40.092 10.234,-60.337 35.416,-57.394c-22.638,0.206 -35.861,-16.793 -35.975,-57.751c1.373,39.552 -12.078,57.68 -35.602,57.933Z" style="fill:#fff;"/></g></g><g id="smile_panda"><g><path d="M2289.89,2236.49c-25.142,85.724 -134.818,112.797 -219.503,29.663" style="fill:none;stroke:#000;stroke-width:40.53px;"/><path d="M2289.89,2236.49c25.142,85.724 134.819,112.797 219.504,29.663" style="fill:none;stroke:#000;stroke-width:40.53px;"/><path d="M2289.89,2147.03c35.304,-0.855 83.625,-25.151 111.501,-12.575c27.876,12.575 27.876,37.726 -0,62.878c-19.513,18.863 -69.688,37.727 -111.501,50.302c-41.813,-12.575 -91.988,-31.439 -111.501,-50.302c-27.876,-25.152 -27.876,-50.303 -0,-62.878c27.875,-12.576 76.196,13.43 111.501,12.575Z"/></g></g><path d="M2184.39,1437.62c15.719,0 55.017,-27.524 47.158,-33.028c-7.86,-5.505 -86.457,-5.505 -94.316,-0c-7.86,5.504 31.438,33.028 47.158,33.028Z"/><path d="M2397.98,1433.33c15.719,0 55.017,-27.524 47.158,-33.028c-7.86,-5.505 -86.457,-5.505 -94.316,-0c-7.86,5.504 31.438,33.028 47.158,33.028Z"/><g id="eyes"><ellipse cx="1956.19" cy="1218.16" rx="93.805" ry="93.694" style="fill:#fff;"/><clipPath id="_clip14"><ellipse cx="1956.19" cy="1218.16" rx="93.805" ry="93.694"/></clipPath><g clip-path="url(#_clip14)"><ellipse cx="1956.19" cy="1272.59" rx="71.747" ry="73.112" style="stroke:#000;stroke-width:81.48px;stroke-miterlimit:1.5;"/><ellipse cx="1994.56" cy="1184.25" rx="33.384" ry="33.909" style="fill:#fff;"/></g><ellipse cx="2618.8" cy="1218.16" rx="93.805" ry="93.694" style="fill:#fff;"/><clipPath id="_clip15"><ellipse cx="2618.8" cy="1218.16" rx="93.805" ry="93.694"/></clipPath><g clip-path="url(#_clip15)"><ellipse cx="2618.8" cy="1272.59" rx="71.747" ry="73.112" style="stroke:#000;stroke-width:81.48px;stroke-miterlimit:1.5;"/><ellipse cx="2657.17" cy="1184.25" rx="33.384" ry="33.909" style="fill:#fff;"/></g></g><path d="M2108.99,1091.2l153.502,-702.127c0.416,-1.905 2.097,-3.266 4.047,-3.277c1.949,-0.011 3.646,1.332 4.083,3.232l162.049,703.63c-1.266,-2.237 -129.124,134.565 -323.681,-1.458Z" style="fill:#f5a4ef;"/><clipPath id="_clip16"><path d="M2108.99,1091.2l153.502,-702.127c0.416,-1.905 2.097,-3.266 4.047,-3.277c1.949,-0.011 3.646,1.332 4.083,3.232l162.049,703.63c-1.266,-2.237 -129.124,134.565 -323.681,-1.458Z"/></clipPath><g clip-path="url(#_clip16)"><path d="M2152.86,525.233c0,0 122.959,102.181 267.726,71.632" style="fill:none;"/><path d="M2266.67,399.674c9.341,43.157 144.938,669.33 49.336,753.658c-52.477,46.288 192.326,-3.332 192.326,-3.332l-75.659,-575l-82.674,-191.667c0,0 -84.102,-9.851 -91.667,-8.333c-7.565,1.518 8.338,24.674 8.338,24.674Z" style="fill:#767676;fill-opacity:0.25;"/></g></g></g></g></svg>