<?xml version="1.0" encoding="UTF-8" standalone="no"?><!DOCTYPE svg PUBLIC "-//W3C//DTD SVG 1.1//EN" "http://www.w3.org/Graphics/SVG/1.1/DTD/svg11.dtd"><svg width="100%" height="100%" viewBox="0 0 2271 2146" version="1.1" xmlns="http://www.w3.org/2000/svg" xmlns:xlink="http://www.w3.org/1999/xlink" xml:space="preserve" xmlns:serif="http://www.serif.com/" style="fill-rule:evenodd;clip-rule:evenodd;stroke-linecap:round;stroke-linejoin:round;stroke-miterlimit:1.5;"><g id="PANDA"><g id="PANDA1" serif:id="PANDA"><g><g id="PANDA2" serif:id="PANDA"><g><path id="body_color" d="M1144.07,1212.53c95.638,1.613 197.184,8.521 305.121,45.427c106.533,29.226 163.463,105.728 189.026,167.189c38.388,92.295 11.028,172.128 -77.027,159.036c-42.556,-6.328 -63.908,-97.554 -93.847,-135.36c8.165,124.448 -39.84,307.911 -64.82,373.343c-12.451,32.615 -113.795,31.282 -212.789,11.661c-13.941,-2.763 1.85,-78.863 1.85,-78.863c-11.972,3.481 -29.395,4.876 -47.514,4.634c-18.118,0.242 -35.541,-1.153 -47.514,-4.634c0,0 15.791,76.1 1.851,78.863c-98.995,19.621 -200.338,20.954 -212.79,-11.661c-24.98,-65.432 -72.984,-248.895 -64.82,-373.343c-29.938,37.806 -51.29,129.032 -93.847,135.36c-88.055,13.092 -115.414,-66.741 -77.026,-159.036c25.563,-61.461 82.492,-137.963 189.026,-167.189c107.936,-36.906 209.483,-43.814 305.12,-45.427Z"/><ellipse id="_2body_color" serif:id="2body_color" cx="1144.07" cy="1519.77" rx="261.193" ry="176.306" style="fill:#fff;stroke:#000;stroke-width:20.96px;"/><path id="_2body_shadow" serif:id="2body_shadow" d="M1205.88,1343.46l68.294,25.568l77.929,41.356l37.002,50.062l16.15,50.062l-18.326,65.298l-41.356,56.592l-41.356,26.119l-98.337,22.318c-0,-0 340.801,-139.182 -0,-327.043" style="fill:#525252;fill-opacity:0.25;"/><ellipse id="_2body_border" serif:id="2body_border" cx="1144.07" cy="1519.77" rx="261.193" ry="176.306" style="fill:none;stroke:#000;stroke-width:20.96px;"/><g id="shadows_body"><path id="body_shadow_1" d="M1368.92,1847.77l23.321,-13.767l31.67,-86.287l40.624,-195.895l4.664,-76.959l-9.328,-27.985c0,0 -39.531,309.169 -135.261,400.893" style="fill:#525252;fill-opacity:0.25;"/><path id="body_shadow_2" d="M1035.44,1847.77l55.97,-11.435l16.324,-9.328l-4.664,-67.63l-16.324,-6.997c-0,0 -1.247,64.484 -51.306,95.39Z" style="fill:#525252;fill-opacity:0.25;"/><path id="body_shadow_3" d="M715.941,1584.47l30.317,-4.664l11.661,-18.657l25.653,-37.313l18.656,-34.981l11.661,-27.985l2.332,-20.989c-0,0 -100.958,159.613 -151.586,128.265" style="fill:#525252;fill-opacity:0.25;"/><path id="body_shadow_4" d="M1632.45,1572.81l13.993,-23.321l8.708,-25.653l-0,-37.313l-8.708,-46.642l-69.963,-116.604c0,-0 91.505,204.46 20.989,261.193" style="fill:#525252;fill-opacity:0.25;"/><path id="body_shadow_5" d="M809.225,1257.98l269.341,26.716l131.734,0l251.908,-33.712c0,0 -275.279,120.249 -652.983,6.996Z" style="fill:#525252;fill-opacity:0.25;"/></g><path id="body_border" d="M1144.07,1212.53c95.638,1.613 197.184,8.521 305.121,45.427c106.533,29.226 163.463,105.728 189.026,167.189c38.388,92.295 11.028,172.128 -77.027,159.036c-42.556,-6.328 -63.908,-97.554 -93.847,-135.36c8.165,124.448 -39.84,307.911 -64.82,373.343c-12.451,32.615 -113.795,31.282 -212.789,11.661c-13.941,-2.763 1.85,-78.863 1.85,-78.863c-11.972,3.481 -47.514,4.634 -47.514,4.634c-18.118,0.242 -35.541,-1.153 -47.514,-4.634c0,0 15.791,76.1 1.851,78.863c-98.995,19.621 -200.338,20.954 -212.79,-11.661c-24.98,-65.432 -72.984,-248.895 -64.82,-373.343c-29.938,37.806 -51.29,129.032 -93.847,135.36c-88.055,13.092 -115.414,-66.741 -77.026,-159.036c25.563,-61.461 82.492,-137.963 189.026,-167.189c107.936,-36.906 209.483,-43.814 305.12,-45.427Z" style="fill:none;stroke:#000;stroke-width:20.96px;stroke-miterlimit:10;"/><path id="left_ear" d="M876.28,426.981c-174.571,-183.948 -435.282,44.688 -223.246,245.647c52.996,-91.062 118.496,-151.164 223.246,-245.647Z"/><clipPath id="_clip1"><path d="M876.28,426.981c-174.571,-183.948 -435.282,44.688 -223.246,245.647c52.996,-91.062 118.496,-151.164 223.246,-245.647Z"/></clipPath><g clip-path="url(#_clip1)"><path d="M814.954,463.073c-103.818,-109.394 -258.862,26.576 -132.765,146.087c31.517,-54.155 70.47,-89.898 132.765,-146.087Z" style="fill:#1f1d1c;"/></g><path id="right_ear" d="M1394.55,426.981c174.572,-183.948 435.282,44.688 223.246,245.647c-52.996,-91.062 -118.496,-151.164 -223.246,-245.647Z"/><clipPath id="_clip2"><path d="M1394.55,426.981c174.572,-183.948 435.282,44.688 223.246,245.647c-52.996,-91.062 -118.496,-151.164 -223.246,-245.647Z"/></clipPath><g clip-path="url(#_clip2)"><path d="M1455.88,463.073c103.818,-109.394 258.863,26.576 132.765,146.087c-31.517,-54.155 -70.47,-89.898 -132.765,-146.087Z" style="fill:#1f1d1c;"/></g><path id="head_color" d="M1130.15,366.238c340.096,3.227 459.386,214.753 537.614,448.012c118.888,354.495 -163.479,468.548 -526.413,470.412c-385.2,1.979 -600.933,-79.576 -537.615,-444.278c46.147,-265.792 223.674,-477.018 526.414,-474.146Z" style="fill:#fff;stroke:#080605;stroke-width:16.88px;stroke-miterlimit:10;"/><g id="smile_panda"><g><path d="M1144.07,1040.87c-12.576,42.882 -67.439,56.424 -109.801,14.839" style="fill:none;stroke:#000;stroke-width:20.24px;stroke-miterlimit:10;"/><path d="M1144.07,1040.87c12.577,42.882 67.44,56.424 109.801,14.839" style="fill:none;stroke:#000;stroke-width:20.24px;stroke-miterlimit:10;"/><path d="M1144.07,996.119c17.66,-0.427 41.832,-12.581 55.776,-6.29c13.944,6.29 13.944,18.872 -0,31.453c-9.761,9.436 -34.86,18.872 -55.776,25.163c-20.916,-6.291 -46.015,-15.727 -55.776,-25.163c-13.944,-12.581 -13.944,-25.163 0,-31.453c13.944,-6.291 38.116,6.718 55.776,6.29Z"/></g></g><path id="shadow_head" d="M1380.59,416.099c107.557,60.825 187.406,153.975 247.201,270.522l67.548,219.407l-19.927,174.715l-122.33,134.459l-289.096,69.495c467.68,-157.27 467.777,-639.578 -4.964,-904.495" style="fill:#525252;fill-opacity:0.25;"/><g id="right_eye"><path d="M1008.98,923.025c27.388,-23.941 34.887,-210.99 -143.737,-214.978c-136.225,-3.041 -264.858,119.246 -252.007,240.806c8.173,77.313 134.074,259.191 343.712,76.275c-135.128,57.027 -210.208,-41.32 -213.041,-80.008c-5.886,-80.365 57.043,-124.812 125.069,-136.27c22.222,-3.743 89.938,3.263 140.004,114.175Z"/><path d="M882.884,838.717c54.605,-0 98.936,44.331 98.936,98.936c0,54.604 -44.331,98.936 -98.936,98.936c-54.604,-0 -98.935,-44.332 -98.935,-98.936c-0,-54.605 44.331,-98.936 98.935,-98.936Z" style="fill:#fff;"/><clipPath id="_clip3"><path d="M882.884,838.717c54.605,-0 98.936,44.331 98.936,98.936c0,54.604 -44.331,98.936 -98.936,98.936c-54.604,-0 -98.935,-44.332 -98.935,-98.936c-0,-54.605 44.331,-98.936 98.935,-98.936Z"/></clipPath><g clip-path="url(#_clip3)"><path d="M803.806,997.087c-12.465,-16.553 -19.857,-37.137 -19.857,-59.434c-0,-54.605 44.331,-98.936 98.935,-98.936c9.052,-0 17.821,1.218 26.153,3.499c-9.727,8.138 -15.918,20.366 -15.918,34.028c0,24.478 19.873,44.35 44.351,44.35c15.528,0 29.203,-7.997 37.127,-20.094c4.657,11.473 7.223,24.016 7.223,37.153c0,54.604 -44.331,98.936 -98.936,98.936c-21.224,-0 -40.896,-6.698 -57.016,-18.093c6.886,-11.655 13.034,-24.642 3.329,-30.245c-11.015,-6.36 -19.94,-5.417 -25.391,8.836Z"/><path d="M803.806,997.087c-12.465,-16.553 -19.857,-37.137 -19.857,-59.434c-0,-54.605 44.331,-98.936 98.935,-98.936c9.052,-0 17.821,1.218 26.153,3.499c-9.727,8.138 -15.918,20.366 -15.918,34.028c0,24.478 19.873,44.35 44.351,44.35c15.528,0 29.203,-7.997 37.127,-20.094c4.657,11.473 7.223,24.016 7.223,37.153c0,54.604 -44.331,98.936 -98.936,98.936c-21.224,-0 -40.896,-6.698 -57.016,-18.093"/></g></g><g id="left_eye"><path d="M1278.77,923.025c-27.388,-23.941 -34.886,-210.99 143.738,-214.978c136.225,-3.041 264.857,119.246 252.006,240.806c-8.173,77.313 -134.073,259.191 -343.711,76.275c135.127,57.027 210.208,-41.32 213.041,-80.008c5.886,-80.365 -57.044,-124.812 -125.07,-136.27c-22.222,-3.743 -89.938,3.263 -140.004,114.175Z"/><path d="M1506.51,937.653c-0,-54.605 -44.332,-98.936 -98.936,-98.936c-54.604,-0 -98.936,44.331 -98.936,98.936c-0,54.604 44.332,98.936 98.936,98.936c54.604,-0 98.936,-44.332 98.936,-98.936Z" style="fill:#fff;"/><clipPath id="_clip4"><path d="M1506.51,937.653c-0,-54.605 -44.332,-98.936 -98.936,-98.936c-54.604,-0 -98.936,44.331 -98.936,98.936c-0,54.604 44.332,98.936 98.936,98.936c54.604,-0 98.936,-44.332 98.936,-98.936Z"/></clipPath><g clip-path="url(#_clip4)"><path d="M1348.14,1016.73c16.553,12.465 37.137,19.857 59.434,19.857c54.604,-0 98.936,-44.332 98.936,-98.936c-0,-9.052 -1.219,-17.821 -3.499,-26.153c-8.139,9.727 -20.366,15.918 -34.028,15.918c-24.478,-0 -44.351,-19.873 -44.351,-44.35c-0,-15.529 7.997,-29.203 20.095,-37.128c-11.474,-4.657 -24.016,-7.223 -37.153,-7.223c-54.604,-0 -98.936,44.331 -98.936,98.936c-0,21.224 6.698,40.896 18.093,57.016"/></g></g><path id="head_border" d="M1130.15,366.238c340.096,3.227 459.386,214.753 537.614,448.012c118.888,354.495 -163.479,468.548 -526.413,470.412c-385.2,1.979 -600.933,-79.576 -537.615,-444.278c46.147,-265.792 223.674,-477.018 526.414,-474.146Z" style="fill:none;stroke:#080605;stroke-width:16.88px;stroke-miterlimit:10;"/></g></g></g></g></g></svg>