<?xml version="1.0" encoding="UTF-8" standalone="no"?>
<!DOCTYPE svg PUBLIC "-//W3C//DTD SVG 1.1//EN" "http://www.w3.org/Graphics/SVG/1.1/DTD/svg11.dtd">
<svg width="100%" height="100%" viewBox="0 0 1090 1030" version="1.1" xmlns="http://www.w3.org/2000/svg" xmlns:xlink="http://www.w3.org/1999/xlink" xml:space="preserve" xmlns:serif="http://www.serif.com/" style="fill-rule:evenodd;clip-rule:evenodd;stroke-linecap:round;stroke-linejoin:round;stroke-miterlimit:1.5;">
    <g transform="matrix(2.77329,0,0,2.77329,-1490.34,-4305.76)">
        <g id="PANDA">
            <g id="PANDA_BODY">
                <g>
                    <g id="PANDA1" serif:id="PANDA">
                        <g>
                            <g id="body_color" transform="matrix(0.624649,0,0,0.624649,217.031,1485.32)">
                                <path d="M833.58,586.509C874.59,587.2 918.133,590.163 964.416,605.988C1010.1,618.52 1034.51,651.324 1045.47,677.679C1061.93,717.255 1050.2,751.487 1012.44,745.873C994.194,743.16 985.038,704.042 972.2,687.831C975.701,741.194 955.117,819.864 944.405,847.921C939.066,861.906 895.61,861.335 853.161,852.921C847.183,851.736 853.954,819.105 853.954,819.105C848.821,820.597 841.35,821.195 833.58,821.092C825.811,821.195 818.34,820.597 813.206,819.105C813.206,819.105 819.978,851.736 814,852.921C771.551,861.335 728.095,861.906 722.756,847.921C712.044,819.864 691.46,741.194 694.961,687.831C682.123,704.042 672.967,743.16 654.719,745.873C616.961,751.487 605.229,717.255 621.69,677.679C632.651,651.324 657.063,618.52 702.745,605.988C749.028,590.163 792.571,587.2 833.58,586.509Z"/>
                            </g>
                            <g id="_2body_color" serif:id="2body_color" transform="matrix(0.506962,0,0,0.524705,376.263,1600.78)">
                                <ellipse cx="713" cy="635" rx="138" ry="90" style="fill:white;stroke:black;stroke-width:10.88px;"/>
                            </g>
                            <g id="_2body_shadow" serif:id="2body_shadow" transform="matrix(-0.583006,0,0,0.583006,1223.71,1515.23)">
                                <path d="M805.179,637.253L773.803,649L738,668L721,691L713.58,714L722,744L741,770L760,782L805.179,792.253C805.179,792.253 648.605,728.309 805.179,642" style="fill:rgb(82,82,82);fill-opacity:0.25;"/>
                            </g>
                            <g id="_2body_border" serif:id="2body_border" transform="matrix(0.506962,0,0,0.524705,376.263,1600.78)">
                                <ellipse cx="713" cy="635" rx="138" ry="90" style="fill:none;stroke:black;stroke-width:10.88px;"/>
                            </g>
                            <g id="shadows_body">
                                <g id="body_shadow_1" transform="matrix(0.624649,0,0,0.624649,217.031,1485.32)">
                                    <path d="M930,858.903L940,853L953.58,816L971,732L973,699L969,687C969,687 952.049,819.572 911,858.903" style="fill:rgb(82,82,82);fill-opacity:0.25;"/>
                                </g>
                                <g id="body_shadow_3" transform="matrix(0.624649,0,0,0.624649,217.031,1485.32)">
                                    <path d="M650,746L663,744L668,736L679,720L687,705L692,693L693,684C693,684 649.709,752.442 628,739" style="fill:rgb(82,82,82);fill-opacity:0.25;"/>
                                </g>
                                <g id="body_shadow_4" transform="matrix(0.624649,0,0,0.624649,217.031,1485.32)">
                                    <path d="M1043,741L1049,731L1052.73,720L1052.73,704L1049,684L1019,634C1019,634 1058.24,721.673 1028,746" style="fill:rgb(82,82,82);fill-opacity:0.25;"/>
                                </g>
                                <g id="body_shadow_5" transform="matrix(0.624649,0,0,0.624649,217.031,1485.32)">
                                    <path d="M690,606L805.494,617.456L861.982,617.456L970,603C970,603 851.96,654.563 690,606Z" style="fill:rgb(82,82,82);fill-opacity:0.25;"/>
                                </g>
                            </g>
                            <g id="body_border" transform="matrix(0.624649,0,0,0.624649,217.031,1485.32)">
                                <path d="M833.58,586.509C874.59,587.2 918.133,590.163 964.416,605.988C1010.1,618.52 1034.51,651.324 1045.47,677.679C1061.93,717.255 1050.2,751.487 1012.44,745.873C994.194,743.16 985.038,704.042 972.2,687.831C975.701,741.194 955.117,819.864 944.405,847.921C939.066,861.906 895.61,861.335 853.161,852.921C847.183,851.736 853.954,819.105 853.954,819.105C848.821,820.597 833.58,821.092 833.58,821.092C825.811,821.195 818.34,820.597 813.206,819.105C813.206,819.105 819.978,851.736 814,852.921C771.551,861.335 728.095,861.906 722.756,847.921C712.044,819.864 691.46,741.194 694.961,687.831C682.123,704.042 672.967,743.16 654.719,745.873C616.961,751.487 605.229,717.255 621.69,677.679C632.651,651.324 657.063,618.52 702.745,605.988C749.028,590.163 792.571,587.2 833.58,586.509Z" style="fill:none;stroke:black;stroke-width:8.99px;stroke-miterlimit:10;"/>
                            </g>
                            <g id="left_ear" transform="matrix(1,0,0,1,0,-1.81472)">
                                <path d="M666,1643.09C619.241,1593.81 549.41,1655.05 606.203,1708.88C620.399,1684.49 637.943,1668.39 666,1643.09Z"/>
                                <clipPath id="_clip1">
                                    <path d="M666,1643.09C619.241,1593.81 549.41,1655.05 606.203,1708.88C620.399,1684.49 637.943,1668.39 666,1643.09Z"/>
                                </clipPath>
                                <g clip-path="url(#_clip1)">
                                    <path d="M649.574,1652.75C621.766,1623.45 580.237,1659.87 614.013,1691.88C622.455,1677.38 632.888,1667.8 649.574,1652.75Z" style="fill:rgb(31,29,28);"/>
                                </g>
                            </g>
                            <g id="right_ear" transform="matrix(-1,0,0,1,1470.82,-1.81472)">
                                <path d="M666,1643.09C619.241,1593.81 549.41,1655.05 606.203,1708.88C620.399,1684.49 637.943,1668.39 666,1643.09Z"/>
                                <clipPath id="_clip2">
                                    <path d="M666,1643.09C619.241,1593.81 549.41,1655.05 606.203,1708.88C620.399,1684.49 637.943,1668.39 666,1643.09Z"/>
                                </clipPath>
                                <g clip-path="url(#_clip2)">
                                    <path d="M649.574,1652.75C621.766,1623.45 580.237,1659.87 614.013,1691.88C622.455,1677.38 632.888,1667.8 649.574,1652.75Z" style="fill:rgb(31,29,28);"/>
                                </g>
                            </g>
                            <path id="head_color" d="M734,1625C825.095,1625.86 857.046,1682.52 878,1745C909.844,1839.95 834.212,1870.5 737,1871C633.824,1871.53 576.04,1849.69 593,1752C605.36,1680.81 652.911,1624.23 734,1625Z" style="fill:white;stroke:rgb(8,6,5);stroke-width:4.52px;stroke-miterlimit:10;"/>
                            <g id="smile_panda" transform="matrix(0.794873,0,0,0.794873,155.139,368.57)">
                                <g>
                                    <g transform="matrix(1,0,0,1,1.93215,0)">
                                        <path d="M731,1808C726.762,1822.45 708.275,1827.01 694,1813" style="fill:none;stroke:black;stroke-width:6.82px;stroke-miterlimit:10;"/>
                                    </g>
                                    <g transform="matrix(1,0,0,1,1.93215,0)">
                                        <path d="M731,1808C735.238,1822.45 753.725,1827.01 768,1813" style="fill:none;stroke:black;stroke-width:6.82px;stroke-miterlimit:10;"/>
                                    </g>
                                    <g transform="matrix(0.653754,0,0,0.653754,121.763,1472.26)">
                                        <path d="M934.86,490.485C943.963,490.265 956.422,484 963.61,487.242C970.797,490.485 970.797,496.97 963.61,503.455C958.578,508.319 945.641,513.182 934.86,516.425C924.079,513.182 911.142,508.319 906.111,503.455C898.924,496.97 898.924,490.485 906.111,487.242C913.299,484 925.757,490.705 934.86,490.485Z"/>
                                    </g>
                                </g>
                            </g>
                            <g id="shadow_head" transform="matrix(0.624649,0,0,0.624649,217.031,1485.32)">
                                <path d="M935,245C981.12,271.082 1015.36,311.025 1041,361L1069.96,455.082L1061.42,530L1008.97,587.656L885,617.456C1085.54,550.018 1085.58,343.204 882.871,229.607" style="fill:rgb(82,82,82);fill-opacity:0.25;"/>
                            </g>
                            <g id="right_eye" transform="matrix(1,0,0,1,-0.731025,-2.27374e-13)">
                                <g transform="matrix(1,0,0,1,-5.68434e-14,3.55355)">
                                    <path d="M702.275,1770.58C709.611,1764.17 711.62,1714.07 663.775,1713C627.288,1712.18 592.833,1744.94 596.275,1777.5C598.465,1798.21 632.187,1846.92 688.339,1797.93C652.145,1813.2 632.034,1786.86 631.276,1776.5C629.699,1754.97 646.555,1743.07 664.775,1740C670.728,1739 688.865,1740.87 702.275,1770.58Z"/>
                                </g>
                                <g transform="matrix(1,0,0,1,-5.68434e-14,3.55355)">
                                    <path d="M668.5,1748C683.126,1748 695,1759.87 695,1774.5C695,1789.13 683.126,1801 668.5,1801C653.874,1801 642,1789.13 642,1774.5C642,1759.87 653.874,1748 668.5,1748Z" style="fill:white;"/>
                                    <clipPath id="_clip3">
                                        <path d="M668.5,1748C683.126,1748 695,1759.87 695,1774.5C695,1789.13 683.126,1801 668.5,1801C653.874,1801 642,1789.13 642,1774.5C642,1759.87 653.874,1748 668.5,1748Z"/>
                                    </clipPath>
                                    <g clip-path="url(#_clip3)">
                                        <path d="M647.319,1790.42C643.98,1785.99 642,1780.47 642,1774.5C642,1759.87 653.874,1748 668.5,1748C670.924,1748 673.273,1748.33 675.505,1748.94C672.9,1751.12 671.241,1754.39 671.241,1758.05C671.241,1764.61 676.564,1769.93 683.121,1769.93C687.28,1769.93 690.943,1767.79 693.065,1764.55C694.313,1767.62 695,1770.98 695,1774.5C695,1789.13 683.126,1801 668.5,1801C662.815,1801 657.546,1799.21 653.228,1796.15C655.072,1793.03 656.719,1789.55 654.12,1788.05C651.169,1786.35 648.779,1786.6 647.319,1790.42Z"/>
                                        <path d="M647.319,1790.42C643.98,1785.99 642,1780.47 642,1774.5C642,1759.87 653.874,1748 668.5,1748C670.924,1748 673.273,1748.33 675.505,1748.94C672.9,1751.12 671.241,1754.39 671.241,1758.05C671.241,1764.61 676.564,1769.93 683.121,1769.93C687.28,1769.93 690.943,1767.79 693.065,1764.55C694.313,1767.62 695,1770.98 695,1774.5C695,1789.13 683.126,1801 668.5,1801C662.815,1801 657.546,1799.21 653.228,1796.15"/>
                                    </g>
                                </g>
                            </g>
                            <g id="left_eye" transform="matrix(1,0,0,1,0.834964,-2.27374e-13)">
                                <g transform="matrix(1,0,0,1,8.97325,3.55355)">
                                    <path d="M764,1770.58C756.664,1764.17 754.655,1714.07 802.5,1713C838.988,1712.18 873.442,1744.94 870,1777.5C867.811,1798.21 834.088,1846.92 777.937,1797.93C814.131,1813.2 834.241,1786.86 835,1776.5C836.576,1754.97 819.721,1743.07 801.5,1740C795.548,1739 777.41,1740.87 764,1770.58Z"/>
                                </g>
                                <g transform="matrix(1,0,0,1,8.97325,3.55355)">
                                    <path d="M825,1774.5C825,1759.87 813.126,1748 798.5,1748C783.874,1748 772,1759.87 772,1774.5C772,1789.13 783.874,1801 798.5,1801C813.126,1801 825,1789.13 825,1774.5Z" style="fill:white;"/>
                                    <clipPath id="_clip4">
                                        <path d="M825,1774.5C825,1759.87 813.126,1748 798.5,1748C783.874,1748 772,1759.87 772,1774.5C772,1789.13 783.874,1801 798.5,1801C813.126,1801 825,1789.13 825,1774.5Z"/>
                                    </clipPath>
                                    <g clip-path="url(#_clip4)">
                                        <path d="M782.581,1795.68C787.014,1799.02 792.528,1801 798.5,1801C813.126,1801 825,1789.13 825,1774.5C825,1772.08 824.674,1769.73 824.063,1767.5C821.883,1770.1 818.608,1771.76 814.948,1771.76C808.392,1771.76 803.069,1766.44 803.069,1759.88C803.069,1755.72 805.211,1752.06 808.451,1749.93C805.378,1748.69 802.019,1748 798.5,1748C783.874,1748 772,1759.87 772,1774.5C772,1780.18 773.794,1785.45 776.846,1789.77"/>
                                    </g>
                                </g>
                            </g>
                            <path id="head_border" d="M734,1625C825.095,1625.86 857.046,1682.52 878,1745C909.844,1839.95 834.212,1870.5 737,1871C633.824,1871.53 576.04,1849.69 593,1752C605.36,1680.81 652.911,1624.23 734,1625Z" style="fill:none;stroke:rgb(8,6,5);stroke-width:4.52px;stroke-miterlimit:10;"/>
                        </g>
                    </g>
                </g>
            </g>
        </g>
    </g>
    <g id="PANDA_DONE">
    </g>
</svg>
